%TF.GenerationSoftware,KiCad,Pcbnew,7.0.6-0*%
%TF.CreationDate,2023-07-10T11:59:54-07:00*%
%TF.ProjectId,PilotDingus,50696c6f-7444-4696-9e67-75732e6b6963,2*%
%TF.SameCoordinates,Original*%
%TF.FileFunction,Profile,NP*%
%FSLAX46Y46*%
G04 Gerber Fmt 4.6, Leading zero omitted, Abs format (unit mm)*
G04 Created by KiCad (PCBNEW 7.0.6-0) date 2023-07-10 11:59:54*
%MOMM*%
%LPD*%
G01*
G04 APERTURE LIST*
%TA.AperFunction,Profile*%
%ADD10C,0.100000*%
%TD*%
%TA.AperFunction,Profile*%
%ADD11C,0.150000*%
%TD*%
G04 APERTURE END LIST*
D10*
X155448000Y-12573000D02*
X142748000Y-12573000D01*
D11*
X161798000Y-27051000D02*
G75*
G03*
X161036000Y-27813000I0J-762000D01*
G01*
X157480000Y-60833000D02*
X168148000Y-60833000D01*
X171627676Y-25931277D02*
X171450000Y-25019000D01*
D10*
X171958000Y21717000D02*
G75*
G03*
X155448000Y38227000I-16510000J0D01*
G01*
X78613000Y-12573000D02*
G75*
G03*
X74803000Y-16383000I0J-3810000D01*
G01*
D11*
X152400000Y-43307000D02*
X130556000Y-43307000D01*
X171402515Y-26772320D02*
X171488606Y-26633250D01*
X171488606Y-26633250D02*
X171558141Y-26487558D01*
X153416000Y-31369000D02*
X153416000Y-42291000D01*
D10*
X74803000Y6477000D02*
G75*
G03*
X91313000Y-10033000I16510000J0D01*
G01*
D11*
X126238000Y-60833000D02*
X91313000Y-60833000D01*
D10*
X124968000Y-12573000D02*
X117348000Y-12573000D01*
D11*
X171958000Y-46863000D02*
G75*
G03*
X171196000Y-46101000I-762000J0D01*
G01*
X156718000Y-56515000D02*
X156718000Y-60071000D01*
D10*
X130048000Y-12573000D02*
X137668000Y-12573000D01*
X104648000Y-10033000D02*
G75*
G03*
X104648000Y-12573000I0J-1270000D01*
G01*
D11*
X153416000Y-31369000D02*
G75*
G03*
X152400000Y-30353000I-1016000J0D01*
G01*
D10*
X155448000Y38227000D02*
X78613000Y38227000D01*
D11*
X171558141Y-26487558D02*
X171607809Y-26285575D01*
D10*
X112268000Y-12573000D02*
G75*
G03*
X112268000Y-10033000I0J1270000D01*
G01*
X112268000Y-12573000D02*
X104648000Y-12573000D01*
D11*
X129540000Y-42291000D02*
G75*
G03*
X130556000Y-43307000I1016000J0D01*
G01*
X126238000Y-60833000D02*
G75*
G03*
X127000000Y-60071000I0J762000D01*
G01*
X130556000Y-30353000D02*
G75*
G03*
X129540000Y-31369000I0J-1016000D01*
G01*
D10*
X99568000Y-12573000D02*
G75*
G03*
X99568000Y-10033000I0J1270000D01*
G01*
D11*
X171127685Y-26954436D02*
X171276689Y-26874968D01*
D10*
X142748000Y-10033000D02*
G75*
G03*
X142748000Y-12573000I0J-1270000D01*
G01*
D11*
X130556000Y-30353000D02*
X152400000Y-30353000D01*
X170935636Y-27014038D02*
X171127685Y-26954436D01*
X127762000Y-55753000D02*
G75*
G03*
X127000000Y-56515000I0J-762000D01*
G01*
D10*
X124968000Y-12573000D02*
G75*
G03*
X124968000Y-10033000I0J1270000D01*
G01*
X168148000Y-10033000D02*
X142748000Y-10033000D01*
X137668000Y-12573000D02*
G75*
G03*
X137668000Y-10033000I0J1270000D01*
G01*
X117348000Y-10033000D02*
X124968000Y-10033000D01*
D11*
X156718000Y-60071000D02*
G75*
G03*
X157480000Y-60833000I762000J0D01*
G01*
D10*
X74803000Y-44323000D02*
G75*
G03*
X91313000Y-60833000I16510000J0D01*
G01*
D11*
X171958000Y-57023000D02*
X171958000Y-46863000D01*
D10*
X117348000Y-10033000D02*
G75*
G03*
X117348000Y-12573000I0J-1270000D01*
G01*
D11*
X127762000Y-55753000D02*
X155956000Y-55753000D01*
D10*
X168148000Y-10033000D02*
G75*
G03*
X171958000Y-6223000I0J3810000D01*
G01*
D11*
X161036000Y-45339000D02*
G75*
G03*
X161798000Y-46101000I762000J0D01*
G01*
X171607809Y-26285575D02*
X171627676Y-26090214D01*
X129540000Y-42291000D02*
X129540000Y-31369000D01*
X170688000Y-27051000D02*
X161798000Y-27051000D01*
D10*
X168148000Y-60833000D02*
G75*
G03*
X171958000Y-57023000I0J3810000D01*
G01*
X130048000Y-10033000D02*
G75*
G03*
X130048000Y-12573000I0J-1270000D01*
G01*
D11*
X127000000Y-60071000D02*
X127000000Y-56515000D01*
X161798000Y-46101000D02*
X171196000Y-46101000D01*
X171627676Y-26090214D02*
X171627676Y-25931277D01*
D10*
X78613000Y38227000D02*
G75*
G03*
X74803000Y34417000I0J-3810000D01*
G01*
D11*
X156718000Y-56515000D02*
G75*
G03*
X155956000Y-55753000I-762000J0D01*
G01*
X171276689Y-26874968D02*
X171402515Y-26772320D01*
D10*
X171449958Y-25019011D02*
G75*
G03*
X155448000Y-12573001I-16009158J-4073189D01*
G01*
D11*
X170688000Y-27051000D02*
X170935636Y-27014038D01*
D10*
X74803000Y34417000D02*
X74803000Y6477000D01*
X171958000Y-6223000D02*
X171958000Y21717000D01*
X78613000Y-12573000D02*
X99568000Y-12573000D01*
D11*
X161036000Y-27813000D02*
X161036000Y-45339000D01*
X152400000Y-43307000D02*
G75*
G03*
X153416000Y-42291000I0J1016000D01*
G01*
D10*
X74803000Y-16383000D02*
X74803000Y-44323000D01*
X104648000Y-10033000D02*
X112268000Y-10033000D01*
X130048000Y-10033000D02*
X137668000Y-10033000D01*
X91313000Y-10033000D02*
X99568000Y-10033000D01*
M02*
