M48
; DRILL file {KiCad 7.0.6-0} date 2023 July 10, Monday 11:59:54
; FORMAT={-:-/ absolute / inch / decimal}
; #@! TF.CreationDate,2023-07-10T11:59:54-07:00
; #@! TF.GenerationSoftware,Kicad,Pcbnew,7.0.6-0
; #@! TF.FileFunction,Plated,1,2,PTH
FMAT,2
INCH
; #@! TA.AperFunction,Plated,PTH,ViaDrill
T1C0.0118
; #@! TA.AperFunction,Plated,PTH,ViaDrill
T2C0.0157
; #@! TA.AperFunction,Plated,PTH,ViaDrill
T3C0.0197
; #@! TA.AperFunction,Plated,PTH,ComponentDrill
T4C0.0390
; #@! TA.AperFunction,Plated,PTH,ComponentDrill
T5C0.0394
; #@! TA.AperFunction,Plated,PTH,ComponentDrill
T6C0.0402
; #@! TA.AperFunction,Plated,PTH,ComponentDrill
T7C0.0472
; #@! TA.AperFunction,Plated,PTH,ComponentDrill
T8C0.0512
%
G90
G05
T1
X4.97Y1.255
X5.295Y1.255
X5.345Y1.405
X5.595Y0.43
X5.595Y0.335
X5.595Y0.18
T2
X4.12Y1.255
T3
X3.32Y1.405
X3.32Y0.68
X3.37Y1.105
X3.57Y1.305
X3.57Y1.18
X3.795Y1.405
X3.795Y1.305
X3.795Y0.68
X3.895Y1.205
X4.17Y1.405
X4.17Y1.305
X4.17Y1.155
X4.17Y0.68
X4.545Y1.405
X4.545Y1.305
X4.545Y1.155
X4.72Y0.68
X4.895Y1.405
X4.895Y1.305
X4.895Y1.155
X5.07Y1.08
X5.27Y1.08
X5.32Y-0.02
X5.445Y0.855
X5.445Y0.805
X5.47Y1.08
X5.47Y0.03
X5.57Y1.18
X5.62Y0.255
X5.645Y-0.145
X5.67Y1.08
X5.895Y1.105
X5.945Y0.455
X5.945Y0.28
X5.945Y0.105
X5.995Y-0.145
X6.07Y0.78
X6.12Y1.405
X6.12Y1.055
X6.27Y1.43
X6.27Y0.98
X6.295Y0.13
X6.295Y0.08
X6.295Y0.03
T4
X5.0928Y-0.3063
X5.27Y-0.3063
X5.4928Y-0.3063
X5.67Y-0.3063
X5.8928Y-0.3063
X6.07Y-0.3063
T5
X3.62Y-0.0698
X3.62Y-0.1698
X3.82Y-0.0698
X3.82Y-0.1698
X3.92Y-0.0698
X3.92Y-0.1698
X4.02Y-0.0698
X4.02Y-0.1698
X4.12Y-0.0698
X4.12Y-0.1698
X4.32Y-0.0698
X4.32Y-0.1698
X4.42Y-0.0698
X4.42Y-0.1698
X4.52Y-0.0698
X4.52Y-0.1698
X4.62Y-0.0698
X4.62Y-0.1698
X4.82Y-0.0698
X4.82Y-0.1698
X4.92Y-0.0698
X4.92Y-0.1698
X5.42Y0.955
X5.52Y0.955
X5.62Y0.955
X5.72Y0.955
T6
X3.02Y0.905
X3.02Y0.205
X3.12Y0.905
X3.12Y0.205
X3.22Y0.905
X3.22Y0.205
X3.32Y0.905
X3.32Y0.205
X3.42Y0.905
X3.42Y0.205
X3.52Y0.905
X3.52Y0.205
X3.62Y0.905
X3.62Y0.205
X3.72Y0.905
X3.72Y0.205
X3.82Y0.905
X3.82Y0.205
X3.92Y0.905
X3.92Y0.205
X4.02Y0.905
X4.02Y0.205
X4.12Y0.905
X4.12Y0.205
X4.22Y0.905
X4.22Y0.205
X4.32Y0.905
X4.32Y0.205
X4.42Y0.905
X4.42Y0.205
X4.52Y0.905
X4.52Y0.205
X4.62Y0.905
X4.62Y0.205
X4.72Y0.905
X4.72Y0.205
X4.82Y0.905
X4.82Y0.205
X4.9109Y0.655
X4.9109Y0.555
X4.9109Y0.455
X4.92Y0.905
X4.92Y0.205
T7
X6.47Y0.6261
X6.47Y0.4883
T8
X5.0432Y-0.2083
X5.3192Y-0.2083
X5.4432Y-0.2083
X5.7192Y-0.2083
X5.8432Y-0.2083
X6.1192Y-0.2083
T0
M30
