%TF.GenerationSoftware,KiCad,Pcbnew,7.0.6-0*%
%TF.CreationDate,2023-07-10T11:59:54-07:00*%
%TF.ProjectId,PilotDingus,50696c6f-7444-4696-9e67-75732e6b6963,2*%
%TF.SameCoordinates,Original*%
%TF.FileFunction,Paste,Top*%
%TF.FilePolarity,Positive*%
%FSLAX46Y46*%
G04 Gerber Fmt 4.6, Leading zero omitted, Abs format (unit mm)*
G04 Created by KiCad (PCBNEW 7.0.6-0) date 2023-07-10 11:59:54*
%MOMM*%
%LPD*%
G01*
G04 APERTURE LIST*
G04 Aperture macros list*
%AMRoundRect*
0 Rectangle with rounded corners*
0 $1 Rounding radius*
0 $2 $3 $4 $5 $6 $7 $8 $9 X,Y pos of 4 corners*
0 Add a 4 corners polygon primitive as box body*
4,1,4,$2,$3,$4,$5,$6,$7,$8,$9,$2,$3,0*
0 Add four circle primitives for the rounded corners*
1,1,$1+$1,$2,$3*
1,1,$1+$1,$4,$5*
1,1,$1+$1,$6,$7*
1,1,$1+$1,$8,$9*
0 Add four rect primitives between the rounded corners*
20,1,$1+$1,$2,$3,$4,$5,0*
20,1,$1+$1,$4,$5,$6,$7,0*
20,1,$1+$1,$6,$7,$8,$9,0*
20,1,$1+$1,$8,$9,$2,$3,0*%
G04 Aperture macros list end*
%ADD10RoundRect,0.250000X-0.262500X-0.450000X0.262500X-0.450000X0.262500X0.450000X-0.262500X0.450000X0*%
%ADD11RoundRect,0.250000X-0.450000X0.262500X-0.450000X-0.262500X0.450000X-0.262500X0.450000X0.262500X0*%
%ADD12RoundRect,0.150000X0.150000X-0.587500X0.150000X0.587500X-0.150000X0.587500X-0.150000X-0.587500X0*%
%ADD13RoundRect,0.250000X-0.475000X0.250000X-0.475000X-0.250000X0.475000X-0.250000X0.475000X0.250000X0*%
%ADD14RoundRect,0.250000X0.262500X0.450000X-0.262500X0.450000X-0.262500X-0.450000X0.262500X-0.450000X0*%
%ADD15RoundRect,0.250000X-0.250000X-0.475000X0.250000X-0.475000X0.250000X0.475000X-0.250000X0.475000X0*%
%ADD16RoundRect,0.150000X-0.587500X-0.150000X0.587500X-0.150000X0.587500X0.150000X-0.587500X0.150000X0*%
%ADD17RoundRect,0.250000X0.250000X0.475000X-0.250000X0.475000X-0.250000X-0.475000X0.250000X-0.475000X0*%
%ADD18RoundRect,0.218750X-0.218750X-0.381250X0.218750X-0.381250X0.218750X0.381250X-0.218750X0.381250X0*%
%ADD19RoundRect,0.243750X-0.456250X0.243750X-0.456250X-0.243750X0.456250X-0.243750X0.456250X0.243750X0*%
%ADD20RoundRect,0.250000X0.375000X0.625000X-0.375000X0.625000X-0.375000X-0.625000X0.375000X-0.625000X0*%
%ADD21RoundRect,0.250000X0.475000X-0.250000X0.475000X0.250000X-0.475000X0.250000X-0.475000X-0.250000X0*%
%ADD22R,0.900000X1.200000*%
%ADD23RoundRect,0.150000X-0.825000X-0.150000X0.825000X-0.150000X0.825000X0.150000X-0.825000X0.150000X0*%
G04 APERTURE END LIST*
D10*
%TO.C,R4*%
X151995500Y28702000D03*
X153820500Y28702000D03*
%TD*%
D11*
%TO.C,R11*%
X152908000Y14374500D03*
X152908000Y12549500D03*
%TD*%
%TO.C,R1*%
X134620000Y11834500D03*
X134620000Y10009500D03*
%TD*%
%TO.C,R16*%
X145288000Y5484500D03*
X145288000Y3659500D03*
%TD*%
D10*
%TO.C,R8*%
X157329500Y13462000D03*
X159154500Y13462000D03*
%TD*%
D12*
%TO.C,U4*%
X87188000Y31574500D03*
X89088000Y31574500D03*
X88138000Y33449500D03*
%TD*%
D13*
%TO.C,C3*%
X128778000Y31557000D03*
X128778000Y29657000D03*
%TD*%
D14*
%TO.C,R7*%
X159154500Y16002000D03*
X157329500Y16002000D03*
%TD*%
D15*
%TO.C,C1*%
X151958000Y33782000D03*
X153858000Y33782000D03*
%TD*%
D11*
%TO.C,R9*%
X167259000Y2944500D03*
X167259000Y1119500D03*
%TD*%
D16*
%TO.C,Q2*%
X148160500Y9967000D03*
X148160500Y8067000D03*
X150035500Y9017000D03*
%TD*%
D17*
%TO.C,C4*%
X159192000Y18542000D03*
X157292000Y18542000D03*
%TD*%
D11*
%TO.C,R15*%
X145288000Y9929500D03*
X145288000Y8104500D03*
%TD*%
D10*
%TO.C,R10*%
X157329500Y10922000D03*
X159154500Y10922000D03*
%TD*%
D18*
%TO.C,L1*%
X132160500Y34417000D03*
X134285500Y34417000D03*
%TD*%
D11*
%TO.C,R12*%
X152908000Y9929500D03*
X152908000Y8104500D03*
%TD*%
%TO.C,R13*%
X152908000Y5484500D03*
X152908000Y3659500D03*
%TD*%
D10*
%TO.C,R5*%
X139295500Y32512000D03*
X141120500Y32512000D03*
%TD*%
D19*
%TO.C,D1*%
X169799000Y2969500D03*
X169799000Y1094500D03*
%TD*%
D18*
%TO.C,L2*%
X157179500Y20955000D03*
X159304500Y20955000D03*
%TD*%
D11*
%TO.C,R14*%
X145288000Y14374500D03*
X145288000Y12549500D03*
%TD*%
D16*
%TO.C,Q1*%
X148160500Y14412000D03*
X148160500Y12512000D03*
X150035500Y13462000D03*
%TD*%
D11*
%TO.C,R2*%
X137668000Y11834500D03*
X137668000Y10009500D03*
%TD*%
D16*
%TO.C,Q3*%
X148160500Y5522000D03*
X148160500Y3622000D03*
X150035500Y4572000D03*
%TD*%
D20*
%TO.C,F1*%
X164468000Y2032000D03*
X161668000Y2032000D03*
%TD*%
D21*
%TO.C,C2*%
X84328000Y31562000D03*
X84328000Y33462000D03*
%TD*%
D11*
%TO.C,R3*%
X131953000Y31519500D03*
X131953000Y29694500D03*
%TD*%
D14*
%TO.C,R6*%
X153820500Y31242000D03*
X151995500Y31242000D03*
%TD*%
D22*
%TO.C,D2*%
X156338000Y7747000D03*
X159638000Y7747000D03*
%TD*%
D23*
%TO.C,U3*%
X144083000Y33782000D03*
X144083000Y32512000D03*
X144083000Y31242000D03*
X144083000Y29972000D03*
X149033000Y29972000D03*
X149033000Y31242000D03*
X149033000Y32512000D03*
X149033000Y33782000D03*
%TD*%
M02*
