%TF.GenerationSoftware,KiCad,Pcbnew,7.0.6-0*%
%TF.CreationDate,2023-07-10T11:59:54-07:00*%
%TF.ProjectId,PilotDingus,50696c6f-7444-4696-9e67-75732e6b6963,2*%
%TF.SameCoordinates,Original*%
%TF.FileFunction,Copper,L2,Bot*%
%TF.FilePolarity,Positive*%
%FSLAX46Y46*%
G04 Gerber Fmt 4.6, Leading zero omitted, Abs format (unit mm)*
G04 Created by KiCad (PCBNEW 7.0.6-0) date 2023-07-10 11:59:54*
%MOMM*%
%LPD*%
G01*
G04 APERTURE LIST*
G04 Aperture macros list*
%AMRoundRect*
0 Rectangle with rounded corners*
0 $1 Rounding radius*
0 $2 $3 $4 $5 $6 $7 $8 $9 X,Y pos of 4 corners*
0 Add a 4 corners polygon primitive as box body*
4,1,4,$2,$3,$4,$5,$6,$7,$8,$9,$2,$3,0*
0 Add four circle primitives for the rounded corners*
1,1,$1+$1,$2,$3*
1,1,$1+$1,$4,$5*
1,1,$1+$1,$6,$7*
1,1,$1+$1,$8,$9*
0 Add four rect primitives between the rounded corners*
20,1,$1+$1,$2,$3,$4,$5,0*
20,1,$1+$1,$4,$5,$6,$7,0*
20,1,$1+$1,$6,$7,$8,$9,0*
20,1,$1+$1,$8,$9,$2,$3,0*%
G04 Aperture macros list end*
%TA.AperFunction,ComponentPad*%
%ADD10C,2.100000*%
%TD*%
%TA.AperFunction,ComponentPad*%
%ADD11C,1.750000*%
%TD*%
%TA.AperFunction,ComponentPad*%
%ADD12R,1.700000X1.700000*%
%TD*%
%TA.AperFunction,ComponentPad*%
%ADD13O,1.700000X1.700000*%
%TD*%
%TA.AperFunction,ComponentPad*%
%ADD14RoundRect,0.250000X1.550000X-0.650000X1.550000X0.650000X-1.550000X0.650000X-1.550000X-0.650000X0*%
%TD*%
%TA.AperFunction,ComponentPad*%
%ADD15O,3.600000X1.800000*%
%TD*%
%TA.AperFunction,WasherPad*%
%ADD16C,3.500000*%
%TD*%
%TA.AperFunction,ComponentPad*%
%ADD17RoundRect,0.425000X-0.425000X-0.925000X0.425000X-0.925000X0.425000X0.925000X-0.425000X0.925000X0*%
%TD*%
%TA.AperFunction,ViaPad*%
%ADD18C,0.900000*%
%TD*%
%TA.AperFunction,ViaPad*%
%ADD19C,0.700000*%
%TD*%
%TA.AperFunction,ViaPad*%
%ADD20C,0.800000*%
%TD*%
%TA.AperFunction,Conductor*%
%ADD21C,0.400000*%
%TD*%
%TA.AperFunction,Conductor*%
%ADD22C,0.250000*%
%TD*%
G04 APERTURE END LIST*
D10*
%TO.P,SW1,*%
%TO.N,*%
X135108000Y-5290500D03*
X128098000Y-5290500D03*
D11*
%TO.P,SW1,1,1*%
%TO.N,/BTN0*%
X133858000Y-7780500D03*
%TO.P,SW1,2,2*%
%TO.N,GND*%
X129358000Y-7780500D03*
%TD*%
D12*
%TO.P,J11,1,Pin_1*%
%TO.N,/GPIO15*%
X124968000Y-1773000D03*
D13*
%TO.P,J11,2,Pin_2*%
%TO.N,GND*%
X124968000Y-4313000D03*
%TD*%
%TO.P,U1,1,GPIO0*%
%TO.N,/SDA0*%
X76708000Y5207000D03*
%TO.P,U1,2,GPIO1*%
%TO.N,/SCL0*%
X79248000Y5207000D03*
D12*
%TO.P,U1,3,GND*%
%TO.N,GND*%
X81788000Y5207000D03*
D13*
%TO.P,U1,4,GPIO2*%
%TO.N,/BTN0*%
X84328000Y5207000D03*
%TO.P,U1,5,GPIO3*%
%TO.N,/BTN1*%
X86868000Y5207000D03*
%TO.P,U1,6,GPIO4*%
%TO.N,/BTN2*%
X89408000Y5207000D03*
%TO.P,U1,7,GPIO5*%
%TO.N,/GPIO5*%
X91948000Y5207000D03*
D12*
%TO.P,U1,8,GND*%
%TO.N,GND*%
X94488000Y5207000D03*
D13*
%TO.P,U1,9,GPIO6*%
%TO.N,/GPIO6*%
X97028000Y5207000D03*
%TO.P,U1,10,GPIO7*%
%TO.N,/GPIO7*%
X99568000Y5207000D03*
%TO.P,U1,11,GPIO8*%
%TO.N,/GPIO8*%
X102108000Y5207000D03*
%TO.P,U1,12,GPIO9*%
%TO.N,/GPIO9*%
X104648000Y5207000D03*
D12*
%TO.P,U1,13,GND*%
%TO.N,GND*%
X107188000Y5207000D03*
D13*
%TO.P,U1,14,GPIO10*%
%TO.N,/GPIO10*%
X109728000Y5207000D03*
%TO.P,U1,15,GPIO11*%
%TO.N,/GPIO11*%
X112268000Y5207000D03*
%TO.P,U1,16,GPIO12*%
%TO.N,/GPIO12*%
X114808000Y5207000D03*
%TO.P,U1,17,GPIO13*%
%TO.N,/GPIO13*%
X117348000Y5207000D03*
D12*
%TO.P,U1,18,GND*%
%TO.N,GND*%
X119888000Y5207000D03*
D13*
%TO.P,U1,19,GPIO14*%
%TO.N,/GPIO14*%
X122428000Y5207000D03*
%TO.P,U1,20,GPIO15*%
%TO.N,/GPIO15*%
X124968000Y5207000D03*
%TO.P,U1,21,GPIO16*%
%TO.N,/GPIO16*%
X124968000Y22987000D03*
%TO.P,U1,22,GPIO17*%
%TO.N,/GPIO17*%
X122428000Y22987000D03*
D12*
%TO.P,U1,23,GND*%
%TO.N,GND*%
X119888000Y22987000D03*
D13*
%TO.P,U1,24,GPIO18*%
%TO.N,/GPIO18*%
X117348000Y22987000D03*
%TO.P,U1,25,GPIO19*%
%TO.N,/MODE0*%
X114808000Y22987000D03*
%TO.P,U1,26,GPIO20*%
%TO.N,/MODE1*%
X112268000Y22987000D03*
%TO.P,U1,27,GPIO21*%
%TO.N,/MODE2*%
X109728000Y22987000D03*
D12*
%TO.P,U1,28,GND*%
%TO.N,GND*%
X107188000Y22987000D03*
D13*
%TO.P,U1,29,GPIO22*%
%TO.N,/PILOT_EDGE*%
X104648000Y22987000D03*
%TO.P,U1,30,RUN*%
%TO.N,unconnected-(U1-Pad30)*%
X102108000Y22987000D03*
%TO.P,U1,31,GPIO26_ADC0*%
%TO.N,/PILOT_SIG*%
X99568000Y22987000D03*
%TO.P,U1,32,GPIO27_ADC1*%
%TO.N,/GPIO27*%
X97028000Y22987000D03*
D12*
%TO.P,U1,33,AGND*%
%TO.N,GND*%
X94488000Y22987000D03*
D13*
%TO.P,U1,34,GPIO28_ADC2*%
%TO.N,/GPIO28*%
X91948000Y22987000D03*
%TO.P,U1,35,ADC_VREF*%
%TO.N,/VREF_2048*%
X89408000Y22987000D03*
%TO.P,U1,36,3V3*%
%TO.N,+3.3V*%
X86868000Y22987000D03*
%TO.P,U1,37,3V3_EN*%
%TO.N,unconnected-(U1-Pad37)*%
X84328000Y22987000D03*
D12*
%TO.P,U1,38,GND*%
%TO.N,GND*%
X81788000Y22987000D03*
D13*
%TO.P,U1,39,VSYS*%
%TO.N,unconnected-(U1-Pad39)*%
X79248000Y22987000D03*
%TO.P,U1,40,VBUS*%
%TO.N,unconnected-(U1-Pad40)*%
X76708000Y22987000D03*
%TO.P,U1,41,SWCLK*%
%TO.N,unconnected-(U1-Pad41)*%
X124738000Y11557000D03*
D12*
%TO.P,U1,42,GND*%
%TO.N,unconnected-(U1-Pad42)*%
X124738000Y14097000D03*
D13*
%TO.P,U1,43,SWDIO*%
%TO.N,unconnected-(U1-Pad43)*%
X124738000Y16637000D03*
%TD*%
D12*
%TO.P,J6,1,Pin_1*%
%TO.N,/GPIO10*%
X109728000Y-1773000D03*
D13*
%TO.P,J6,2,Pin_2*%
%TO.N,GND*%
X109728000Y-4313000D03*
%TD*%
D12*
%TO.P,J1,1,Pin_1*%
%TO.N,/GPIO5*%
X91948000Y-1773000D03*
D13*
%TO.P,J1,2,Pin_2*%
%TO.N,GND*%
X91948000Y-4313000D03*
%TD*%
D12*
%TO.P,J3,1,Pin_1*%
%TO.N,/GPIO7*%
X99568000Y-1773000D03*
D13*
%TO.P,J3,2,Pin_2*%
%TO.N,GND*%
X99568000Y-4313000D03*
%TD*%
D14*
%TO.P,J12,1,Pin_1*%
%TO.N,Net-(D2-Pad2)*%
X164338000Y12402000D03*
D15*
%TO.P,J12,2,Pin_2*%
%TO.N,Net-(F1-Pad1)*%
X164338000Y15902000D03*
%TD*%
D12*
%TO.P,J9,1,Pin_1*%
%TO.N,/GPIO13*%
X117348000Y-1773000D03*
D13*
%TO.P,J9,2,Pin_2*%
%TO.N,GND*%
X117348000Y-4313000D03*
%TD*%
D12*
%TO.P,J2,1,Pin_1*%
%TO.N,/GPIO6*%
X97028000Y-1773000D03*
D13*
%TO.P,J2,2,Pin_2*%
%TO.N,GND*%
X97028000Y-4313000D03*
%TD*%
D12*
%TO.P,J4,1,Pin_1*%
%TO.N,/GPIO8*%
X102108000Y-1773000D03*
D13*
%TO.P,J4,2,Pin_2*%
%TO.N,GND*%
X102108000Y-4313000D03*
%TD*%
D12*
%TO.P,J5,1,Pin_1*%
%TO.N,/GPIO9*%
X104648000Y-1773000D03*
D13*
%TO.P,J5,2,Pin_2*%
%TO.N,GND*%
X104648000Y-4313000D03*
%TD*%
D16*
%TO.P,U2,*%
%TO.N,*%
X129828000Y23757000D03*
X129828000Y-43000D03*
X153128000Y23757000D03*
X153128000Y-43000D03*
D17*
%TO.P,U2,1,VCC*%
%TO.N,Net-(JP1-Pad2)*%
X137668000Y24257000D03*
%TO.P,U2,2,GND*%
%TO.N,Net-(JP2-Pad2)*%
X140208000Y24257000D03*
%TO.P,U2,3,SCL*%
%TO.N,/SCL0*%
X142748000Y24257000D03*
%TO.P,U2,4,SDA*%
%TO.N,/SDA0*%
X145288000Y24257000D03*
%TD*%
D12*
%TO.P,J8,1,Pin_1*%
%TO.N,/GPIO12*%
X114808000Y-1773000D03*
D13*
%TO.P,J8,2,Pin_2*%
%TO.N,GND*%
X114808000Y-4313000D03*
%TD*%
D12*
%TO.P,J7,1,Pin_1*%
%TO.N,/GPIO11*%
X112268000Y-1773000D03*
D13*
%TO.P,J7,2,Pin_2*%
%TO.N,GND*%
X112268000Y-4313000D03*
%TD*%
D12*
%TO.P,J10,1,Pin_1*%
%TO.N,/GPIO14*%
X122428000Y-1773000D03*
D13*
%TO.P,J10,2,Pin_2*%
%TO.N,GND*%
X122428000Y-4313000D03*
%TD*%
D10*
%TO.P,SW3,*%
%TO.N,*%
X155428000Y-5290500D03*
X148418000Y-5290500D03*
D11*
%TO.P,SW3,1,1*%
%TO.N,/BTN2*%
X154178000Y-7780500D03*
%TO.P,SW3,2,2*%
%TO.N,GND*%
X149678000Y-7780500D03*
%TD*%
D10*
%TO.P,SW2,*%
%TO.N,*%
X145268000Y-5290500D03*
X138258000Y-5290500D03*
D11*
%TO.P,SW2,1,1*%
%TO.N,/BTN1*%
X144018000Y-7780500D03*
%TO.P,SW2,2,2*%
%TO.N,GND*%
X139518000Y-7780500D03*
%TD*%
D18*
%TO.N,GND*%
X124333000Y33147000D03*
X155448000Y35687000D03*
X105918000Y35687000D03*
X151003000Y11557000D03*
D19*
X126238000Y31877000D03*
D18*
X159258000Y36322000D03*
X141478000Y29972000D03*
X138938000Y27432000D03*
X105918000Y17272000D03*
X143383000Y-3683000D03*
X124333000Y29337000D03*
X115443000Y33147000D03*
X149733000Y28067000D03*
D19*
X135763000Y35687000D03*
X134493000Y31877000D03*
D18*
X142748000Y6477000D03*
X84328000Y35687000D03*
X119888000Y17272000D03*
X96393000Y35687000D03*
X90678000Y33147000D03*
X155448000Y26797000D03*
X96393000Y33147000D03*
X159258000Y24892000D03*
X138938000Y762000D03*
X105918000Y29337000D03*
X133858000Y27432000D03*
X135128000Y-508000D03*
X151003000Y2667000D03*
X151003000Y7112000D03*
X152273000Y-3683000D03*
X154178000Y19812000D03*
X128778000Y27432000D03*
X144018000Y27432000D03*
X138303000Y21717000D03*
X84328000Y17272000D03*
X96393000Y17272000D03*
X124333000Y35687000D03*
X159893000Y2032000D03*
X115443000Y35687000D03*
X85598000Y28067000D03*
X159893000Y3302000D03*
X115443000Y29337000D03*
X98933000Y30607000D03*
X138303000Y20447000D03*
X105918000Y33147000D03*
X159893000Y762000D03*
%TO.N,+3.3V*%
X90678000Y29972000D03*
D20*
%TO.N,/PILOT_EDGE*%
X104648000Y31877000D03*
D19*
%TO.N,/MODE0*%
X142113000Y10922000D03*
%TO.N,/MODE1*%
X142113000Y8509000D03*
%TO.N,/MODE2*%
X142113000Y4572000D03*
%TD*%
D21*
%TO.N,+3.3V*%
X86868000Y26162000D02*
X86868000Y22987000D01*
X90678000Y29972000D02*
X86868000Y26162000D01*
D22*
%TO.N,/PILOT_EDGE*%
X104648000Y31877000D02*
X104648000Y22987000D01*
%TO.N,/MODE0*%
X114808000Y17907000D02*
X114808000Y22987000D01*
X140843000Y9652000D02*
X123063000Y9652000D01*
X123063000Y9652000D02*
X114808000Y17907000D01*
X142113000Y10922000D02*
X140843000Y9652000D01*
%TO.N,/MODE1*%
X112268000Y19177000D02*
X112268000Y22987000D01*
X122428000Y9017000D02*
X112268000Y19177000D01*
X142113000Y8509000D02*
X141605000Y9017000D01*
X141605000Y9017000D02*
X122428000Y9017000D01*
%TO.N,/MODE2*%
X142113000Y4572000D02*
X138303000Y8382000D01*
X138303000Y8382000D02*
X121793000Y8382000D01*
X109728000Y20447000D02*
X109728000Y22987000D01*
X121793000Y8382000D02*
X109728000Y20447000D01*
%TO.N,/BTN0*%
X132588000Y1397000D02*
X132588000Y-6510500D01*
X131318000Y2667000D02*
X128143000Y2667000D01*
X128143000Y2667000D02*
X125603000Y127000D01*
X132588000Y-6510500D02*
X133858000Y-7780500D01*
X132588000Y1397000D02*
X131318000Y2667000D01*
X125603000Y127000D02*
X87503000Y127000D01*
X87503000Y127000D02*
X84328000Y3302000D01*
X84328000Y3302000D02*
X84328000Y5207000D01*
%TO.N,/BTN1*%
X142113000Y-5875500D02*
X144018000Y-7780500D01*
X133858000Y3302000D02*
X127825500Y3302000D01*
X125285500Y762000D02*
X89408000Y762000D01*
X86868000Y3302000D02*
X86868000Y5207000D01*
X127825500Y3302000D02*
X125285500Y762000D01*
X89408000Y762000D02*
X86868000Y3302000D01*
X142113000Y-4953000D02*
X142113000Y-5875500D01*
X142113000Y-4953000D02*
X133858000Y3302000D01*
%TO.N,/BTN2*%
X148810500Y-2413000D02*
X144653000Y-2413000D01*
X95947302Y1397698D02*
X124967302Y1397698D01*
X124967302Y1397698D02*
X127506604Y3937000D01*
X95946604Y1397000D02*
X95947302Y1397698D01*
X91313000Y1397000D02*
X95946604Y1397000D01*
X127506604Y3937000D02*
X138303000Y3937000D01*
X89408000Y3302000D02*
X91313000Y1397000D01*
X138303000Y3937000D02*
X144653000Y-2413000D01*
X89408000Y5207000D02*
X89408000Y3302000D01*
X154178000Y-7780500D02*
X148810500Y-2413000D01*
%TD*%
%TA.AperFunction,Conductor*%
%TO.N,GND*%
G36*
X99108507Y-4103156D02*
G01*
X99068000Y-4241111D01*
X99068000Y-4384889D01*
X99108507Y-4522844D01*
X99136884Y-4567000D01*
X97459116Y-4567000D01*
X97487493Y-4522844D01*
X97528000Y-4384889D01*
X97528000Y-4241111D01*
X97487493Y-4103156D01*
X97459116Y-4059000D01*
X99136884Y-4059000D01*
X99108507Y-4103156D01*
G37*
%TD.AperFunction*%
%TA.AperFunction,Conductor*%
G36*
X101648507Y-4103156D02*
G01*
X101608000Y-4241111D01*
X101608000Y-4384889D01*
X101648507Y-4522844D01*
X101676884Y-4567000D01*
X99999116Y-4567000D01*
X100027493Y-4522844D01*
X100068000Y-4384889D01*
X100068000Y-4241111D01*
X100027493Y-4103156D01*
X99999116Y-4059000D01*
X101676884Y-4059000D01*
X101648507Y-4103156D01*
G37*
%TD.AperFunction*%
%TA.AperFunction,Conductor*%
G36*
X104188507Y-4103156D02*
G01*
X104148000Y-4241111D01*
X104148000Y-4384889D01*
X104188507Y-4522844D01*
X104216884Y-4567000D01*
X102539116Y-4567000D01*
X102567493Y-4522844D01*
X102608000Y-4384889D01*
X102608000Y-4241111D01*
X102567493Y-4103156D01*
X102539116Y-4059000D01*
X104216884Y-4059000D01*
X104188507Y-4103156D01*
G37*
%TD.AperFunction*%
%TA.AperFunction,Conductor*%
G36*
X111808507Y-4103156D02*
G01*
X111768000Y-4241111D01*
X111768000Y-4384889D01*
X111808507Y-4522844D01*
X111836884Y-4567000D01*
X110159116Y-4567000D01*
X110187493Y-4522844D01*
X110228000Y-4384889D01*
X110228000Y-4241111D01*
X110187493Y-4103156D01*
X110159116Y-4059000D01*
X111836884Y-4059000D01*
X111808507Y-4103156D01*
G37*
%TD.AperFunction*%
%TA.AperFunction,Conductor*%
G36*
X114348507Y-4103156D02*
G01*
X114308000Y-4241111D01*
X114308000Y-4384889D01*
X114348507Y-4522844D01*
X114376884Y-4567000D01*
X112699116Y-4567000D01*
X112727493Y-4522844D01*
X112768000Y-4384889D01*
X112768000Y-4241111D01*
X112727493Y-4103156D01*
X112699116Y-4059000D01*
X114376884Y-4059000D01*
X114348507Y-4103156D01*
G37*
%TD.AperFunction*%
%TA.AperFunction,Conductor*%
G36*
X116888507Y-4103156D02*
G01*
X116848000Y-4241111D01*
X116848000Y-4384889D01*
X116888507Y-4522844D01*
X116916884Y-4567000D01*
X115239116Y-4567000D01*
X115267493Y-4522844D01*
X115308000Y-4384889D01*
X115308000Y-4241111D01*
X115267493Y-4103156D01*
X115239116Y-4059000D01*
X116916884Y-4059000D01*
X116888507Y-4103156D01*
G37*
%TD.AperFunction*%
%TA.AperFunction,Conductor*%
G36*
X124508507Y-4103156D02*
G01*
X124468000Y-4241111D01*
X124468000Y-4384889D01*
X124508507Y-4522844D01*
X124536884Y-4567000D01*
X122859116Y-4567000D01*
X122887493Y-4522844D01*
X122928000Y-4384889D01*
X122928000Y-4241111D01*
X122887493Y-4103156D01*
X122859116Y-4059000D01*
X124536884Y-4059000D01*
X124508507Y-4103156D01*
G37*
%TD.AperFunction*%
%TA.AperFunction,Conductor*%
G36*
X156121262Y38210474D02*
G01*
X156233906Y38207708D01*
X156236802Y38207568D01*
X156734836Y38171948D01*
X157029764Y38150193D01*
X157032544Y38149925D01*
X157492263Y38094959D01*
X157823255Y38054134D01*
X158265895Y37979701D01*
X158609754Y37920036D01*
X159040093Y37826421D01*
X159388839Y37748107D01*
X159808986Y37635529D01*
X160158685Y37538754D01*
X160569571Y37407409D01*
X160917485Y37292474D01*
X161319214Y37142636D01*
X161663482Y37009837D01*
X162055888Y36841799D01*
X162394955Y36691500D01*
X162777536Y36505654D01*
X163110166Y36338222D01*
X163482455Y36134936D01*
X163807433Y35950839D01*
X164168928Y35730496D01*
X164383917Y35594355D01*
X164485153Y35530248D01*
X164835185Y35293340D01*
X165141735Y35077443D01*
X165479729Y34824424D01*
X165517475Y34794967D01*
X165775645Y34593489D01*
X166100975Y34324874D01*
X166385402Y34079525D01*
X166697449Y33795855D01*
X166936132Y33568611D01*
X166969583Y33536763D01*
X167267762Y33238584D01*
X167526837Y32966469D01*
X167783636Y32683981D01*
X167810520Y32654408D01*
X168055873Y32369976D01*
X168324488Y32044646D01*
X168555425Y31748728D01*
X168808445Y31410732D01*
X168809618Y31409067D01*
X169024339Y31104186D01*
X169261247Y30754154D01*
X169461514Y30437899D01*
X169681838Y30076433D01*
X169865935Y29751456D01*
X170069221Y29379167D01*
X170236666Y29046512D01*
X170422500Y28663955D01*
X170572823Y28324832D01*
X170740829Y27932500D01*
X170873645Y27588189D01*
X171023467Y27186501D01*
X171138425Y26838519D01*
X171269752Y26427691D01*
X171366531Y26077978D01*
X171479105Y25657845D01*
X171557444Y25308983D01*
X171651032Y24878768D01*
X171710715Y24534804D01*
X171785132Y24092264D01*
X171825977Y23761103D01*
X171880917Y23301605D01*
X171881191Y23298760D01*
X171902965Y23003593D01*
X171938565Y22505818D01*
X171938707Y22502870D01*
X171941496Y22389268D01*
X171957500Y21717000D01*
X171957500Y-6221456D01*
X171957424Y-6224548D01*
X171950014Y-6375372D01*
X171938191Y-6600965D01*
X171937595Y-6606916D01*
X171910979Y-6786339D01*
X171879821Y-6983069D01*
X171878708Y-6988524D01*
X171833295Y-7169825D01*
X171783075Y-7357243D01*
X171781539Y-7362163D01*
X171717762Y-7540411D01*
X171648943Y-7719689D01*
X171647078Y-7724050D01*
X171565567Y-7896390D01*
X171478811Y-8066656D01*
X171476714Y-8070444D01*
X171378260Y-8234707D01*
X171274420Y-8394605D01*
X171272185Y-8397822D01*
X171157762Y-8552106D01*
X171037852Y-8700180D01*
X171035572Y-8702841D01*
X170907363Y-8844299D01*
X170905230Y-8846539D01*
X170771539Y-8980230D01*
X170769299Y-8982363D01*
X170627841Y-9110572D01*
X170625180Y-9112852D01*
X170477106Y-9232762D01*
X170322822Y-9347185D01*
X170319605Y-9349420D01*
X170159707Y-9453260D01*
X169995444Y-9551714D01*
X169991656Y-9553811D01*
X169821390Y-9640567D01*
X169649050Y-9722078D01*
X169644690Y-9723943D01*
X169557908Y-9757256D01*
X169523065Y-9770631D01*
X169477912Y-9779000D01*
X141311797Y-9779000D01*
X141259454Y-9767613D01*
X141163831Y-9723943D01*
X141150457Y-9717835D01*
X141043799Y-9702500D01*
X140972201Y-9702500D01*
X140886874Y-9714767D01*
X140865542Y-9717835D01*
X140865540Y-9717836D01*
X140756546Y-9767613D01*
X140704203Y-9779000D01*
X140511797Y-9779000D01*
X140459454Y-9767613D01*
X140363831Y-9723943D01*
X140350457Y-9717835D01*
X140243799Y-9702500D01*
X140172201Y-9702500D01*
X140086874Y-9714767D01*
X140065542Y-9717835D01*
X140065540Y-9717836D01*
X139956546Y-9767613D01*
X139904203Y-9779000D01*
X139711797Y-9779000D01*
X139659454Y-9767613D01*
X139563831Y-9723943D01*
X139550457Y-9717835D01*
X139443799Y-9702500D01*
X139372201Y-9702500D01*
X139286874Y-9714767D01*
X139265542Y-9717835D01*
X139265540Y-9717836D01*
X139156546Y-9767613D01*
X139104203Y-9779000D01*
X128611797Y-9779000D01*
X128559454Y-9767613D01*
X128463831Y-9723943D01*
X128450457Y-9717835D01*
X128343799Y-9702500D01*
X128272201Y-9702500D01*
X128186874Y-9714767D01*
X128165542Y-9717835D01*
X128165540Y-9717836D01*
X128056546Y-9767613D01*
X128004203Y-9779000D01*
X127811797Y-9779000D01*
X127759454Y-9767613D01*
X127663831Y-9723943D01*
X127650457Y-9717835D01*
X127543799Y-9702500D01*
X127472201Y-9702500D01*
X127386874Y-9714767D01*
X127365542Y-9717835D01*
X127365540Y-9717836D01*
X127256546Y-9767613D01*
X127204203Y-9779000D01*
X127011797Y-9779000D01*
X126959454Y-9767613D01*
X126863831Y-9723943D01*
X126850457Y-9717835D01*
X126743799Y-9702500D01*
X126672201Y-9702500D01*
X126586874Y-9714767D01*
X126565542Y-9717835D01*
X126565540Y-9717836D01*
X126456546Y-9767613D01*
X126404203Y-9779000D01*
X115911797Y-9779000D01*
X115859454Y-9767613D01*
X115763831Y-9723943D01*
X115750457Y-9717835D01*
X115643799Y-9702500D01*
X115572201Y-9702500D01*
X115486874Y-9714767D01*
X115465542Y-9717835D01*
X115465540Y-9717836D01*
X115356546Y-9767613D01*
X115304203Y-9779000D01*
X115111797Y-9779000D01*
X115059454Y-9767613D01*
X114963831Y-9723943D01*
X114950457Y-9717835D01*
X114843799Y-9702500D01*
X114772201Y-9702500D01*
X114686874Y-9714767D01*
X114665542Y-9717835D01*
X114665540Y-9717836D01*
X114556546Y-9767613D01*
X114504203Y-9779000D01*
X114311797Y-9779000D01*
X114259454Y-9767613D01*
X114163831Y-9723943D01*
X114150457Y-9717835D01*
X114043799Y-9702500D01*
X113972201Y-9702500D01*
X113886874Y-9714767D01*
X113865542Y-9717835D01*
X113865540Y-9717836D01*
X113756546Y-9767613D01*
X113704203Y-9779000D01*
X103211797Y-9779000D01*
X103159454Y-9767613D01*
X103063831Y-9723943D01*
X103050457Y-9717835D01*
X102943799Y-9702500D01*
X102872201Y-9702500D01*
X102786874Y-9714767D01*
X102765542Y-9717835D01*
X102765540Y-9717836D01*
X102656546Y-9767613D01*
X102604203Y-9779000D01*
X102411797Y-9779000D01*
X102359454Y-9767613D01*
X102263831Y-9723943D01*
X102250457Y-9717835D01*
X102143799Y-9702500D01*
X102072201Y-9702500D01*
X101986874Y-9714767D01*
X101965542Y-9717835D01*
X101965540Y-9717836D01*
X101856546Y-9767613D01*
X101804203Y-9779000D01*
X101611797Y-9779000D01*
X101559454Y-9767613D01*
X101463831Y-9723943D01*
X101450457Y-9717835D01*
X101343799Y-9702500D01*
X101272201Y-9702500D01*
X101186874Y-9714767D01*
X101165542Y-9717835D01*
X101165540Y-9717836D01*
X101056546Y-9767613D01*
X101004203Y-9779000D01*
X88467342Y-9779000D01*
X88445801Y-9777145D01*
X88151232Y-9726032D01*
X87721017Y-9632444D01*
X87372155Y-9554105D01*
X87073326Y-9474034D01*
X86952011Y-9441528D01*
X86602309Y-9344752D01*
X86191481Y-9213425D01*
X85843499Y-9098467D01*
X85441811Y-8948645D01*
X85097500Y-8815829D01*
X84705168Y-8647823D01*
X84366045Y-8497500D01*
X83983488Y-8311666D01*
X83650833Y-8144221D01*
X83278544Y-7940935D01*
X82953567Y-7756838D01*
X82592115Y-7536522D01*
X82377083Y-7400355D01*
X82275846Y-7336247D01*
X81925814Y-7099339D01*
X81711883Y-6948672D01*
X81619268Y-6883445D01*
X81281272Y-6630425D01*
X81243522Y-6600965D01*
X81191049Y-6560014D01*
X80985354Y-6399488D01*
X80660024Y-6130873D01*
X80375592Y-5885520D01*
X80290434Y-5808106D01*
X80063531Y-5601837D01*
X79791416Y-5342762D01*
X79493237Y-5044583D01*
X79389072Y-4935175D01*
X79234145Y-4772449D01*
X78950475Y-4460402D01*
X78914853Y-4419107D01*
X78705122Y-4175970D01*
X78436511Y-3850645D01*
X78366500Y-3760935D01*
X78205576Y-3554729D01*
X77952557Y-3216735D01*
X77881446Y-3115765D01*
X81838788Y-3115765D01*
X81868412Y-3385014D01*
X81936928Y-3647090D01*
X82042869Y-3896389D01*
X82042870Y-3896390D01*
X82183982Y-4127610D01*
X82357255Y-4335820D01*
X82558998Y-4516582D01*
X82784910Y-4666044D01*
X83030176Y-4781020D01*
X83289569Y-4859060D01*
X83289572Y-4859060D01*
X83289574Y-4859061D01*
X83557557Y-4898500D01*
X83557561Y-4898500D01*
X83760633Y-4898500D01*
X83795363Y-4895957D01*
X83963156Y-4883677D01*
X83963160Y-4883676D01*
X83963161Y-4883676D01*
X84154236Y-4841112D01*
X84227553Y-4824780D01*
X84480558Y-4728014D01*
X84716777Y-4595441D01*
X84753610Y-4567000D01*
X90611455Y-4567000D01*
X90659176Y-4755449D01*
X90659179Y-4755456D01*
X90749580Y-4961548D01*
X90872674Y-5149958D01*
X91025097Y-5315534D01*
X91202698Y-5453767D01*
X91202699Y-5453768D01*
X91400628Y-5560882D01*
X91400630Y-5560883D01*
X91613483Y-5633955D01*
X91613492Y-5633957D01*
X91694000Y-5647391D01*
X91694000Y-4746674D01*
X91805685Y-4797680D01*
X91912237Y-4813000D01*
X91983763Y-4813000D01*
X92090315Y-4797680D01*
X92202000Y-4746674D01*
X92202000Y-5647390D01*
X92282507Y-5633957D01*
X92282516Y-5633955D01*
X92495369Y-5560883D01*
X92495371Y-5560882D01*
X92693300Y-5453768D01*
X92693301Y-5453767D01*
X92870902Y-5315534D01*
X93023325Y-5149958D01*
X93146419Y-4961548D01*
X93236820Y-4755456D01*
X93236823Y-4755449D01*
X93284544Y-4567000D01*
X95691455Y-4567000D01*
X95739176Y-4755449D01*
X95739179Y-4755456D01*
X95829580Y-4961548D01*
X95952674Y-5149958D01*
X96105097Y-5315534D01*
X96282698Y-5453767D01*
X96282699Y-5453768D01*
X96480628Y-5560882D01*
X96480630Y-5560883D01*
X96693483Y-5633955D01*
X96693492Y-5633957D01*
X96774000Y-5647391D01*
X96774000Y-4746674D01*
X96885685Y-4797680D01*
X96992237Y-4813000D01*
X97063763Y-4813000D01*
X97170315Y-4797680D01*
X97281999Y-4746674D01*
X97281999Y-5647391D01*
X97362507Y-5633957D01*
X97362516Y-5633955D01*
X97575369Y-5560883D01*
X97575371Y-5560882D01*
X97773300Y-5453768D01*
X97773301Y-5453767D01*
X97950902Y-5315534D01*
X98103327Y-5149955D01*
X98192517Y-5013441D01*
X98246521Y-4967352D01*
X98316868Y-4957777D01*
X98381226Y-4987754D01*
X98403483Y-5013441D01*
X98492672Y-5149955D01*
X98645097Y-5315534D01*
X98822698Y-5453767D01*
X98822699Y-5453768D01*
X99020628Y-5560882D01*
X99020630Y-5560883D01*
X99233483Y-5633955D01*
X99233492Y-5633957D01*
X99314000Y-5647391D01*
X99314000Y-4746674D01*
X99425685Y-4797680D01*
X99532237Y-4813000D01*
X99603763Y-4813000D01*
X99710315Y-4797680D01*
X99822000Y-4746674D01*
X99822000Y-5647390D01*
X99902507Y-5633957D01*
X99902516Y-5633955D01*
X100115369Y-5560883D01*
X100115371Y-5560882D01*
X100313300Y-5453768D01*
X100313301Y-5453767D01*
X100490902Y-5315534D01*
X100643327Y-5149955D01*
X100732516Y-5013441D01*
X100786519Y-4967353D01*
X100856867Y-4957777D01*
X100921224Y-4987754D01*
X100943482Y-5013440D01*
X101032674Y-5149957D01*
X101185097Y-5315534D01*
X101362698Y-5453767D01*
X101362699Y-5453768D01*
X101560628Y-5560882D01*
X101560630Y-5560883D01*
X101773483Y-5633955D01*
X101773492Y-5633957D01*
X101854000Y-5647391D01*
X101854000Y-4746674D01*
X101965685Y-4797680D01*
X102072237Y-4813000D01*
X102143763Y-4813000D01*
X102250315Y-4797680D01*
X102362000Y-4746674D01*
X102362000Y-5647390D01*
X102442507Y-5633957D01*
X102442516Y-5633955D01*
X102655369Y-5560883D01*
X102655371Y-5560882D01*
X102853300Y-5453768D01*
X102853301Y-5453767D01*
X103030902Y-5315534D01*
X103183327Y-5149955D01*
X103272517Y-5013441D01*
X103326521Y-4967352D01*
X103396868Y-4957777D01*
X103461226Y-4987754D01*
X103483483Y-5013441D01*
X103572672Y-5149955D01*
X103725097Y-5315534D01*
X103902698Y-5453767D01*
X103902699Y-5453768D01*
X104100628Y-5560882D01*
X104100630Y-5560883D01*
X104313483Y-5633955D01*
X104313492Y-5633957D01*
X104394000Y-5647391D01*
X104394000Y-4746674D01*
X104505685Y-4797680D01*
X104612237Y-4813000D01*
X104683763Y-4813000D01*
X104790315Y-4797680D01*
X104902000Y-4746674D01*
X104902000Y-5647390D01*
X104982507Y-5633957D01*
X104982516Y-5633955D01*
X105195369Y-5560883D01*
X105195371Y-5560882D01*
X105393300Y-5453768D01*
X105393301Y-5453767D01*
X105570902Y-5315534D01*
X105723325Y-5149958D01*
X105846419Y-4961548D01*
X105936820Y-4755456D01*
X105936823Y-4755449D01*
X105984544Y-4567000D01*
X108391455Y-4567000D01*
X108439176Y-4755449D01*
X108439179Y-4755456D01*
X108529580Y-4961548D01*
X108652674Y-5149958D01*
X108805097Y-5315534D01*
X108982698Y-5453767D01*
X108982699Y-5453768D01*
X109180628Y-5560882D01*
X109180630Y-5560883D01*
X109393483Y-5633955D01*
X109393490Y-5633957D01*
X109473999Y-5647391D01*
X109473999Y-4746674D01*
X109585685Y-4797680D01*
X109692237Y-4813000D01*
X109763763Y-4813000D01*
X109870315Y-4797680D01*
X109981999Y-4746674D01*
X109982000Y-5647390D01*
X110062507Y-5633957D01*
X110062516Y-5633955D01*
X110275369Y-5560883D01*
X110275371Y-5560882D01*
X110473300Y-5453768D01*
X110473301Y-5453767D01*
X110650902Y-5315534D01*
X110803327Y-5149955D01*
X110892517Y-5013441D01*
X110946521Y-4967352D01*
X111016868Y-4957777D01*
X111081226Y-4987754D01*
X111103483Y-5013441D01*
X111192672Y-5149955D01*
X111345097Y-5315534D01*
X111522698Y-5453767D01*
X111522699Y-5453768D01*
X111720628Y-5560882D01*
X111720630Y-5560883D01*
X111933483Y-5633955D01*
X111933492Y-5633957D01*
X112014000Y-5647391D01*
X112014000Y-4746674D01*
X112125685Y-4797680D01*
X112232237Y-4813000D01*
X112303763Y-4813000D01*
X112410315Y-4797680D01*
X112522000Y-4746674D01*
X112522000Y-5647391D01*
X112602507Y-5633957D01*
X112602516Y-5633955D01*
X112815369Y-5560883D01*
X112815371Y-5560882D01*
X113013300Y-5453768D01*
X113013301Y-5453767D01*
X113190902Y-5315534D01*
X113343327Y-5149955D01*
X113432517Y-5013441D01*
X113486521Y-4967352D01*
X113556868Y-4957777D01*
X113621226Y-4987754D01*
X113643483Y-5013441D01*
X113732672Y-5149955D01*
X113885097Y-5315534D01*
X114062698Y-5453767D01*
X114062699Y-5453768D01*
X114260628Y-5560882D01*
X114260630Y-5560883D01*
X114473483Y-5633955D01*
X114473492Y-5633957D01*
X114554000Y-5647391D01*
X114554000Y-4746674D01*
X114665685Y-4797680D01*
X114772237Y-4813000D01*
X114843763Y-4813000D01*
X114950315Y-4797680D01*
X115062000Y-4746674D01*
X115062000Y-5647391D01*
X115142507Y-5633957D01*
X115142516Y-5633955D01*
X115355369Y-5560883D01*
X115355371Y-5560882D01*
X115553300Y-5453768D01*
X115553301Y-5453767D01*
X115730902Y-5315534D01*
X115883327Y-5149955D01*
X115972517Y-5013441D01*
X116026521Y-4967352D01*
X116096868Y-4957777D01*
X116161226Y-4987754D01*
X116183483Y-5013441D01*
X116272672Y-5149955D01*
X116425097Y-5315534D01*
X116602698Y-5453767D01*
X116602699Y-5453768D01*
X116800628Y-5560882D01*
X116800630Y-5560883D01*
X117013483Y-5633955D01*
X117013492Y-5633957D01*
X117094000Y-5647391D01*
X117094000Y-4746674D01*
X117205685Y-4797680D01*
X117312237Y-4813000D01*
X117383763Y-4813000D01*
X117490315Y-4797680D01*
X117602000Y-4746674D01*
X117602000Y-5647390D01*
X117682507Y-5633957D01*
X117682516Y-5633955D01*
X117895369Y-5560883D01*
X117895371Y-5560882D01*
X118093300Y-5453768D01*
X118093301Y-5453767D01*
X118270902Y-5315534D01*
X118423325Y-5149958D01*
X118546419Y-4961548D01*
X118636820Y-4755456D01*
X118636823Y-4755449D01*
X118684544Y-4567000D01*
X121091455Y-4567000D01*
X121139176Y-4755449D01*
X121139179Y-4755456D01*
X121229580Y-4961548D01*
X121352674Y-5149958D01*
X121505097Y-5315534D01*
X121682698Y-5453767D01*
X121682699Y-5453768D01*
X121880628Y-5560882D01*
X121880630Y-5560883D01*
X122093483Y-5633955D01*
X122093492Y-5633957D01*
X122174000Y-5647391D01*
X122174000Y-4746674D01*
X122285685Y-4797680D01*
X122392237Y-4813000D01*
X122463763Y-4813000D01*
X122570315Y-4797680D01*
X122682000Y-4746674D01*
X122682000Y-5647390D01*
X122762507Y-5633957D01*
X122762516Y-5633955D01*
X122975369Y-5560883D01*
X122975371Y-5560882D01*
X123173300Y-5453768D01*
X123173301Y-5453767D01*
X123350902Y-5315534D01*
X123503327Y-5149955D01*
X123592517Y-5013441D01*
X123646521Y-4967352D01*
X123716868Y-4957777D01*
X123781226Y-4987754D01*
X123803483Y-5013441D01*
X123892672Y-5149955D01*
X124045097Y-5315534D01*
X124222698Y-5453767D01*
X124222699Y-5453768D01*
X124420628Y-5560882D01*
X124420630Y-5560883D01*
X124633483Y-5633955D01*
X124633492Y-5633957D01*
X124714000Y-5647391D01*
X124714000Y-4746674D01*
X124825685Y-4797680D01*
X124932237Y-4813000D01*
X125003763Y-4813000D01*
X125110315Y-4797680D01*
X125222000Y-4746674D01*
X125222000Y-5647390D01*
X125302507Y-5633957D01*
X125302516Y-5633955D01*
X125515369Y-5560883D01*
X125515371Y-5560882D01*
X125713300Y-5453768D01*
X125713301Y-5453767D01*
X125890902Y-5315534D01*
X125913948Y-5290499D01*
X126742341Y-5290499D01*
X126762937Y-5525911D01*
X126823973Y-5753702D01*
X126824097Y-5754163D01*
X126922741Y-5965705D01*
X126923965Y-5968330D01*
X127054834Y-6155231D01*
X127059505Y-6161901D01*
X127226599Y-6328995D01*
X127420170Y-6464535D01*
X127634337Y-6564403D01*
X127862592Y-6625563D01*
X128098000Y-6646159D01*
X128333408Y-6625563D01*
X128443642Y-6596026D01*
X128514617Y-6597716D01*
X128565347Y-6628638D01*
X129234828Y-7298119D01*
X129217108Y-7300667D01*
X129087631Y-7359798D01*
X128980057Y-7453011D01*
X128903102Y-7572755D01*
X128877667Y-7659376D01*
X128216859Y-6998568D01*
X128216858Y-6998569D01*
X128137523Y-7120000D01*
X128137519Y-7120008D01*
X128045451Y-7329903D01*
X127989188Y-7552080D01*
X127970260Y-7780499D01*
X127989188Y-8008919D01*
X128045451Y-8231096D01*
X128137519Y-8440990D01*
X128216859Y-8562429D01*
X128877667Y-7901621D01*
X128903102Y-7988245D01*
X128980057Y-8107989D01*
X129087631Y-8201202D01*
X129217108Y-8260333D01*
X129234828Y-8262880D01*
X128574496Y-8923212D01*
X128598976Y-8942267D01*
X128598981Y-8942270D01*
X128800551Y-9051355D01*
X128800554Y-9051356D01*
X129017325Y-9125774D01*
X129017334Y-9125776D01*
X129243405Y-9163500D01*
X129472595Y-9163500D01*
X129698665Y-9125776D01*
X129698674Y-9125774D01*
X129915445Y-9051356D01*
X129915448Y-9051354D01*
X130117018Y-8942271D01*
X130141503Y-8923212D01*
X129481171Y-8262880D01*
X129498892Y-8260333D01*
X129628369Y-8201202D01*
X129735943Y-8107989D01*
X129812898Y-7988245D01*
X129838332Y-7901623D01*
X130499138Y-8562429D01*
X130499139Y-8562429D01*
X130578480Y-8440990D01*
X130670548Y-8231096D01*
X130726811Y-8008919D01*
X130745739Y-7780500D01*
X130726811Y-7552080D01*
X130670548Y-7329903D01*
X130578480Y-7120009D01*
X130499139Y-6998569D01*
X129838332Y-7659376D01*
X129812898Y-7572755D01*
X129735943Y-7453011D01*
X129628369Y-7359798D01*
X129498892Y-7300667D01*
X129481170Y-7298119D01*
X130141502Y-6637786D01*
X130141502Y-6637785D01*
X130117025Y-6618733D01*
X129915448Y-6509644D01*
X129915445Y-6509643D01*
X129698674Y-6435225D01*
X129698665Y-6435223D01*
X129472595Y-6397500D01*
X129243403Y-6397500D01*
X129220238Y-6401365D01*
X129149755Y-6392847D01*
X129095065Y-6347574D01*
X129073534Y-6279921D01*
X129091997Y-6211367D01*
X129110400Y-6187995D01*
X129136495Y-6161901D01*
X129272035Y-5968330D01*
X129371903Y-5754163D01*
X129433063Y-5525908D01*
X129453659Y-5290500D01*
X129433063Y-5055092D01*
X129371903Y-4826837D01*
X129272035Y-4612671D01*
X129272034Y-4612670D01*
X129272033Y-4612667D01*
X129136501Y-4419107D01*
X129136498Y-4419103D01*
X129136495Y-4419099D01*
X128969401Y-4252005D01*
X128944945Y-4234881D01*
X128775830Y-4116465D01*
X128561665Y-4016598D01*
X128561661Y-4016596D01*
X128333411Y-3955437D01*
X128156851Y-3939989D01*
X128098000Y-3934841D01*
X128097999Y-3934841D01*
X127862588Y-3955437D01*
X127634338Y-4016596D01*
X127634334Y-4016598D01*
X127420167Y-4116466D01*
X127226607Y-4251998D01*
X127226596Y-4252007D01*
X127059507Y-4419096D01*
X127059498Y-4419107D01*
X126923966Y-4612667D01*
X126824098Y-4826834D01*
X126824096Y-4826838D01*
X126762937Y-5055088D01*
X126742341Y-5290499D01*
X125913948Y-5290499D01*
X126043325Y-5149958D01*
X126166419Y-4961548D01*
X126256820Y-4755456D01*
X126256823Y-4755449D01*
X126304544Y-4567000D01*
X125399116Y-4567000D01*
X125427493Y-4522844D01*
X125468000Y-4384889D01*
X125468000Y-4241111D01*
X125427493Y-4103156D01*
X125399116Y-4059000D01*
X126304544Y-4059000D01*
X126304544Y-4058999D01*
X126256823Y-3870550D01*
X126256820Y-3870543D01*
X126166419Y-3664451D01*
X126043325Y-3476041D01*
X125890902Y-3310465D01*
X125713301Y-3172232D01*
X125713300Y-3172231D01*
X125691276Y-3160313D01*
X125640885Y-3110300D01*
X125625533Y-3040983D01*
X125650094Y-2974370D01*
X125706769Y-2931610D01*
X125751244Y-2923499D01*
X125862864Y-2923499D01*
X125887991Y-2920585D01*
X125990765Y-2875206D01*
X126070206Y-2795765D01*
X126115585Y-2692991D01*
X126118500Y-2667865D01*
X126118499Y-878136D01*
X126115585Y-853009D01*
X126070206Y-750235D01*
X126070206Y-750234D01*
X125990767Y-670795D01*
X125990765Y-670794D01*
X125887989Y-625414D01*
X125887990Y-625414D01*
X125862868Y-622500D01*
X124073140Y-622500D01*
X124073133Y-622501D01*
X124048009Y-625414D01*
X124048005Y-625416D01*
X123945234Y-670793D01*
X123865795Y-750232D01*
X123865794Y-750234D01*
X123820414Y-853009D01*
X123819580Y-856078D01*
X123817735Y-859078D01*
X123816587Y-861679D01*
X123816232Y-861522D01*
X123782395Y-916558D01*
X123718415Y-947333D01*
X123647954Y-938633D01*
X123593382Y-893219D01*
X123576418Y-856072D01*
X123575585Y-853014D01*
X123575585Y-853009D01*
X123530206Y-750235D01*
X123530206Y-750234D01*
X123450767Y-670795D01*
X123450765Y-670794D01*
X123347989Y-625414D01*
X123347990Y-625414D01*
X123322868Y-622500D01*
X121533140Y-622500D01*
X121533133Y-622501D01*
X121508009Y-625414D01*
X121508005Y-625416D01*
X121405234Y-670793D01*
X121325795Y-750232D01*
X121325794Y-750234D01*
X121280414Y-853009D01*
X121277500Y-878129D01*
X121277500Y-2667859D01*
X121277501Y-2667866D01*
X121280414Y-2692990D01*
X121280416Y-2692994D01*
X121325793Y-2795765D01*
X121405232Y-2875204D01*
X121405234Y-2875205D01*
X121405235Y-2875206D01*
X121508009Y-2920585D01*
X121533135Y-2923500D01*
X121644755Y-2923499D01*
X121712873Y-2943500D01*
X121759366Y-2997156D01*
X121769471Y-3067430D01*
X121739978Y-3132011D01*
X121704726Y-3160311D01*
X121682700Y-3172231D01*
X121682698Y-3172232D01*
X121505097Y-3310465D01*
X121352674Y-3476041D01*
X121229580Y-3664451D01*
X121139179Y-3870543D01*
X121139176Y-3870550D01*
X121091455Y-4058999D01*
X121091456Y-4059000D01*
X121996884Y-4059000D01*
X121968507Y-4103156D01*
X121928000Y-4241111D01*
X121928000Y-4384889D01*
X121968507Y-4522844D01*
X121996884Y-4567000D01*
X121091455Y-4567000D01*
X118684544Y-4567000D01*
X117779116Y-4567000D01*
X117807493Y-4522844D01*
X117848000Y-4384889D01*
X117848000Y-4241111D01*
X117807493Y-4103156D01*
X117779116Y-4059000D01*
X118684544Y-4059000D01*
X118684544Y-4058999D01*
X118636823Y-3870550D01*
X118636820Y-3870543D01*
X118546419Y-3664451D01*
X118423325Y-3476041D01*
X118270902Y-3310465D01*
X118093301Y-3172232D01*
X118093300Y-3172231D01*
X118071276Y-3160313D01*
X118020885Y-3110300D01*
X118005533Y-3040983D01*
X118030094Y-2974370D01*
X118086769Y-2931610D01*
X118131244Y-2923499D01*
X118242864Y-2923499D01*
X118267991Y-2920585D01*
X118370765Y-2875206D01*
X118450206Y-2795765D01*
X118495585Y-2692991D01*
X118498500Y-2667865D01*
X118498499Y-878136D01*
X118495585Y-853009D01*
X118450206Y-750235D01*
X118450206Y-750234D01*
X118370767Y-670795D01*
X118370765Y-670794D01*
X118267989Y-625414D01*
X118267990Y-625414D01*
X118242868Y-622500D01*
X116453140Y-622500D01*
X116453133Y-622501D01*
X116428009Y-625414D01*
X116428005Y-625416D01*
X116325234Y-670793D01*
X116245795Y-750232D01*
X116245794Y-750234D01*
X116200414Y-853009D01*
X116199580Y-856078D01*
X116197735Y-859078D01*
X116196587Y-861679D01*
X116196232Y-861522D01*
X116162395Y-916558D01*
X116098415Y-947333D01*
X116027954Y-938633D01*
X115973382Y-893219D01*
X115956418Y-856072D01*
X115955585Y-853014D01*
X115955585Y-853009D01*
X115910206Y-750235D01*
X115910206Y-750234D01*
X115830767Y-670795D01*
X115830765Y-670794D01*
X115727989Y-625414D01*
X115727990Y-625414D01*
X115702868Y-622500D01*
X113913140Y-622500D01*
X113913133Y-622501D01*
X113888009Y-625414D01*
X113888005Y-625416D01*
X113785234Y-670793D01*
X113705795Y-750232D01*
X113705794Y-750234D01*
X113660414Y-853009D01*
X113659580Y-856078D01*
X113657735Y-859078D01*
X113656587Y-861679D01*
X113656232Y-861522D01*
X113622395Y-916558D01*
X113558415Y-947333D01*
X113487954Y-938633D01*
X113433382Y-893219D01*
X113416418Y-856072D01*
X113415585Y-853014D01*
X113415585Y-853009D01*
X113370206Y-750235D01*
X113370206Y-750234D01*
X113290767Y-670795D01*
X113290765Y-670794D01*
X113187989Y-625414D01*
X113187990Y-625414D01*
X113162868Y-622500D01*
X111373140Y-622500D01*
X111373133Y-622501D01*
X111348009Y-625414D01*
X111348005Y-625416D01*
X111245234Y-670793D01*
X111165795Y-750232D01*
X111165794Y-750234D01*
X111120414Y-853009D01*
X111119580Y-856078D01*
X111117735Y-859078D01*
X111116587Y-861679D01*
X111116232Y-861522D01*
X111082395Y-916558D01*
X111018415Y-947333D01*
X110947954Y-938633D01*
X110893382Y-893219D01*
X110876418Y-856072D01*
X110875585Y-853014D01*
X110875585Y-853009D01*
X110830206Y-750235D01*
X110830206Y-750234D01*
X110750767Y-670795D01*
X110750765Y-670794D01*
X110647989Y-625414D01*
X110647990Y-625414D01*
X110622868Y-622500D01*
X108833140Y-622500D01*
X108833133Y-622501D01*
X108808009Y-625414D01*
X108808005Y-625416D01*
X108705234Y-670793D01*
X108625795Y-750232D01*
X108625794Y-750234D01*
X108580414Y-853009D01*
X108577500Y-878129D01*
X108577500Y-2667859D01*
X108577501Y-2667866D01*
X108580414Y-2692990D01*
X108580416Y-2692994D01*
X108625793Y-2795765D01*
X108705232Y-2875204D01*
X108705234Y-2875205D01*
X108705235Y-2875206D01*
X108808009Y-2920585D01*
X108833135Y-2923500D01*
X108944755Y-2923499D01*
X109012873Y-2943500D01*
X109059366Y-2997156D01*
X109069471Y-3067430D01*
X109039978Y-3132011D01*
X109004726Y-3160311D01*
X108982700Y-3172231D01*
X108982698Y-3172232D01*
X108805097Y-3310465D01*
X108652674Y-3476041D01*
X108529580Y-3664451D01*
X108439179Y-3870543D01*
X108439176Y-3870550D01*
X108391455Y-4058999D01*
X108391456Y-4059000D01*
X109296884Y-4059000D01*
X109268507Y-4103156D01*
X109228000Y-4241111D01*
X109228000Y-4384889D01*
X109268507Y-4522844D01*
X109296884Y-4567000D01*
X108391455Y-4567000D01*
X105984544Y-4567000D01*
X105079116Y-4567000D01*
X105107493Y-4522844D01*
X105148000Y-4384889D01*
X105148000Y-4241111D01*
X105107493Y-4103156D01*
X105079116Y-4059000D01*
X105984544Y-4059000D01*
X105984544Y-4058999D01*
X105936823Y-3870550D01*
X105936820Y-3870543D01*
X105846419Y-3664451D01*
X105723325Y-3476041D01*
X105570902Y-3310465D01*
X105393301Y-3172232D01*
X105393300Y-3172231D01*
X105371276Y-3160313D01*
X105320885Y-3110300D01*
X105305533Y-3040983D01*
X105330094Y-2974370D01*
X105386769Y-2931610D01*
X105431244Y-2923499D01*
X105542864Y-2923499D01*
X105567991Y-2920585D01*
X105670765Y-2875206D01*
X105750206Y-2795765D01*
X105795585Y-2692991D01*
X105798500Y-2667865D01*
X105798499Y-878136D01*
X105795585Y-853009D01*
X105750206Y-750235D01*
X105750206Y-750234D01*
X105670767Y-670795D01*
X105670765Y-670794D01*
X105567989Y-625414D01*
X105567990Y-625414D01*
X105542868Y-622500D01*
X103753140Y-622500D01*
X103753133Y-622501D01*
X103728009Y-625414D01*
X103728005Y-625416D01*
X103625234Y-670793D01*
X103545795Y-750232D01*
X103545794Y-750234D01*
X103500414Y-853009D01*
X103499580Y-856078D01*
X103497735Y-859078D01*
X103496587Y-861679D01*
X103496232Y-861522D01*
X103462395Y-916558D01*
X103398415Y-947333D01*
X103327954Y-938633D01*
X103273382Y-893219D01*
X103256418Y-856072D01*
X103255585Y-853014D01*
X103255585Y-853009D01*
X103210206Y-750235D01*
X103210206Y-750234D01*
X103130767Y-670795D01*
X103130765Y-670794D01*
X103027989Y-625414D01*
X103027990Y-625414D01*
X103002868Y-622500D01*
X101213140Y-622500D01*
X101213133Y-622501D01*
X101188009Y-625414D01*
X101188005Y-625416D01*
X101085234Y-670793D01*
X101005795Y-750232D01*
X101005794Y-750234D01*
X100960414Y-853009D01*
X100959580Y-856078D01*
X100957735Y-859078D01*
X100956587Y-861679D01*
X100956232Y-861522D01*
X100922395Y-916558D01*
X100858415Y-947333D01*
X100787954Y-938633D01*
X100733382Y-893219D01*
X100716418Y-856072D01*
X100715585Y-853014D01*
X100715585Y-853009D01*
X100670206Y-750235D01*
X100670206Y-750234D01*
X100590767Y-670795D01*
X100590765Y-670794D01*
X100487989Y-625414D01*
X100487990Y-625414D01*
X100462868Y-622500D01*
X98673140Y-622500D01*
X98673133Y-622501D01*
X98648009Y-625414D01*
X98648005Y-625416D01*
X98545234Y-670793D01*
X98465795Y-750232D01*
X98465794Y-750234D01*
X98420414Y-853009D01*
X98419580Y-856078D01*
X98417735Y-859078D01*
X98416587Y-861679D01*
X98416232Y-861522D01*
X98382395Y-916558D01*
X98318415Y-947333D01*
X98247954Y-938633D01*
X98193382Y-893219D01*
X98176418Y-856072D01*
X98175585Y-853014D01*
X98175585Y-853009D01*
X98130206Y-750235D01*
X98130206Y-750234D01*
X98050767Y-670795D01*
X98050765Y-670794D01*
X97947989Y-625414D01*
X97947990Y-625414D01*
X97922868Y-622500D01*
X96133140Y-622500D01*
X96133133Y-622501D01*
X96108009Y-625414D01*
X96108005Y-625416D01*
X96005234Y-670793D01*
X95925795Y-750232D01*
X95925794Y-750234D01*
X95880414Y-853009D01*
X95877500Y-878129D01*
X95877500Y-2667859D01*
X95877501Y-2667866D01*
X95880414Y-2692990D01*
X95880416Y-2692994D01*
X95925793Y-2795765D01*
X96005232Y-2875204D01*
X96005234Y-2875205D01*
X96005235Y-2875206D01*
X96108009Y-2920585D01*
X96133135Y-2923500D01*
X96244755Y-2923499D01*
X96312873Y-2943500D01*
X96359366Y-2997156D01*
X96369471Y-3067430D01*
X96339978Y-3132011D01*
X96304726Y-3160311D01*
X96282700Y-3172231D01*
X96282698Y-3172232D01*
X96105097Y-3310465D01*
X95952674Y-3476041D01*
X95829580Y-3664451D01*
X95739179Y-3870543D01*
X95739176Y-3870550D01*
X95691455Y-4058999D01*
X95691456Y-4059000D01*
X96596884Y-4059000D01*
X96568507Y-4103156D01*
X96528000Y-4241111D01*
X96528000Y-4384889D01*
X96568507Y-4522844D01*
X96596884Y-4567000D01*
X95691455Y-4567000D01*
X93284544Y-4567000D01*
X92379116Y-4567000D01*
X92407493Y-4522844D01*
X92448000Y-4384889D01*
X92448000Y-4241111D01*
X92407493Y-4103156D01*
X92379116Y-4059000D01*
X93284544Y-4059000D01*
X93284544Y-4058999D01*
X93236823Y-3870550D01*
X93236820Y-3870543D01*
X93146419Y-3664451D01*
X93023325Y-3476041D01*
X92870902Y-3310465D01*
X92693301Y-3172232D01*
X92693300Y-3172231D01*
X92671276Y-3160313D01*
X92620885Y-3110300D01*
X92605533Y-3040983D01*
X92630094Y-2974370D01*
X92686769Y-2931610D01*
X92731244Y-2923499D01*
X92842864Y-2923499D01*
X92867991Y-2920585D01*
X92970765Y-2875206D01*
X93050206Y-2795765D01*
X93095585Y-2692991D01*
X93098500Y-2667865D01*
X93098499Y-878136D01*
X93095585Y-853009D01*
X93050206Y-750235D01*
X93050206Y-750234D01*
X92970767Y-670795D01*
X92970765Y-670794D01*
X92867989Y-625414D01*
X92867990Y-625414D01*
X92842868Y-622500D01*
X91053140Y-622500D01*
X91053133Y-622501D01*
X91028009Y-625414D01*
X91028005Y-625416D01*
X90925234Y-670793D01*
X90845795Y-750232D01*
X90845794Y-750234D01*
X90800414Y-853009D01*
X90797500Y-878129D01*
X90797500Y-2667859D01*
X90797501Y-2667866D01*
X90800414Y-2692990D01*
X90800416Y-2692994D01*
X90845793Y-2795765D01*
X90925232Y-2875204D01*
X90925234Y-2875205D01*
X90925235Y-2875206D01*
X91028009Y-2920585D01*
X91053135Y-2923500D01*
X91164755Y-2923499D01*
X91232873Y-2943500D01*
X91279366Y-2997156D01*
X91289471Y-3067430D01*
X91259978Y-3132011D01*
X91224726Y-3160311D01*
X91202700Y-3172231D01*
X91202698Y-3172232D01*
X91025097Y-3310465D01*
X90872674Y-3476041D01*
X90749580Y-3664451D01*
X90659179Y-3870543D01*
X90659176Y-3870550D01*
X90611455Y-4058999D01*
X90611456Y-4059000D01*
X91516884Y-4059000D01*
X91488507Y-4103156D01*
X91448000Y-4241111D01*
X91448000Y-4384889D01*
X91488507Y-4522844D01*
X91516884Y-4567000D01*
X90611455Y-4567000D01*
X84753610Y-4567000D01*
X84931177Y-4429888D01*
X85119186Y-4234881D01*
X85276799Y-4014579D01*
X85400656Y-3773675D01*
X85488118Y-3517305D01*
X85537319Y-3250933D01*
X85547212Y-2980235D01*
X85530293Y-2826469D01*
X85517587Y-2710985D01*
X85449071Y-2448909D01*
X85343130Y-2199610D01*
X85293701Y-2118618D01*
X85202018Y-1968390D01*
X85028745Y-1760180D01*
X85028741Y-1760177D01*
X85028740Y-1760175D01*
X84827012Y-1579427D01*
X84827002Y-1579418D01*
X84601090Y-1429956D01*
X84355824Y-1314980D01*
X84198392Y-1267615D01*
X84096425Y-1236938D01*
X83828442Y-1197500D01*
X83828439Y-1197500D01*
X83625369Y-1197500D01*
X83625367Y-1197500D01*
X83422839Y-1212323D01*
X83422838Y-1212323D01*
X83158456Y-1271217D01*
X83158441Y-1271222D01*
X82905441Y-1367986D01*
X82669229Y-1500555D01*
X82669225Y-1500557D01*
X82454818Y-1666116D01*
X82266815Y-1861117D01*
X82266810Y-1861123D01*
X82109203Y-2081417D01*
X82109196Y-2081427D01*
X81985343Y-2322324D01*
X81985342Y-2322327D01*
X81897883Y-2578689D01*
X81897880Y-2578702D01*
X81848681Y-2845058D01*
X81848680Y-2845069D01*
X81838788Y-3115765D01*
X77881446Y-3115765D01*
X77736660Y-2910185D01*
X77499752Y-2560153D01*
X77349148Y-2322324D01*
X77299504Y-2243928D01*
X77079161Y-1882432D01*
X76895064Y-1557455D01*
X76691778Y-1185166D01*
X76572063Y-947333D01*
X76524346Y-852536D01*
X76338496Y-469947D01*
X76273294Y-322854D01*
X76188201Y-130888D01*
X76020168Y261505D01*
X75887364Y605786D01*
X75737529Y1007508D01*
X75731785Y1024897D01*
X75622591Y1355429D01*
X75491244Y1766320D01*
X75486943Y1781864D01*
X75394471Y2116014D01*
X75281893Y2536161D01*
X75203579Y2884907D01*
X75109965Y3315241D01*
X75090134Y3429532D01*
X75050299Y3659105D01*
X74975866Y4101745D01*
X74935041Y4432737D01*
X74880075Y4892456D01*
X74879807Y4895243D01*
X74858052Y5190164D01*
X74856848Y5207000D01*
X75552571Y5207000D01*
X75572244Y4994689D01*
X75630593Y4789616D01*
X75630594Y4789614D01*
X75630595Y4789611D01*
X75725634Y4598745D01*
X75854126Y4428596D01*
X75854129Y4428592D01*
X76011699Y4284947D01*
X76011701Y4284946D01*
X76192974Y4172706D01*
X76192975Y4172706D01*
X76192981Y4172702D01*
X76391802Y4095679D01*
X76601390Y4056500D01*
X76601393Y4056500D01*
X76814607Y4056500D01*
X76814610Y4056500D01*
X77024198Y4095679D01*
X77223019Y4172702D01*
X77404302Y4284948D01*
X77561872Y4428593D01*
X77690366Y4598745D01*
X77785405Y4789611D01*
X77843756Y4994690D01*
X77852537Y5089462D01*
X77878739Y5155445D01*
X77936456Y5196789D01*
X78007362Y5200366D01*
X78068946Y5165040D01*
X78101656Y5102027D01*
X78103461Y5089471D01*
X78103463Y5089459D01*
X78112244Y4994689D01*
X78170593Y4789616D01*
X78170594Y4789614D01*
X78170595Y4789611D01*
X78265634Y4598745D01*
X78394126Y4428596D01*
X78394129Y4428592D01*
X78551699Y4284947D01*
X78551701Y4284946D01*
X78732974Y4172706D01*
X78732975Y4172706D01*
X78732981Y4172702D01*
X78931802Y4095679D01*
X79141390Y4056500D01*
X79141393Y4056500D01*
X79354607Y4056500D01*
X79354610Y4056500D01*
X79564198Y4095679D01*
X79763019Y4172702D01*
X79944302Y4284948D01*
X80101872Y4428593D01*
X80203450Y4563104D01*
X80260464Y4605411D01*
X80331301Y4610178D01*
X80393469Y4575891D01*
X80427232Y4513436D01*
X80430000Y4487171D01*
X80430000Y4308403D01*
X80436505Y4247907D01*
X80487555Y4111036D01*
X80487555Y4111035D01*
X80575095Y3994096D01*
X80692034Y3906556D01*
X80828906Y3855506D01*
X80889402Y3849001D01*
X80889415Y3849000D01*
X81534000Y3849000D01*
X81534000Y4762332D01*
X81642839Y4712627D01*
X81751527Y4697000D01*
X81824473Y4697000D01*
X81933161Y4712627D01*
X82042000Y4762332D01*
X82042000Y3849000D01*
X82686585Y3849000D01*
X82686597Y3849001D01*
X82747093Y3855506D01*
X82883964Y3906556D01*
X82883965Y3906556D01*
X83000904Y3994096D01*
X83088444Y4111035D01*
X83088444Y4111036D01*
X83139494Y4247907D01*
X83145999Y4308403D01*
X83146000Y4308415D01*
X83146000Y4487171D01*
X83166002Y4555292D01*
X83219658Y4601785D01*
X83289932Y4611889D01*
X83354512Y4582395D01*
X83372549Y4563104D01*
X83470792Y4433010D01*
X83474126Y4428596D01*
X83474128Y4428593D01*
X83631699Y4284947D01*
X83631701Y4284946D01*
X83812974Y4172706D01*
X83812975Y4172706D01*
X83812981Y4172702D01*
X83822015Y4169203D01*
X83878309Y4125946D01*
X83902282Y4059120D01*
X83902500Y4051711D01*
X83902500Y3234607D01*
X83909912Y3211795D01*
X83914528Y3192569D01*
X83918280Y3168875D01*
X83929170Y3147504D01*
X83936737Y3129236D01*
X83944150Y3106420D01*
X83958249Y3087015D01*
X83968579Y3070157D01*
X83979470Y3048782D01*
X83979471Y3048781D01*
X83979472Y3048780D01*
X84003445Y3024807D01*
X84003446Y3024806D01*
X87154470Y-126218D01*
X87154472Y-126220D01*
X87249780Y-221528D01*
X87271161Y-232422D01*
X87288010Y-242747D01*
X87307419Y-256849D01*
X87330234Y-264261D01*
X87348501Y-271828D01*
X87369874Y-282719D01*
X87393572Y-286471D01*
X87412792Y-291086D01*
X87435607Y-298500D01*
X87435609Y-298500D01*
X125670394Y-298500D01*
X125693202Y-291088D01*
X125712428Y-286471D01*
X125736126Y-282719D01*
X125757500Y-271827D01*
X125775773Y-264259D01*
X125798579Y-256850D01*
X125798579Y-256849D01*
X125798581Y-256849D01*
X125817984Y-242751D01*
X125834848Y-232417D01*
X125842775Y-228377D01*
X125856220Y-221528D01*
X125951528Y-126220D01*
X128282343Y2204595D01*
X128344655Y2238621D01*
X128371438Y2241500D01*
X129548163Y2241500D01*
X129616284Y2221498D01*
X129662777Y2167842D01*
X129672881Y2097568D01*
X129643387Y2032988D01*
X129583661Y1994604D01*
X129565320Y1990674D01*
X129409839Y1969304D01*
X129409831Y1969302D01*
X129139733Y1893623D01*
X129139723Y1893620D01*
X128882434Y1781864D01*
X128642751Y1636109D01*
X128425152Y1459079D01*
X128233687Y1254069D01*
X128071919Y1024897D01*
X128071919Y1024896D01*
X127942864Y775831D01*
X127848925Y511513D01*
X127848923Y511505D01*
X127791851Y236855D01*
X127791850Y236849D01*
X127772709Y-42995D01*
X127772709Y-43004D01*
X127791850Y-322848D01*
X127791851Y-322854D01*
X127791852Y-322862D01*
X127822418Y-469954D01*
X127848923Y-597504D01*
X127848925Y-597512D01*
X127858842Y-625415D01*
X127942864Y-861830D01*
X128071919Y-1110896D01*
X128233687Y-1340068D01*
X128383574Y-1500559D01*
X128425155Y-1545081D01*
X128642754Y-1722111D01*
X128882432Y-1867862D01*
X128882434Y-1867863D01*
X129011078Y-1923740D01*
X129139725Y-1979620D01*
X129210777Y-1999528D01*
X129409831Y-2055301D01*
X129409839Y-2055303D01*
X129687728Y-2093499D01*
X129687742Y-2093500D01*
X129968258Y-2093500D01*
X129968271Y-2093499D01*
X130204835Y-2060983D01*
X130246161Y-2055303D01*
X130516275Y-1979620D01*
X130773568Y-1867862D01*
X131013246Y-1722111D01*
X131230845Y-1545081D01*
X131422312Y-1340069D01*
X131584081Y-1110896D01*
X131713136Y-861830D01*
X131807075Y-597511D01*
X131864148Y-322862D01*
X131865814Y-298500D01*
X131883291Y-43004D01*
X131883291Y-42995D01*
X131864149Y236849D01*
X131864148Y236855D01*
X131864148Y236862D01*
X131807075Y511511D01*
X131713136Y775830D01*
X131584081Y1024896D01*
X131422312Y1254069D01*
X131230845Y1459081D01*
X131013246Y1636111D01*
X130773568Y1781862D01*
X130773569Y1781862D01*
X130773565Y1781864D01*
X130516276Y1893620D01*
X130516266Y1893623D01*
X130246168Y1969302D01*
X130246160Y1969304D01*
X130090680Y1990674D01*
X130025917Y2019765D01*
X129987163Y2079252D01*
X129986723Y2150247D01*
X130024735Y2210211D01*
X130089132Y2240104D01*
X130107837Y2241500D01*
X131089562Y2241500D01*
X131157683Y2221498D01*
X131178657Y2204595D01*
X132125595Y1257657D01*
X132159621Y1195345D01*
X132162500Y1168562D01*
X132162500Y-6577893D01*
X132169912Y-6600705D01*
X132174528Y-6619931D01*
X132178280Y-6643625D01*
X132189170Y-6664996D01*
X132196737Y-6683264D01*
X132204150Y-6706080D01*
X132218249Y-6725485D01*
X132228579Y-6742343D01*
X132239467Y-6763712D01*
X132239469Y-6763715D01*
X132239472Y-6763720D01*
X132239475Y-6763723D01*
X132239476Y-6763724D01*
X132245723Y-6769971D01*
X132263446Y-6787693D01*
X132263446Y-6787694D01*
X132720908Y-7245156D01*
X132754932Y-7307467D01*
X132753002Y-7368731D01*
X132697564Y-7563578D01*
X132677464Y-7780495D01*
X132677464Y-7780504D01*
X132697564Y-7997421D01*
X132754414Y-8197229D01*
X132757183Y-8206959D01*
X132854288Y-8401972D01*
X132854289Y-8401973D01*
X132985571Y-8575821D01*
X133146568Y-8722588D01*
X133146569Y-8722589D01*
X133331780Y-8837267D01*
X133331787Y-8837270D01*
X133331790Y-8837272D01*
X133331794Y-8837273D01*
X133331795Y-8837274D01*
X133534926Y-8915968D01*
X133534931Y-8915970D01*
X133749074Y-8956000D01*
X133749076Y-8956000D01*
X133966924Y-8956000D01*
X133966926Y-8956000D01*
X134181069Y-8915970D01*
X134384210Y-8837272D01*
X134384215Y-8837268D01*
X134384219Y-8837267D01*
X134569430Y-8722589D01*
X134569429Y-8722589D01*
X134569432Y-8722588D01*
X134730427Y-8575822D01*
X134861712Y-8401972D01*
X134958817Y-8206959D01*
X135018435Y-7997423D01*
X135038536Y-7780500D01*
X135037604Y-7770444D01*
X135018435Y-7563578D01*
X135011843Y-7540411D01*
X134958817Y-7354041D01*
X134861712Y-7159028D01*
X134795531Y-7071390D01*
X134730428Y-6985178D01*
X134569431Y-6838411D01*
X134569430Y-6838410D01*
X134384219Y-6723732D01*
X134384204Y-6723725D01*
X134181073Y-6645031D01*
X134181074Y-6645031D01*
X134173558Y-6643626D01*
X133966926Y-6605000D01*
X133749074Y-6605000D01*
X133534931Y-6645030D01*
X133534929Y-6645030D01*
X133534927Y-6645031D01*
X133459654Y-6674191D01*
X133388907Y-6680147D01*
X133326172Y-6646909D01*
X133325044Y-6645794D01*
X133050405Y-6371155D01*
X133016379Y-6308843D01*
X133013500Y-6282060D01*
X133013500Y-5290499D01*
X133752341Y-5290499D01*
X133772937Y-5525911D01*
X133833973Y-5753702D01*
X133834097Y-5754163D01*
X133932741Y-5965705D01*
X133933965Y-5968330D01*
X134064834Y-6155231D01*
X134069505Y-6161901D01*
X134236599Y-6328995D01*
X134430170Y-6464535D01*
X134644337Y-6564403D01*
X134872592Y-6625563D01*
X135108000Y-6646159D01*
X135343408Y-6625563D01*
X135571663Y-6564403D01*
X135785830Y-6464535D01*
X135979401Y-6328995D01*
X136146495Y-6161901D01*
X136282035Y-5968330D01*
X136381903Y-5754163D01*
X136443063Y-5525908D01*
X136463659Y-5290500D01*
X136463659Y-5290499D01*
X136902341Y-5290499D01*
X136922937Y-5525911D01*
X136983973Y-5753702D01*
X136984097Y-5754163D01*
X137082741Y-5965705D01*
X137083965Y-5968330D01*
X137214834Y-6155231D01*
X137219505Y-6161901D01*
X137386599Y-6328995D01*
X137580170Y-6464535D01*
X137794337Y-6564403D01*
X138022592Y-6625563D01*
X138258000Y-6646159D01*
X138493408Y-6625563D01*
X138603642Y-6596026D01*
X138674617Y-6597716D01*
X138725347Y-6628638D01*
X139394828Y-7298119D01*
X139377108Y-7300667D01*
X139247631Y-7359798D01*
X139140057Y-7453011D01*
X139063102Y-7572755D01*
X139037667Y-7659376D01*
X138376859Y-6998568D01*
X138376858Y-6998569D01*
X138297523Y-7120000D01*
X138297519Y-7120008D01*
X138205451Y-7329903D01*
X138149188Y-7552080D01*
X138130260Y-7780499D01*
X138149188Y-8008919D01*
X138205451Y-8231096D01*
X138297519Y-8440990D01*
X138376859Y-8562429D01*
X139037667Y-7901621D01*
X139063102Y-7988245D01*
X139140057Y-8107989D01*
X139247631Y-8201202D01*
X139377108Y-8260333D01*
X139394828Y-8262880D01*
X138734496Y-8923212D01*
X138758976Y-8942267D01*
X138758981Y-8942270D01*
X138960551Y-9051355D01*
X138960554Y-9051356D01*
X139177325Y-9125774D01*
X139177334Y-9125776D01*
X139403405Y-9163500D01*
X139632595Y-9163500D01*
X139858665Y-9125776D01*
X139858674Y-9125774D01*
X140075445Y-9051356D01*
X140075448Y-9051354D01*
X140277018Y-8942271D01*
X140301503Y-8923212D01*
X139641171Y-8262880D01*
X139658892Y-8260333D01*
X139788369Y-8201202D01*
X139895943Y-8107989D01*
X139972898Y-7988245D01*
X139998332Y-7901623D01*
X140659138Y-8562429D01*
X140659139Y-8562429D01*
X140738480Y-8440990D01*
X140830548Y-8231096D01*
X140886811Y-8008919D01*
X140905739Y-7780499D01*
X140886811Y-7552080D01*
X140830548Y-7329903D01*
X140738480Y-7120009D01*
X140659139Y-6998569D01*
X139998332Y-7659376D01*
X139972898Y-7572755D01*
X139895943Y-7453011D01*
X139788369Y-7359798D01*
X139658892Y-7300667D01*
X139641170Y-7298119D01*
X140301502Y-6637786D01*
X140301502Y-6637785D01*
X140277025Y-6618733D01*
X140075448Y-6509644D01*
X140075445Y-6509643D01*
X139858674Y-6435225D01*
X139858665Y-6435223D01*
X139632595Y-6397500D01*
X139403403Y-6397500D01*
X139380238Y-6401365D01*
X139309755Y-6392847D01*
X139255065Y-6347574D01*
X139233534Y-6279921D01*
X139251997Y-6211367D01*
X139270400Y-6187995D01*
X139296495Y-6161901D01*
X139432035Y-5968330D01*
X139531903Y-5754163D01*
X139593063Y-5525908D01*
X139613659Y-5290500D01*
X139593063Y-5055092D01*
X139531903Y-4826837D01*
X139432035Y-4612671D01*
X139432034Y-4612670D01*
X139432033Y-4612667D01*
X139296501Y-4419107D01*
X139296498Y-4419103D01*
X139296495Y-4419099D01*
X139129401Y-4252005D01*
X139104945Y-4234881D01*
X138935830Y-4116465D01*
X138721665Y-4016598D01*
X138721661Y-4016596D01*
X138493411Y-3955437D01*
X138258000Y-3934841D01*
X138022588Y-3955437D01*
X137794338Y-4016596D01*
X137794334Y-4016598D01*
X137580167Y-4116466D01*
X137386607Y-4251998D01*
X137386596Y-4252007D01*
X137219507Y-4419096D01*
X137219498Y-4419107D01*
X137083966Y-4612667D01*
X136984098Y-4826834D01*
X136984096Y-4826838D01*
X136922937Y-5055088D01*
X136902341Y-5290499D01*
X136463659Y-5290499D01*
X136443063Y-5055092D01*
X136381903Y-4826837D01*
X136282035Y-4612671D01*
X136282034Y-4612670D01*
X136282033Y-4612667D01*
X136146501Y-4419107D01*
X136146498Y-4419103D01*
X136146495Y-4419099D01*
X135979401Y-4252005D01*
X135954945Y-4234881D01*
X135785830Y-4116465D01*
X135571665Y-4016598D01*
X135571661Y-4016596D01*
X135343411Y-3955437D01*
X135108000Y-3934841D01*
X134872588Y-3955437D01*
X134644338Y-4016596D01*
X134644334Y-4016598D01*
X134430167Y-4116466D01*
X134236607Y-4251998D01*
X134236596Y-4252007D01*
X134069507Y-4419096D01*
X134069498Y-4419107D01*
X133933966Y-4612667D01*
X133834098Y-4826834D01*
X133834096Y-4826838D01*
X133772937Y-5055088D01*
X133752341Y-5290499D01*
X133013500Y-5290499D01*
X133013500Y1464392D01*
X133013499Y1464395D01*
X133006087Y1487205D01*
X133001471Y1506428D01*
X132997719Y1530126D01*
X132986827Y1551502D01*
X132979260Y1569769D01*
X132971849Y1592581D01*
X132957746Y1611992D01*
X132947421Y1628842D01*
X132936528Y1650220D01*
X132841220Y1745528D01*
X131925343Y2661405D01*
X131891317Y2723717D01*
X131896382Y2794532D01*
X131938929Y2851368D01*
X132005449Y2876179D01*
X132014438Y2876500D01*
X133629562Y2876500D01*
X133697683Y2856498D01*
X133718657Y2839595D01*
X141650595Y-5092343D01*
X141684621Y-5154655D01*
X141687500Y-5181438D01*
X141687500Y-5942893D01*
X141694912Y-5965705D01*
X141699528Y-5984931D01*
X141703280Y-6008625D01*
X141714170Y-6029996D01*
X141721737Y-6048264D01*
X141729150Y-6071080D01*
X141743249Y-6090485D01*
X141753579Y-6107343D01*
X141764470Y-6128718D01*
X141764471Y-6128719D01*
X141764472Y-6128720D01*
X141788446Y-6152694D01*
X142339602Y-6703850D01*
X142880907Y-7245155D01*
X142914933Y-7307467D01*
X142913002Y-7368731D01*
X142857564Y-7563578D01*
X142837464Y-7780495D01*
X142837464Y-7780504D01*
X142857564Y-7997421D01*
X142914414Y-8197229D01*
X142917183Y-8206959D01*
X143014288Y-8401972D01*
X143014289Y-8401973D01*
X143145571Y-8575821D01*
X143306568Y-8722588D01*
X143306569Y-8722589D01*
X143491780Y-8837267D01*
X143491787Y-8837270D01*
X143491790Y-8837272D01*
X143491794Y-8837273D01*
X143491795Y-8837274D01*
X143694926Y-8915968D01*
X143694931Y-8915970D01*
X143909074Y-8956000D01*
X143909076Y-8956000D01*
X144126924Y-8956000D01*
X144126926Y-8956000D01*
X144341069Y-8915970D01*
X144544210Y-8837272D01*
X144544215Y-8837268D01*
X144544219Y-8837267D01*
X144729430Y-8722589D01*
X144729429Y-8722589D01*
X144729432Y-8722588D01*
X144890427Y-8575822D01*
X145021712Y-8401972D01*
X145118817Y-8206959D01*
X145178435Y-7997423D01*
X145198536Y-7780500D01*
X145197604Y-7770444D01*
X145178435Y-7563578D01*
X145171843Y-7540411D01*
X145118817Y-7354041D01*
X145021712Y-7159028D01*
X144955531Y-7071390D01*
X144890428Y-6985178D01*
X144729431Y-6838411D01*
X144729430Y-6838410D01*
X144544219Y-6723732D01*
X144544204Y-6723725D01*
X144341073Y-6645031D01*
X144341074Y-6645031D01*
X144333558Y-6643626D01*
X144126926Y-6605000D01*
X143909074Y-6605000D01*
X143694931Y-6645030D01*
X143694929Y-6645030D01*
X143694927Y-6645031D01*
X143619653Y-6674192D01*
X143548907Y-6680148D01*
X143486171Y-6646910D01*
X143485127Y-6645879D01*
X142575402Y-5736153D01*
X142541379Y-5673844D01*
X142538500Y-5647061D01*
X142538500Y-5290499D01*
X143912341Y-5290499D01*
X143932937Y-5525911D01*
X143993973Y-5753702D01*
X143994097Y-5754163D01*
X144092741Y-5965705D01*
X144093965Y-5968330D01*
X144224834Y-6155231D01*
X144229505Y-6161901D01*
X144396599Y-6328995D01*
X144590170Y-6464535D01*
X144804337Y-6564403D01*
X145032592Y-6625563D01*
X145268000Y-6646159D01*
X145503408Y-6625563D01*
X145731663Y-6564403D01*
X145945830Y-6464535D01*
X146139401Y-6328995D01*
X146306495Y-6161901D01*
X146442035Y-5968330D01*
X146541903Y-5754163D01*
X146603063Y-5525908D01*
X146623659Y-5290500D01*
X147062341Y-5290500D01*
X147082937Y-5525911D01*
X147143973Y-5753702D01*
X147144097Y-5754163D01*
X147242741Y-5965705D01*
X147243965Y-5968330D01*
X147374834Y-6155231D01*
X147379505Y-6161901D01*
X147546599Y-6328995D01*
X147740170Y-6464535D01*
X147954337Y-6564403D01*
X148182592Y-6625563D01*
X148418000Y-6646159D01*
X148653408Y-6625563D01*
X148763642Y-6596026D01*
X148834617Y-6597716D01*
X148885347Y-6628638D01*
X149554828Y-7298119D01*
X149537108Y-7300667D01*
X149407631Y-7359798D01*
X149300057Y-7453011D01*
X149223102Y-7572755D01*
X149197667Y-7659376D01*
X148536859Y-6998568D01*
X148536858Y-6998569D01*
X148457523Y-7120000D01*
X148457519Y-7120008D01*
X148365451Y-7329903D01*
X148309188Y-7552080D01*
X148290260Y-7780499D01*
X148309188Y-8008919D01*
X148365451Y-8231096D01*
X148457519Y-8440990D01*
X148536859Y-8562429D01*
X149197667Y-7901621D01*
X149223102Y-7988245D01*
X149300057Y-8107989D01*
X149407631Y-8201202D01*
X149537108Y-8260333D01*
X149554828Y-8262880D01*
X148894496Y-8923212D01*
X148918976Y-8942267D01*
X148918981Y-8942270D01*
X149120551Y-9051355D01*
X149120554Y-9051356D01*
X149337325Y-9125774D01*
X149337334Y-9125776D01*
X149563405Y-9163500D01*
X149792595Y-9163500D01*
X150018665Y-9125776D01*
X150018674Y-9125774D01*
X150235445Y-9051356D01*
X150235448Y-9051354D01*
X150437018Y-8942271D01*
X150461503Y-8923212D01*
X149801171Y-8262880D01*
X149818892Y-8260333D01*
X149948369Y-8201202D01*
X150055943Y-8107989D01*
X150132898Y-7988245D01*
X150158332Y-7901623D01*
X150819138Y-8562429D01*
X150819139Y-8562429D01*
X150898480Y-8440990D01*
X150990548Y-8231096D01*
X151046811Y-8008919D01*
X151065739Y-7780499D01*
X151046811Y-7552080D01*
X150990548Y-7329903D01*
X150898480Y-7120009D01*
X150819139Y-6998569D01*
X150158332Y-7659376D01*
X150132898Y-7572755D01*
X150055943Y-7453011D01*
X149948369Y-7359798D01*
X149818892Y-7300667D01*
X149801170Y-7298119D01*
X150461502Y-6637786D01*
X150461502Y-6637785D01*
X150437025Y-6618733D01*
X150235448Y-6509644D01*
X150235445Y-6509643D01*
X150018674Y-6435225D01*
X150018665Y-6435223D01*
X149792595Y-6397500D01*
X149563403Y-6397500D01*
X149540238Y-6401365D01*
X149469755Y-6392847D01*
X149415065Y-6347574D01*
X149393534Y-6279921D01*
X149411997Y-6211367D01*
X149430400Y-6187995D01*
X149456495Y-6161901D01*
X149592035Y-5968330D01*
X149691903Y-5754163D01*
X149753063Y-5525908D01*
X149773659Y-5290500D01*
X149753063Y-5055092D01*
X149691903Y-4826837D01*
X149592035Y-4612671D01*
X149592034Y-4612670D01*
X149592033Y-4612667D01*
X149456501Y-4419107D01*
X149456498Y-4419103D01*
X149456495Y-4419099D01*
X149289401Y-4252005D01*
X149264945Y-4234881D01*
X149095830Y-4116465D01*
X148881665Y-4016598D01*
X148881661Y-4016596D01*
X148653411Y-3955437D01*
X148476851Y-3939989D01*
X148418000Y-3934841D01*
X148417999Y-3934841D01*
X148182588Y-3955437D01*
X147954338Y-4016596D01*
X147954334Y-4016598D01*
X147740167Y-4116466D01*
X147546607Y-4251998D01*
X147546596Y-4252007D01*
X147379507Y-4419096D01*
X147379498Y-4419107D01*
X147243966Y-4612667D01*
X147144098Y-4826834D01*
X147144096Y-4826838D01*
X147082937Y-5055088D01*
X147062341Y-5290500D01*
X146623659Y-5290500D01*
X146603063Y-5055092D01*
X146541903Y-4826837D01*
X146442035Y-4612671D01*
X146442034Y-4612670D01*
X146442033Y-4612667D01*
X146306501Y-4419107D01*
X146306498Y-4419103D01*
X146306495Y-4419099D01*
X146139401Y-4252005D01*
X146114945Y-4234881D01*
X145945830Y-4116465D01*
X145731665Y-4016598D01*
X145731661Y-4016596D01*
X145503411Y-3955437D01*
X145326851Y-3939989D01*
X145268000Y-3934841D01*
X145267999Y-3934841D01*
X145032588Y-3955437D01*
X144804338Y-4016596D01*
X144804334Y-4016598D01*
X144590167Y-4116466D01*
X144396607Y-4251998D01*
X144396596Y-4252007D01*
X144229507Y-4419096D01*
X144229498Y-4419107D01*
X144093966Y-4612667D01*
X143994098Y-4826834D01*
X143994096Y-4826838D01*
X143932937Y-5055088D01*
X143912341Y-5290499D01*
X142538500Y-5290499D01*
X142538500Y-4885608D01*
X142538499Y-4885605D01*
X142537872Y-4883676D01*
X142531086Y-4862792D01*
X142526471Y-4843572D01*
X142522719Y-4819874D01*
X142511828Y-4798500D01*
X142504261Y-4780234D01*
X142496849Y-4757419D01*
X142494667Y-4754416D01*
X142482750Y-4738014D01*
X142472419Y-4721156D01*
X142461528Y-4699780D01*
X142366220Y-4604472D01*
X134465342Y3296406D01*
X134431317Y3358717D01*
X134436382Y3429532D01*
X134478929Y3486368D01*
X134545449Y3511179D01*
X134554438Y3511500D01*
X138074562Y3511500D01*
X138142683Y3491498D01*
X138163657Y3474595D01*
X144302091Y-2663838D01*
X144302112Y-2663861D01*
X144399776Y-2761525D01*
X144399778Y-2761526D01*
X144399780Y-2761528D01*
X144421161Y-2772422D01*
X144438010Y-2782747D01*
X144457419Y-2796849D01*
X144480234Y-2804261D01*
X144498501Y-2811828D01*
X144519874Y-2822719D01*
X144543572Y-2826471D01*
X144562792Y-2831086D01*
X144585607Y-2838500D01*
X144619512Y-2838500D01*
X148582062Y-2838500D01*
X148650183Y-2858502D01*
X148671157Y-2875405D01*
X153040907Y-7245155D01*
X153074933Y-7307467D01*
X153073002Y-7368731D01*
X153017564Y-7563578D01*
X152997464Y-7780495D01*
X152997464Y-7780504D01*
X153017564Y-7997421D01*
X153074414Y-8197229D01*
X153077183Y-8206959D01*
X153174288Y-8401972D01*
X153174289Y-8401973D01*
X153305571Y-8575821D01*
X153466568Y-8722588D01*
X153466569Y-8722589D01*
X153651780Y-8837267D01*
X153651787Y-8837270D01*
X153651790Y-8837272D01*
X153651794Y-8837273D01*
X153651795Y-8837274D01*
X153854926Y-8915968D01*
X153854931Y-8915970D01*
X154069074Y-8956000D01*
X154069076Y-8956000D01*
X154286924Y-8956000D01*
X154286926Y-8956000D01*
X154501069Y-8915970D01*
X154704210Y-8837272D01*
X154704215Y-8837268D01*
X154704219Y-8837267D01*
X154889430Y-8722589D01*
X154889429Y-8722589D01*
X154889432Y-8722588D01*
X155050427Y-8575822D01*
X155181712Y-8401972D01*
X155278817Y-8206959D01*
X155338435Y-7997423D01*
X155358536Y-7780500D01*
X155357604Y-7770444D01*
X155338435Y-7563578D01*
X155331843Y-7540411D01*
X155278817Y-7354041D01*
X155181712Y-7159028D01*
X155115531Y-7071390D01*
X155050428Y-6985178D01*
X154889431Y-6838411D01*
X154889430Y-6838410D01*
X154704219Y-6723732D01*
X154704204Y-6723725D01*
X154501073Y-6645031D01*
X154501074Y-6645031D01*
X154493558Y-6643626D01*
X154286926Y-6605000D01*
X154069074Y-6605000D01*
X153854931Y-6645030D01*
X153854929Y-6645030D01*
X153854927Y-6645031D01*
X153779653Y-6674192D01*
X153708907Y-6680148D01*
X153646171Y-6646910D01*
X153645043Y-6645795D01*
X152289747Y-5290499D01*
X154072341Y-5290499D01*
X154092937Y-5525911D01*
X154153973Y-5753702D01*
X154154097Y-5754163D01*
X154252741Y-5965705D01*
X154253965Y-5968330D01*
X154384834Y-6155231D01*
X154389505Y-6161901D01*
X154556599Y-6328995D01*
X154750170Y-6464535D01*
X154964337Y-6564403D01*
X155192592Y-6625563D01*
X155428000Y-6646159D01*
X155663408Y-6625563D01*
X155891663Y-6564403D01*
X156105830Y-6464535D01*
X156299401Y-6328995D01*
X156337631Y-6290765D01*
X166293788Y-6290765D01*
X166323412Y-6560014D01*
X166391928Y-6822090D01*
X166497869Y-7071389D01*
X166497870Y-7071390D01*
X166638982Y-7302610D01*
X166812255Y-7510820D01*
X166812257Y-7510822D01*
X166812259Y-7510824D01*
X166881379Y-7572755D01*
X167013998Y-7691582D01*
X167239910Y-7841044D01*
X167485176Y-7956020D01*
X167744569Y-8034060D01*
X167744572Y-8034060D01*
X167744574Y-8034061D01*
X168012557Y-8073500D01*
X168012561Y-8073500D01*
X168215633Y-8073500D01*
X168250363Y-8070957D01*
X168418156Y-8058677D01*
X168418160Y-8058676D01*
X168418161Y-8058676D01*
X168600653Y-8018024D01*
X168682553Y-7999780D01*
X168935558Y-7903014D01*
X169171777Y-7770441D01*
X169386177Y-7604888D01*
X169574186Y-7409881D01*
X169731799Y-7189579D01*
X169741956Y-7169825D01*
X169855656Y-6948675D01*
X169855657Y-6948672D01*
X169898842Y-6822088D01*
X169943118Y-6692305D01*
X169990603Y-6435225D01*
X169992318Y-6425941D01*
X169992319Y-6425930D01*
X169994321Y-6371155D01*
X170002212Y-6155235D01*
X169986081Y-6008626D01*
X169972587Y-5885985D01*
X169906698Y-5633957D01*
X169904072Y-5623912D01*
X169798130Y-5374610D01*
X169657018Y-5143390D01*
X169483745Y-4935180D01*
X169483741Y-4935177D01*
X169483740Y-4935175D01*
X169282012Y-4754427D01*
X169282002Y-4754418D01*
X169056090Y-4604956D01*
X168810824Y-4489980D01*
X168653392Y-4442615D01*
X168551425Y-4411938D01*
X168283442Y-4372500D01*
X168283439Y-4372500D01*
X168080369Y-4372500D01*
X168080367Y-4372500D01*
X167877839Y-4387323D01*
X167877838Y-4387323D01*
X167613456Y-4446217D01*
X167613441Y-4446222D01*
X167360441Y-4542986D01*
X167124229Y-4675555D01*
X167124225Y-4675557D01*
X166909818Y-4841116D01*
X166721815Y-5036117D01*
X166721810Y-5036123D01*
X166564203Y-5256417D01*
X166564196Y-5256427D01*
X166440343Y-5497324D01*
X166440342Y-5497327D01*
X166352883Y-5753689D01*
X166352880Y-5753702D01*
X166303681Y-6020058D01*
X166303680Y-6020069D01*
X166293788Y-6290765D01*
X156337631Y-6290765D01*
X156466495Y-6161901D01*
X156602035Y-5968330D01*
X156701903Y-5754163D01*
X156763063Y-5525908D01*
X156783659Y-5290500D01*
X156763063Y-5055092D01*
X156701903Y-4826837D01*
X156602035Y-4612671D01*
X156602034Y-4612670D01*
X156602033Y-4612667D01*
X156466501Y-4419107D01*
X156466498Y-4419103D01*
X156466495Y-4419099D01*
X156299401Y-4252005D01*
X156274945Y-4234881D01*
X156105830Y-4116465D01*
X155891665Y-4016598D01*
X155891661Y-4016596D01*
X155663411Y-3955437D01*
X155428000Y-3934841D01*
X155192588Y-3955437D01*
X154964338Y-4016596D01*
X154964334Y-4016598D01*
X154750167Y-4116466D01*
X154556607Y-4251998D01*
X154556596Y-4252007D01*
X154389507Y-4419096D01*
X154389498Y-4419107D01*
X154253966Y-4612667D01*
X154154098Y-4826834D01*
X154154096Y-4826838D01*
X154092937Y-5055088D01*
X154072341Y-5290499D01*
X152289747Y-5290499D01*
X149069972Y-2070723D01*
X149063726Y-2064477D01*
X149063722Y-2064474D01*
X149063720Y-2064472D01*
X149063716Y-2064470D01*
X149063712Y-2064467D01*
X149042343Y-2053579D01*
X149025485Y-2043249D01*
X149021743Y-2040531D01*
X149006081Y-2029151D01*
X149006079Y-2029150D01*
X149006080Y-2029150D01*
X148983264Y-2021737D01*
X148964998Y-2014171D01*
X148957334Y-2010266D01*
X148943625Y-2003280D01*
X148919931Y-1999528D01*
X148900705Y-1994912D01*
X148877893Y-1987500D01*
X148843988Y-1987500D01*
X144881437Y-1987500D01*
X144813316Y-1967498D01*
X144792342Y-1950595D01*
X142884751Y-43004D01*
X151072709Y-43004D01*
X151091850Y-322848D01*
X151091851Y-322854D01*
X151091852Y-322862D01*
X151122418Y-469954D01*
X151148923Y-597504D01*
X151148925Y-597512D01*
X151158842Y-625415D01*
X151242864Y-861830D01*
X151371919Y-1110896D01*
X151533687Y-1340068D01*
X151683574Y-1500559D01*
X151725155Y-1545081D01*
X151942754Y-1722111D01*
X152182432Y-1867862D01*
X152182434Y-1867863D01*
X152311078Y-1923740D01*
X152439725Y-1979620D01*
X152510777Y-1999528D01*
X152709831Y-2055301D01*
X152709839Y-2055303D01*
X152987728Y-2093499D01*
X152987742Y-2093500D01*
X153268258Y-2093500D01*
X153268271Y-2093499D01*
X153504835Y-2060983D01*
X153546161Y-2055303D01*
X153816275Y-1979620D01*
X154073568Y-1867862D01*
X154313246Y-1722111D01*
X154530845Y-1545081D01*
X154722312Y-1340069D01*
X154884081Y-1110896D01*
X155013136Y-861830D01*
X155107075Y-597511D01*
X155164148Y-322862D01*
X155165814Y-298500D01*
X155183291Y-43004D01*
X155183291Y-42995D01*
X155164149Y236849D01*
X155164148Y236855D01*
X155164148Y236862D01*
X155107075Y511511D01*
X155013136Y775830D01*
X154884081Y1024896D01*
X154722312Y1254069D01*
X154530845Y1459081D01*
X154313246Y1636111D01*
X154073568Y1781862D01*
X154073569Y1781862D01*
X154073565Y1781864D01*
X153816276Y1893620D01*
X153816266Y1893623D01*
X153546168Y1969302D01*
X153546160Y1969304D01*
X153268271Y2007500D01*
X153268258Y2007500D01*
X152987742Y2007500D01*
X152987728Y2007500D01*
X152709839Y1969304D01*
X152709831Y1969302D01*
X152439733Y1893623D01*
X152439723Y1893620D01*
X152182434Y1781864D01*
X151942751Y1636109D01*
X151725152Y1459079D01*
X151533687Y1254069D01*
X151371919Y1024897D01*
X151371919Y1024896D01*
X151242864Y775831D01*
X151148925Y511513D01*
X151148923Y511505D01*
X151091851Y236855D01*
X151091850Y236849D01*
X151072709Y-42995D01*
X151072709Y-43004D01*
X142884751Y-43004D01*
X138580194Y4261554D01*
X138580193Y4261555D01*
X138556220Y4285528D01*
X138556219Y4285529D01*
X138556218Y4285530D01*
X138534843Y4296421D01*
X138517985Y4306751D01*
X138514243Y4309469D01*
X138498581Y4320849D01*
X138498579Y4320850D01*
X138498580Y4320850D01*
X138475764Y4328263D01*
X138457498Y4335829D01*
X138449834Y4339734D01*
X138436125Y4346720D01*
X138412431Y4350472D01*
X138393205Y4355088D01*
X138370393Y4362500D01*
X138336488Y4362500D01*
X127573997Y4362500D01*
X127439211Y4362500D01*
X127416390Y4355086D01*
X127397176Y4350473D01*
X127373478Y4346720D01*
X127352102Y4335828D01*
X127333840Y4328264D01*
X127311025Y4320851D01*
X127311022Y4320849D01*
X127291606Y4306744D01*
X127274760Y4296421D01*
X127253384Y4285529D01*
X127241397Y4273542D01*
X127229410Y4261554D01*
X127229409Y4261553D01*
X126016638Y3048782D01*
X124827959Y1860103D01*
X124765647Y1826077D01*
X124738864Y1823198D01*
X95874456Y1823198D01*
X95865585Y1822500D01*
X91541438Y1822500D01*
X91473317Y1842502D01*
X91452343Y1859405D01*
X89870405Y3441344D01*
X89836379Y3503656D01*
X89833500Y3530439D01*
X89833500Y4051711D01*
X89853502Y4119832D01*
X89907158Y4166325D01*
X89913959Y4169193D01*
X89923019Y4172702D01*
X90104302Y4284948D01*
X90261872Y4428593D01*
X90390366Y4598745D01*
X90485405Y4789611D01*
X90543756Y4994690D01*
X90552537Y5089462D01*
X90578739Y5155445D01*
X90636456Y5196789D01*
X90707362Y5200366D01*
X90768946Y5165040D01*
X90801656Y5102027D01*
X90803461Y5089471D01*
X90803463Y5089459D01*
X90812244Y4994689D01*
X90870593Y4789616D01*
X90870594Y4789614D01*
X90870595Y4789611D01*
X90965634Y4598745D01*
X91094126Y4428596D01*
X91094129Y4428592D01*
X91251699Y4284947D01*
X91251701Y4284946D01*
X91432974Y4172706D01*
X91432975Y4172706D01*
X91432981Y4172702D01*
X91631802Y4095679D01*
X91841390Y4056500D01*
X91841393Y4056500D01*
X92054607Y4056500D01*
X92054610Y4056500D01*
X92264198Y4095679D01*
X92463019Y4172702D01*
X92644302Y4284948D01*
X92801872Y4428593D01*
X92903450Y4563104D01*
X92960464Y4605411D01*
X93031301Y4610178D01*
X93093469Y4575891D01*
X93127232Y4513436D01*
X93130000Y4487171D01*
X93130000Y4308403D01*
X93136505Y4247907D01*
X93187555Y4111036D01*
X93187555Y4111035D01*
X93275095Y3994096D01*
X93392034Y3906556D01*
X93528906Y3855506D01*
X93589402Y3849001D01*
X93589415Y3849000D01*
X94234000Y3849000D01*
X94234000Y4762332D01*
X94342839Y4712627D01*
X94451527Y4697000D01*
X94524473Y4697000D01*
X94633161Y4712627D01*
X94742000Y4762332D01*
X94742000Y3849000D01*
X95386585Y3849000D01*
X95386597Y3849001D01*
X95447093Y3855506D01*
X95583964Y3906556D01*
X95583965Y3906556D01*
X95700904Y3994096D01*
X95788444Y4111035D01*
X95788444Y4111036D01*
X95839494Y4247907D01*
X95845999Y4308403D01*
X95846000Y4308415D01*
X95846000Y4487171D01*
X95866002Y4555292D01*
X95919658Y4601785D01*
X95989932Y4611889D01*
X96054512Y4582395D01*
X96072549Y4563104D01*
X96170792Y4433010D01*
X96174126Y4428596D01*
X96174128Y4428593D01*
X96331699Y4284947D01*
X96331701Y4284946D01*
X96512974Y4172706D01*
X96512975Y4172706D01*
X96512981Y4172702D01*
X96711802Y4095679D01*
X96921390Y4056500D01*
X96921393Y4056500D01*
X97134607Y4056500D01*
X97134610Y4056500D01*
X97344198Y4095679D01*
X97543019Y4172702D01*
X97724302Y4284948D01*
X97881872Y4428593D01*
X98010366Y4598745D01*
X98105405Y4789611D01*
X98163756Y4994690D01*
X98172537Y5089462D01*
X98198739Y5155445D01*
X98256456Y5196789D01*
X98327362Y5200366D01*
X98388946Y5165040D01*
X98421656Y5102027D01*
X98423461Y5089471D01*
X98423463Y5089459D01*
X98432244Y4994689D01*
X98490593Y4789616D01*
X98490594Y4789614D01*
X98490595Y4789611D01*
X98585634Y4598745D01*
X98714126Y4428596D01*
X98714129Y4428592D01*
X98871699Y4284947D01*
X98871701Y4284946D01*
X99052974Y4172706D01*
X99052975Y4172706D01*
X99052981Y4172702D01*
X99251802Y4095679D01*
X99461390Y4056500D01*
X99461393Y4056500D01*
X99674607Y4056500D01*
X99674610Y4056500D01*
X99884198Y4095679D01*
X100083019Y4172702D01*
X100264302Y4284948D01*
X100421872Y4428593D01*
X100550366Y4598745D01*
X100645405Y4789611D01*
X100703756Y4994690D01*
X100712537Y5089462D01*
X100738739Y5155445D01*
X100796456Y5196789D01*
X100867362Y5200366D01*
X100928946Y5165040D01*
X100961656Y5102027D01*
X100963461Y5089471D01*
X100963463Y5089459D01*
X100972244Y4994689D01*
X101030593Y4789616D01*
X101030594Y4789614D01*
X101030595Y4789611D01*
X101125634Y4598745D01*
X101254126Y4428596D01*
X101254129Y4428592D01*
X101411699Y4284947D01*
X101411701Y4284946D01*
X101592974Y4172706D01*
X101592975Y4172706D01*
X101592981Y4172702D01*
X101791802Y4095679D01*
X102001390Y4056500D01*
X102001393Y4056500D01*
X102214607Y4056500D01*
X102214610Y4056500D01*
X102424198Y4095679D01*
X102623019Y4172702D01*
X102804302Y4284948D01*
X102961872Y4428593D01*
X103090366Y4598745D01*
X103185405Y4789611D01*
X103243756Y4994690D01*
X103252537Y5089462D01*
X103278739Y5155445D01*
X103336456Y5196789D01*
X103407362Y5200366D01*
X103468946Y5165040D01*
X103501656Y5102027D01*
X103503461Y5089471D01*
X103503463Y5089459D01*
X103512244Y4994689D01*
X103570593Y4789616D01*
X103570594Y4789614D01*
X103570595Y4789611D01*
X103665634Y4598745D01*
X103794126Y4428596D01*
X103794129Y4428592D01*
X103951699Y4284947D01*
X103951701Y4284946D01*
X104132974Y4172706D01*
X104132975Y4172706D01*
X104132981Y4172702D01*
X104331802Y4095679D01*
X104541390Y4056500D01*
X104541393Y4056500D01*
X104754607Y4056500D01*
X104754610Y4056500D01*
X104964198Y4095679D01*
X105163019Y4172702D01*
X105344302Y4284948D01*
X105501872Y4428593D01*
X105603450Y4563104D01*
X105660464Y4605411D01*
X105731301Y4610178D01*
X105793469Y4575891D01*
X105827232Y4513436D01*
X105830000Y4487171D01*
X105830000Y4308403D01*
X105836505Y4247907D01*
X105887555Y4111036D01*
X105887555Y4111035D01*
X105975095Y3994096D01*
X106092034Y3906556D01*
X106228906Y3855506D01*
X106289402Y3849001D01*
X106289415Y3849000D01*
X106934000Y3849000D01*
X106934000Y4762332D01*
X107042839Y4712627D01*
X107151527Y4697000D01*
X107224473Y4697000D01*
X107333161Y4712627D01*
X107442000Y4762332D01*
X107442000Y3849000D01*
X108086585Y3849000D01*
X108086597Y3849001D01*
X108147093Y3855506D01*
X108283964Y3906556D01*
X108283965Y3906556D01*
X108400904Y3994096D01*
X108488444Y4111035D01*
X108488444Y4111036D01*
X108539494Y4247907D01*
X108545999Y4308403D01*
X108546000Y4308415D01*
X108546000Y4487171D01*
X108566002Y4555292D01*
X108619658Y4601785D01*
X108689932Y4611889D01*
X108754512Y4582395D01*
X108772549Y4563104D01*
X108870792Y4433010D01*
X108874126Y4428596D01*
X108874128Y4428593D01*
X109031699Y4284947D01*
X109031701Y4284946D01*
X109212974Y4172706D01*
X109212975Y4172706D01*
X109212981Y4172702D01*
X109411802Y4095679D01*
X109621390Y4056500D01*
X109621393Y4056500D01*
X109834607Y4056500D01*
X109834610Y4056500D01*
X110044198Y4095679D01*
X110243019Y4172702D01*
X110424302Y4284948D01*
X110581872Y4428593D01*
X110710366Y4598745D01*
X110805405Y4789611D01*
X110863756Y4994690D01*
X110872537Y5089464D01*
X110898738Y5155444D01*
X110956454Y5196789D01*
X111027360Y5200366D01*
X111088945Y5165041D01*
X111121654Y5102029D01*
X111123461Y5089462D01*
X111132243Y4994694D01*
X111190593Y4789616D01*
X111190594Y4789614D01*
X111190595Y4789611D01*
X111285634Y4598745D01*
X111414126Y4428596D01*
X111414129Y4428592D01*
X111571699Y4284947D01*
X111571701Y4284946D01*
X111752974Y4172706D01*
X111752975Y4172706D01*
X111752981Y4172702D01*
X111951802Y4095679D01*
X112161390Y4056500D01*
X112161393Y4056500D01*
X112374607Y4056500D01*
X112374610Y4056500D01*
X112584198Y4095679D01*
X112783019Y4172702D01*
X112964302Y4284948D01*
X113121872Y4428593D01*
X113250366Y4598745D01*
X113345405Y4789611D01*
X113403756Y4994690D01*
X113412537Y5089462D01*
X113438739Y5155445D01*
X113496456Y5196789D01*
X113567362Y5200366D01*
X113628946Y5165040D01*
X113661656Y5102027D01*
X113663461Y5089471D01*
X113663463Y5089459D01*
X113672244Y4994689D01*
X113730593Y4789616D01*
X113730594Y4789614D01*
X113730595Y4789611D01*
X113825634Y4598745D01*
X113954126Y4428596D01*
X113954129Y4428592D01*
X114111699Y4284947D01*
X114111701Y4284946D01*
X114292974Y4172706D01*
X114292975Y4172706D01*
X114292981Y4172702D01*
X114491802Y4095679D01*
X114701390Y4056500D01*
X114701393Y4056500D01*
X114914607Y4056500D01*
X114914610Y4056500D01*
X115124198Y4095679D01*
X115323019Y4172702D01*
X115504302Y4284948D01*
X115661872Y4428593D01*
X115790366Y4598745D01*
X115885405Y4789611D01*
X115943756Y4994690D01*
X115952537Y5089462D01*
X115978739Y5155445D01*
X116036456Y5196789D01*
X116107362Y5200366D01*
X116168946Y5165040D01*
X116201656Y5102027D01*
X116203461Y5089471D01*
X116203463Y5089459D01*
X116212244Y4994689D01*
X116270593Y4789616D01*
X116270594Y4789614D01*
X116270595Y4789611D01*
X116365634Y4598745D01*
X116494126Y4428596D01*
X116494129Y4428592D01*
X116651699Y4284947D01*
X116651701Y4284946D01*
X116832974Y4172706D01*
X116832975Y4172706D01*
X116832981Y4172702D01*
X117031802Y4095679D01*
X117241390Y4056500D01*
X117241393Y4056500D01*
X117454607Y4056500D01*
X117454610Y4056500D01*
X117664198Y4095679D01*
X117863019Y4172702D01*
X118044302Y4284948D01*
X118201872Y4428593D01*
X118303450Y4563104D01*
X118360464Y4605411D01*
X118431301Y4610178D01*
X118493469Y4575891D01*
X118527232Y4513436D01*
X118530000Y4487171D01*
X118530000Y4308403D01*
X118536505Y4247907D01*
X118587555Y4111036D01*
X118587555Y4111035D01*
X118675095Y3994096D01*
X118792034Y3906556D01*
X118928906Y3855506D01*
X118989402Y3849001D01*
X118989415Y3849000D01*
X119634000Y3849000D01*
X119634000Y4762332D01*
X119742839Y4712627D01*
X119851527Y4697000D01*
X119924473Y4697000D01*
X120033161Y4712627D01*
X120142000Y4762332D01*
X120142000Y3849000D01*
X120786585Y3849000D01*
X120786597Y3849001D01*
X120847093Y3855506D01*
X120983964Y3906556D01*
X120983965Y3906556D01*
X121100904Y3994096D01*
X121188444Y4111035D01*
X121188444Y4111036D01*
X121239494Y4247907D01*
X121245999Y4308403D01*
X121246000Y4308415D01*
X121246000Y4487171D01*
X121266002Y4555292D01*
X121319658Y4601785D01*
X121389932Y4611889D01*
X121454512Y4582395D01*
X121472549Y4563104D01*
X121570792Y4433010D01*
X121574126Y4428596D01*
X121574128Y4428593D01*
X121731699Y4284947D01*
X121731701Y4284946D01*
X121912974Y4172706D01*
X121912975Y4172706D01*
X121912981Y4172702D01*
X122111802Y4095679D01*
X122321390Y4056500D01*
X122321393Y4056500D01*
X122534607Y4056500D01*
X122534610Y4056500D01*
X122744198Y4095679D01*
X122943019Y4172702D01*
X123124302Y4284948D01*
X123281872Y4428593D01*
X123410366Y4598745D01*
X123505405Y4789611D01*
X123563756Y4994690D01*
X123572537Y5089462D01*
X123598739Y5155445D01*
X123656456Y5196789D01*
X123727362Y5200366D01*
X123788946Y5165040D01*
X123821656Y5102027D01*
X123823461Y5089471D01*
X123823463Y5089459D01*
X123832244Y4994689D01*
X123890593Y4789616D01*
X123890594Y4789614D01*
X123890595Y4789611D01*
X123985634Y4598745D01*
X124114126Y4428596D01*
X124114129Y4428592D01*
X124271699Y4284947D01*
X124271701Y4284946D01*
X124452974Y4172706D01*
X124452975Y4172706D01*
X124452981Y4172702D01*
X124651802Y4095679D01*
X124861390Y4056500D01*
X124861393Y4056500D01*
X125074607Y4056500D01*
X125074610Y4056500D01*
X125284198Y4095679D01*
X125483019Y4172702D01*
X125664302Y4284948D01*
X125821872Y4428593D01*
X125950366Y4598745D01*
X126045405Y4789611D01*
X126103756Y4994690D01*
X126123429Y5207000D01*
X126103756Y5419310D01*
X126045405Y5624389D01*
X125950366Y5815255D01*
X125821872Y5985407D01*
X125664302Y6129052D01*
X125664300Y6129054D01*
X125664298Y6129055D01*
X125483025Y6241295D01*
X125483021Y6241297D01*
X125483019Y6241298D01*
X125323837Y6302965D01*
X125284199Y6318321D01*
X125231800Y6328116D01*
X125074610Y6357500D01*
X124861390Y6357500D01*
X124735637Y6333993D01*
X124651800Y6318321D01*
X124497753Y6258644D01*
X124452981Y6241298D01*
X124452980Y6241298D01*
X124452979Y6241297D01*
X124452974Y6241295D01*
X124271701Y6129055D01*
X124271699Y6129054D01*
X124114129Y5985409D01*
X124069892Y5926830D01*
X123985634Y5815255D01*
X123928928Y5701373D01*
X123890593Y5624385D01*
X123832244Y5419312D01*
X123832243Y5419310D01*
X123832244Y5419310D01*
X123823462Y5324539D01*
X123797261Y5258556D01*
X123739544Y5217212D01*
X123668638Y5213635D01*
X123607053Y5248961D01*
X123574344Y5311974D01*
X123572538Y5324530D01*
X123563756Y5419310D01*
X123505405Y5624389D01*
X123410366Y5815255D01*
X123281872Y5985407D01*
X123124302Y6129052D01*
X123124300Y6129054D01*
X123124298Y6129055D01*
X122943025Y6241295D01*
X122943021Y6241297D01*
X122943019Y6241298D01*
X122783837Y6302965D01*
X122744199Y6318321D01*
X122691800Y6328116D01*
X122534610Y6357500D01*
X122321390Y6357500D01*
X122195637Y6333993D01*
X122111800Y6318321D01*
X121957753Y6258644D01*
X121912981Y6241298D01*
X121912980Y6241298D01*
X121912979Y6241297D01*
X121912974Y6241295D01*
X121731701Y6129055D01*
X121731699Y6129054D01*
X121574129Y5985409D01*
X121472550Y5850897D01*
X121415535Y5808590D01*
X121344699Y5803823D01*
X121282530Y5838110D01*
X121248768Y5900565D01*
X121246000Y5926830D01*
X121246000Y6105586D01*
X121245999Y6105598D01*
X121239494Y6166094D01*
X121188444Y6302965D01*
X121188444Y6302966D01*
X121100904Y6419905D01*
X120983965Y6507445D01*
X120847093Y6558495D01*
X120786597Y6565000D01*
X120142000Y6565000D01*
X120142000Y5651669D01*
X120033161Y5701373D01*
X119924473Y5717000D01*
X119851527Y5717000D01*
X119742839Y5701373D01*
X119634000Y5651669D01*
X119634000Y6565000D01*
X118989402Y6565000D01*
X118928906Y6558495D01*
X118792035Y6507445D01*
X118792034Y6507445D01*
X118675095Y6419905D01*
X118587555Y6302966D01*
X118587555Y6302965D01*
X118536505Y6166094D01*
X118530000Y6105598D01*
X118530000Y5926830D01*
X118509998Y5858709D01*
X118456342Y5812216D01*
X118386068Y5802112D01*
X118321488Y5831606D01*
X118303450Y5850897D01*
X118265942Y5900565D01*
X118201872Y5985407D01*
X118044302Y6129052D01*
X118044300Y6129054D01*
X118044298Y6129055D01*
X117863025Y6241295D01*
X117863021Y6241297D01*
X117863019Y6241298D01*
X117703837Y6302965D01*
X117664199Y6318321D01*
X117611801Y6328116D01*
X117454610Y6357500D01*
X117241390Y6357500D01*
X117115637Y6333993D01*
X117031800Y6318321D01*
X116877753Y6258644D01*
X116832981Y6241298D01*
X116832980Y6241298D01*
X116832979Y6241297D01*
X116832974Y6241295D01*
X116651701Y6129055D01*
X116651699Y6129054D01*
X116494129Y5985409D01*
X116449892Y5926830D01*
X116365634Y5815255D01*
X116308928Y5701373D01*
X116270593Y5624385D01*
X116212244Y5419312D01*
X116212243Y5419310D01*
X116212244Y5419310D01*
X116203462Y5324539D01*
X116177261Y5258556D01*
X116119544Y5217212D01*
X116048638Y5213635D01*
X115987053Y5248961D01*
X115954344Y5311974D01*
X115952538Y5324530D01*
X115943756Y5419310D01*
X115885405Y5624389D01*
X115790366Y5815255D01*
X115661872Y5985407D01*
X115504302Y6129052D01*
X115504300Y6129054D01*
X115504298Y6129055D01*
X115323025Y6241295D01*
X115323021Y6241297D01*
X115323019Y6241298D01*
X115163837Y6302965D01*
X115124199Y6318321D01*
X115071800Y6328116D01*
X114914610Y6357500D01*
X114701390Y6357500D01*
X114575637Y6333993D01*
X114491800Y6318321D01*
X114337753Y6258644D01*
X114292981Y6241298D01*
X114292980Y6241298D01*
X114292979Y6241297D01*
X114292974Y6241295D01*
X114111701Y6129055D01*
X114111699Y6129054D01*
X113954129Y5985409D01*
X113909892Y5926830D01*
X113825634Y5815255D01*
X113768928Y5701373D01*
X113730593Y5624385D01*
X113672244Y5419312D01*
X113672243Y5419310D01*
X113672244Y5419310D01*
X113663462Y5324539D01*
X113637261Y5258556D01*
X113579544Y5217212D01*
X113508638Y5213635D01*
X113447053Y5248961D01*
X113414344Y5311974D01*
X113412538Y5324530D01*
X113403756Y5419310D01*
X113345405Y5624389D01*
X113250366Y5815255D01*
X113121872Y5985407D01*
X112964302Y6129052D01*
X112964300Y6129054D01*
X112964298Y6129055D01*
X112783025Y6241295D01*
X112783021Y6241297D01*
X112783019Y6241298D01*
X112623837Y6302965D01*
X112584199Y6318321D01*
X112531800Y6328116D01*
X112374610Y6357500D01*
X112161390Y6357500D01*
X112035637Y6333993D01*
X111951800Y6318321D01*
X111797754Y6258644D01*
X111752981Y6241298D01*
X111752980Y6241298D01*
X111752979Y6241297D01*
X111752974Y6241295D01*
X111571701Y6129055D01*
X111571699Y6129054D01*
X111414129Y5985409D01*
X111369892Y5926830D01*
X111285634Y5815255D01*
X111228928Y5701373D01*
X111190593Y5624385D01*
X111132243Y5419307D01*
X111123461Y5324539D01*
X111097259Y5258555D01*
X111039542Y5217211D01*
X110968635Y5213635D01*
X110907052Y5248962D01*
X110874343Y5311975D01*
X110872539Y5324516D01*
X110863756Y5419310D01*
X110805405Y5624389D01*
X110710366Y5815255D01*
X110581872Y5985407D01*
X110424302Y6129052D01*
X110424300Y6129054D01*
X110424298Y6129055D01*
X110243025Y6241295D01*
X110243021Y6241297D01*
X110243019Y6241298D01*
X110083837Y6302965D01*
X110044199Y6318321D01*
X109991800Y6328116D01*
X109834610Y6357500D01*
X109621390Y6357500D01*
X109495637Y6333993D01*
X109411800Y6318321D01*
X109257753Y6258644D01*
X109212981Y6241298D01*
X109212980Y6241298D01*
X109212979Y6241297D01*
X109212974Y6241295D01*
X109031701Y6129055D01*
X109031699Y6129054D01*
X108874129Y5985409D01*
X108772550Y5850897D01*
X108715535Y5808590D01*
X108644699Y5803823D01*
X108582530Y5838110D01*
X108548768Y5900565D01*
X108546000Y5926830D01*
X108546000Y6105586D01*
X108545999Y6105598D01*
X108539494Y6166094D01*
X108488444Y6302965D01*
X108488444Y6302966D01*
X108400904Y6419905D01*
X108283965Y6507445D01*
X108147093Y6558495D01*
X108086597Y6565000D01*
X107442000Y6565000D01*
X107442000Y5651669D01*
X107333161Y5701373D01*
X107224473Y5717000D01*
X107151527Y5717000D01*
X107042839Y5701373D01*
X106934000Y5651669D01*
X106934000Y6565000D01*
X106289402Y6565000D01*
X106228906Y6558495D01*
X106092035Y6507445D01*
X106092034Y6507445D01*
X105975095Y6419905D01*
X105887555Y6302966D01*
X105887555Y6302965D01*
X105836505Y6166094D01*
X105830000Y6105598D01*
X105830000Y5926830D01*
X105809998Y5858709D01*
X105756342Y5812216D01*
X105686068Y5802112D01*
X105621488Y5831606D01*
X105603450Y5850897D01*
X105565942Y5900565D01*
X105501872Y5985407D01*
X105344302Y6129052D01*
X105344300Y6129054D01*
X105344298Y6129055D01*
X105163025Y6241295D01*
X105163021Y6241297D01*
X105163019Y6241298D01*
X105003837Y6302965D01*
X104964199Y6318321D01*
X104911800Y6328116D01*
X104754610Y6357500D01*
X104541390Y6357500D01*
X104415637Y6333993D01*
X104331800Y6318321D01*
X104177754Y6258644D01*
X104132981Y6241298D01*
X104132980Y6241298D01*
X104132979Y6241297D01*
X104132974Y6241295D01*
X103951701Y6129055D01*
X103951699Y6129054D01*
X103794129Y5985409D01*
X103749892Y5926830D01*
X103665634Y5815255D01*
X103608928Y5701373D01*
X103570593Y5624385D01*
X103512244Y5419312D01*
X103512243Y5419310D01*
X103512244Y5419310D01*
X103503462Y5324539D01*
X103477261Y5258556D01*
X103419544Y5217212D01*
X103348638Y5213635D01*
X103287053Y5248961D01*
X103254344Y5311974D01*
X103252538Y5324530D01*
X103243756Y5419310D01*
X103185405Y5624389D01*
X103090366Y5815255D01*
X102961872Y5985407D01*
X102804302Y6129052D01*
X102804300Y6129054D01*
X102804298Y6129055D01*
X102623025Y6241295D01*
X102623021Y6241297D01*
X102623019Y6241298D01*
X102463837Y6302965D01*
X102424199Y6318321D01*
X102371800Y6328116D01*
X102214610Y6357500D01*
X102001390Y6357500D01*
X101875637Y6333993D01*
X101791800Y6318321D01*
X101637753Y6258644D01*
X101592981Y6241298D01*
X101592980Y6241298D01*
X101592979Y6241297D01*
X101592974Y6241295D01*
X101411701Y6129055D01*
X101411699Y6129054D01*
X101254129Y5985409D01*
X101209892Y5926830D01*
X101125634Y5815255D01*
X101068928Y5701373D01*
X101030593Y5624385D01*
X100972244Y5419312D01*
X100972243Y5419310D01*
X100972244Y5419310D01*
X100963462Y5324539D01*
X100937261Y5258556D01*
X100879544Y5217212D01*
X100808638Y5213635D01*
X100747053Y5248961D01*
X100714344Y5311974D01*
X100712538Y5324530D01*
X100703756Y5419310D01*
X100645405Y5624389D01*
X100550366Y5815255D01*
X100421872Y5985407D01*
X100264302Y6129052D01*
X100264300Y6129054D01*
X100264298Y6129055D01*
X100083025Y6241295D01*
X100083021Y6241297D01*
X100083019Y6241298D01*
X99923837Y6302965D01*
X99884199Y6318321D01*
X99831800Y6328116D01*
X99674610Y6357500D01*
X99461390Y6357500D01*
X99335637Y6333993D01*
X99251800Y6318321D01*
X99097753Y6258644D01*
X99052981Y6241298D01*
X99052980Y6241298D01*
X99052979Y6241297D01*
X99052974Y6241295D01*
X98871701Y6129055D01*
X98871699Y6129054D01*
X98714129Y5985409D01*
X98669892Y5926830D01*
X98585634Y5815255D01*
X98528928Y5701373D01*
X98490593Y5624385D01*
X98432244Y5419312D01*
X98432243Y5419310D01*
X98432244Y5419310D01*
X98423462Y5324539D01*
X98397261Y5258556D01*
X98339544Y5217212D01*
X98268638Y5213635D01*
X98207053Y5248961D01*
X98174344Y5311974D01*
X98172538Y5324530D01*
X98163756Y5419310D01*
X98105405Y5624389D01*
X98010366Y5815255D01*
X97881872Y5985407D01*
X97724302Y6129052D01*
X97724300Y6129054D01*
X97724298Y6129055D01*
X97543025Y6241295D01*
X97543021Y6241297D01*
X97543019Y6241298D01*
X97383837Y6302965D01*
X97344199Y6318321D01*
X97291801Y6328116D01*
X97134610Y6357500D01*
X96921390Y6357500D01*
X96795637Y6333993D01*
X96711800Y6318321D01*
X96557754Y6258644D01*
X96512981Y6241298D01*
X96512980Y6241298D01*
X96512979Y6241297D01*
X96512974Y6241295D01*
X96331701Y6129055D01*
X96331699Y6129054D01*
X96174129Y5985409D01*
X96072550Y5850897D01*
X96015535Y5808590D01*
X95944699Y5803823D01*
X95882530Y5838110D01*
X95848768Y5900565D01*
X95846000Y5926830D01*
X95846000Y6105586D01*
X95845999Y6105598D01*
X95839494Y6166094D01*
X95788444Y6302965D01*
X95788444Y6302966D01*
X95700904Y6419905D01*
X95583965Y6507445D01*
X95447093Y6558495D01*
X95386597Y6565000D01*
X94742000Y6565000D01*
X94742000Y5651669D01*
X94633161Y5701373D01*
X94524473Y5717000D01*
X94451527Y5717000D01*
X94342839Y5701373D01*
X94234000Y5651669D01*
X94234000Y6565000D01*
X93589402Y6565000D01*
X93528906Y6558495D01*
X93392035Y6507445D01*
X93392034Y6507445D01*
X93275095Y6419905D01*
X93187555Y6302966D01*
X93187555Y6302965D01*
X93136505Y6166094D01*
X93130000Y6105598D01*
X93130000Y5926830D01*
X93109998Y5858709D01*
X93056342Y5812216D01*
X92986068Y5802112D01*
X92921488Y5831606D01*
X92903450Y5850897D01*
X92865942Y5900565D01*
X92801872Y5985407D01*
X92644302Y6129052D01*
X92644300Y6129054D01*
X92644298Y6129055D01*
X92463025Y6241295D01*
X92463021Y6241297D01*
X92463019Y6241298D01*
X92303837Y6302965D01*
X92264199Y6318321D01*
X92211800Y6328116D01*
X92054610Y6357500D01*
X91841390Y6357500D01*
X91715637Y6333993D01*
X91631800Y6318321D01*
X91477753Y6258644D01*
X91432981Y6241298D01*
X91432980Y6241298D01*
X91432979Y6241297D01*
X91432974Y6241295D01*
X91251701Y6129055D01*
X91251699Y6129054D01*
X91094129Y5985409D01*
X91049892Y5926830D01*
X90965634Y5815255D01*
X90908928Y5701373D01*
X90870593Y5624385D01*
X90812244Y5419312D01*
X90812243Y5419310D01*
X90812244Y5419310D01*
X90803462Y5324539D01*
X90777261Y5258556D01*
X90719544Y5217212D01*
X90648638Y5213635D01*
X90587053Y5248961D01*
X90554344Y5311974D01*
X90552538Y5324530D01*
X90543756Y5419310D01*
X90485405Y5624389D01*
X90390366Y5815255D01*
X90261872Y5985407D01*
X90104302Y6129052D01*
X90104300Y6129054D01*
X90104298Y6129055D01*
X89923025Y6241295D01*
X89923021Y6241297D01*
X89923019Y6241298D01*
X89763837Y6302965D01*
X89724199Y6318321D01*
X89671800Y6328116D01*
X89514610Y6357500D01*
X89301390Y6357500D01*
X89175637Y6333993D01*
X89091800Y6318321D01*
X88937754Y6258644D01*
X88892981Y6241298D01*
X88892980Y6241298D01*
X88892979Y6241297D01*
X88892974Y6241295D01*
X88711701Y6129055D01*
X88711699Y6129054D01*
X88554129Y5985409D01*
X88509892Y5926830D01*
X88425634Y5815255D01*
X88368928Y5701373D01*
X88330593Y5624385D01*
X88272244Y5419312D01*
X88272243Y5419310D01*
X88272244Y5419310D01*
X88263462Y5324539D01*
X88237261Y5258556D01*
X88179544Y5217212D01*
X88108638Y5213635D01*
X88047053Y5248961D01*
X88014344Y5311974D01*
X88012538Y5324530D01*
X88003756Y5419310D01*
X87945405Y5624389D01*
X87850366Y5815255D01*
X87721872Y5985407D01*
X87564302Y6129052D01*
X87564300Y6129054D01*
X87564298Y6129055D01*
X87383025Y6241295D01*
X87383021Y6241297D01*
X87383019Y6241298D01*
X87223837Y6302965D01*
X87184199Y6318321D01*
X87131801Y6328116D01*
X86974610Y6357500D01*
X86761390Y6357500D01*
X86635637Y6333993D01*
X86551800Y6318321D01*
X86397753Y6258644D01*
X86352981Y6241298D01*
X86352980Y6241298D01*
X86352979Y6241297D01*
X86352974Y6241295D01*
X86171701Y6129055D01*
X86171699Y6129054D01*
X86014129Y5985409D01*
X85969892Y5926830D01*
X85885634Y5815255D01*
X85828928Y5701373D01*
X85790593Y5624385D01*
X85732244Y5419312D01*
X85732243Y5419310D01*
X85732244Y5419310D01*
X85723462Y5324539D01*
X85697261Y5258556D01*
X85639544Y5217212D01*
X85568638Y5213635D01*
X85507053Y5248961D01*
X85474344Y5311974D01*
X85472538Y5324530D01*
X85463756Y5419310D01*
X85405405Y5624389D01*
X85310366Y5815255D01*
X85181872Y5985407D01*
X85024302Y6129052D01*
X85024300Y6129054D01*
X85024298Y6129055D01*
X84843025Y6241295D01*
X84843021Y6241297D01*
X84843019Y6241298D01*
X84683837Y6302965D01*
X84644199Y6318321D01*
X84591800Y6328116D01*
X84434610Y6357500D01*
X84221390Y6357500D01*
X84095637Y6333993D01*
X84011800Y6318321D01*
X83857753Y6258644D01*
X83812981Y6241298D01*
X83812980Y6241298D01*
X83812979Y6241297D01*
X83812974Y6241295D01*
X83631701Y6129055D01*
X83631699Y6129054D01*
X83474129Y5985409D01*
X83372550Y5850897D01*
X83315535Y5808590D01*
X83244699Y5803823D01*
X83182530Y5838110D01*
X83148768Y5900565D01*
X83146000Y5926830D01*
X83146000Y6105586D01*
X83145999Y6105598D01*
X83139494Y6166094D01*
X83088444Y6302965D01*
X83088444Y6302966D01*
X83000904Y6419905D01*
X82883965Y6507445D01*
X82747093Y6558495D01*
X82686597Y6565000D01*
X82042000Y6565000D01*
X82042000Y5651669D01*
X81933161Y5701373D01*
X81824473Y5717000D01*
X81751527Y5717000D01*
X81642839Y5701373D01*
X81534000Y5651669D01*
X81534000Y6565000D01*
X80889402Y6565000D01*
X80828906Y6558495D01*
X80692035Y6507445D01*
X80692034Y6507445D01*
X80575095Y6419905D01*
X80487555Y6302966D01*
X80487555Y6302965D01*
X80436505Y6166094D01*
X80430000Y6105598D01*
X80430000Y5926830D01*
X80409998Y5858709D01*
X80356342Y5812216D01*
X80286068Y5802112D01*
X80221488Y5831606D01*
X80203450Y5850897D01*
X80165942Y5900565D01*
X80101872Y5985407D01*
X79944302Y6129052D01*
X79944300Y6129054D01*
X79944298Y6129055D01*
X79763025Y6241295D01*
X79763021Y6241297D01*
X79763019Y6241298D01*
X79603837Y6302965D01*
X79564199Y6318321D01*
X79511800Y6328116D01*
X79354610Y6357500D01*
X79141390Y6357500D01*
X79015637Y6333993D01*
X78931800Y6318321D01*
X78777753Y6258644D01*
X78732981Y6241298D01*
X78732980Y6241298D01*
X78732979Y6241297D01*
X78732974Y6241295D01*
X78551701Y6129055D01*
X78551699Y6129054D01*
X78394129Y5985409D01*
X78349892Y5926830D01*
X78265634Y5815255D01*
X78208928Y5701373D01*
X78170593Y5624385D01*
X78112244Y5419312D01*
X78112243Y5419310D01*
X78112244Y5419310D01*
X78103462Y5324539D01*
X78077261Y5258556D01*
X78019544Y5217212D01*
X77948638Y5213635D01*
X77887053Y5248961D01*
X77854344Y5311974D01*
X77852538Y5324530D01*
X77843756Y5419310D01*
X77785405Y5624389D01*
X77690366Y5815255D01*
X77561872Y5985407D01*
X77404302Y6129052D01*
X77404300Y6129054D01*
X77404298Y6129055D01*
X77223025Y6241295D01*
X77223021Y6241297D01*
X77223019Y6241298D01*
X77063837Y6302965D01*
X77024199Y6318321D01*
X76971801Y6328116D01*
X76814610Y6357500D01*
X76601390Y6357500D01*
X76475637Y6333993D01*
X76391800Y6318321D01*
X76237753Y6258644D01*
X76192981Y6241298D01*
X76192980Y6241298D01*
X76192979Y6241297D01*
X76192974Y6241295D01*
X76011701Y6129055D01*
X76011699Y6129054D01*
X75854129Y5985409D01*
X75809892Y5926830D01*
X75725634Y5815255D01*
X75668928Y5701373D01*
X75630593Y5624385D01*
X75572244Y5419312D01*
X75552571Y5207000D01*
X74856848Y5207000D01*
X74822432Y5688198D01*
X74822292Y5691094D01*
X74819525Y5803823D01*
X74803500Y6477000D01*
X74803500Y6477500D01*
X74803500Y11372001D01*
X75632357Y11372001D01*
X75637231Y11319394D01*
X75637500Y11313579D01*
X75637500Y11260757D01*
X75647206Y11208827D01*
X75648010Y11203063D01*
X75652883Y11150473D01*
X75652886Y11150460D01*
X75667343Y11099649D01*
X75668673Y11093996D01*
X75671511Y11078816D01*
X75678381Y11042061D01*
X75678382Y11042058D01*
X75697463Y10992805D01*
X75699312Y10987286D01*
X75710279Y10948745D01*
X75713771Y10936472D01*
X75724691Y10914542D01*
X75737320Y10889178D01*
X75739671Y10883854D01*
X75743385Y10874266D01*
X75758753Y10834599D01*
X75758755Y10834596D01*
X75786560Y10789688D01*
X75789392Y10784603D01*
X75812939Y10737316D01*
X75812942Y10737311D01*
X75844777Y10695154D01*
X75848065Y10690354D01*
X75875876Y10645438D01*
X75911463Y10606402D01*
X75915181Y10601925D01*
X75947018Y10559765D01*
X75986063Y10524170D01*
X75990171Y10520062D01*
X76019882Y10487471D01*
X76025764Y10481019D01*
X76067917Y10449187D01*
X76072389Y10445474D01*
X76111438Y10409876D01*
X76156356Y10382064D01*
X76161160Y10378773D01*
X76203311Y10346942D01*
X76241221Y10328065D01*
X76250591Y10323399D01*
X76255677Y10320567D01*
X76264358Y10315192D01*
X76300599Y10292753D01*
X76319857Y10285293D01*
X76349861Y10273668D01*
X76355175Y10271322D01*
X76402472Y10247771D01*
X76453308Y10233307D01*
X76458794Y10231468D01*
X76508060Y10212382D01*
X76560000Y10202673D01*
X76565643Y10201345D01*
X76590191Y10194361D01*
X76616459Y10186886D01*
X76616461Y10186886D01*
X76616464Y10186885D01*
X76661900Y10182675D01*
X76669064Y10182011D01*
X76674826Y10181208D01*
X76726757Y10171500D01*
X76726761Y10171500D01*
X76949244Y10171500D01*
X76961038Y10173706D01*
X77001168Y10181207D01*
X77006923Y10182010D01*
X77006934Y10182011D01*
X77059536Y10186885D01*
X77110356Y10201346D01*
X77116002Y10202674D01*
X77167940Y10212382D01*
X77217210Y10231471D01*
X77222690Y10233307D01*
X77273528Y10247771D01*
X77320825Y10271324D01*
X77326130Y10273666D01*
X77375401Y10292753D01*
X77420330Y10320573D01*
X77425390Y10323391D01*
X77472689Y10346942D01*
X77514855Y10378786D01*
X77519642Y10382064D01*
X77564562Y10409876D01*
X77603603Y10445469D01*
X77608080Y10449186D01*
X77650236Y10481019D01*
X77685838Y10520074D01*
X77689926Y10524162D01*
X77728981Y10559764D01*
X77760817Y10601925D01*
X77764536Y10606402D01*
X77773667Y10616417D01*
X77800124Y10645438D01*
X77827940Y10690366D01*
X77831214Y10695145D01*
X77863058Y10737311D01*
X77886609Y10784610D01*
X77889427Y10789670D01*
X77917247Y10834599D01*
X77936334Y10883870D01*
X77938676Y10889175D01*
X77962229Y10936472D01*
X77976693Y10987310D01*
X77978529Y10992790D01*
X77997618Y11042060D01*
X78007326Y11093998D01*
X78008656Y11099649D01*
X78023114Y11150461D01*
X78023113Y11150461D01*
X78023115Y11150464D01*
X78027990Y11203078D01*
X78028793Y11208832D01*
X78038500Y11260757D01*
X78038500Y11313580D01*
X78038769Y11319394D01*
X78042209Y11356530D01*
X78043643Y11372000D01*
X78040965Y11400898D01*
X78038769Y11424608D01*
X78038500Y11430423D01*
X78038500Y11483239D01*
X78038500Y11483243D01*
X78028792Y11535175D01*
X78027989Y11540936D01*
X78025064Y11572500D01*
X78023115Y11593536D01*
X78008655Y11644357D01*
X78007327Y11650000D01*
X78003215Y11671997D01*
X78812417Y11671997D01*
X78832698Y11466073D01*
X78892768Y11268046D01*
X78985809Y11093979D01*
X78990315Y11085550D01*
X79121590Y10925590D01*
X79281550Y10794315D01*
X79464046Y10696768D01*
X79662066Y10636700D01*
X79662070Y10636700D01*
X79662072Y10636699D01*
X79867997Y10616417D01*
X79868000Y10616417D01*
X79868003Y10616417D01*
X80073927Y10636699D01*
X80073928Y10636700D01*
X80073934Y10636700D01*
X80271954Y10696768D01*
X80454450Y10794315D01*
X80614410Y10925590D01*
X80745685Y11085550D01*
X80843232Y11268046D01*
X80903300Y11466066D01*
X80904639Y11479655D01*
X80923583Y11671997D01*
X80923583Y11672004D01*
X80903301Y11877928D01*
X80903300Y11877930D01*
X80903300Y11877934D01*
X80843232Y12075954D01*
X80745685Y12258450D01*
X80614410Y12418410D01*
X80454450Y12549685D01*
X80454448Y12549686D01*
X80454447Y12549687D01*
X80271954Y12647232D01*
X80109056Y12696646D01*
X80073934Y12707300D01*
X80073933Y12707301D01*
X80073927Y12707302D01*
X79868003Y12727583D01*
X79867997Y12727583D01*
X79662072Y12707302D01*
X79464045Y12647232D01*
X79281552Y12549687D01*
X79121590Y12418410D01*
X78990313Y12258448D01*
X78892768Y12075955D01*
X78832698Y11877928D01*
X78812417Y11672004D01*
X78812417Y11671997D01*
X78003215Y11671997D01*
X77997618Y11701940D01*
X77978532Y11751206D01*
X77976693Y11756692D01*
X77962229Y11807528D01*
X77938678Y11854825D01*
X77936332Y11860139D01*
X77924707Y11890143D01*
X77917247Y11909401D01*
X77889433Y11954323D01*
X77886601Y11959409D01*
X77879142Y11974389D01*
X77863058Y12006689D01*
X77831222Y12048847D01*
X77827936Y12053644D01*
X77814121Y12075955D01*
X77800124Y12098562D01*
X77764526Y12137611D01*
X77760813Y12142083D01*
X77728981Y12184236D01*
X77728978Y12184239D01*
X77689938Y12219829D01*
X77685830Y12223937D01*
X77650235Y12262982D01*
X77608075Y12294819D01*
X77603608Y12298528D01*
X77564562Y12334124D01*
X77519649Y12361933D01*
X77514846Y12365223D01*
X77472689Y12397058D01*
X77472684Y12397061D01*
X77425397Y12420608D01*
X77420312Y12423440D01*
X77375404Y12451245D01*
X77375405Y12451245D01*
X77375401Y12451247D01*
X77326141Y12470331D01*
X77320822Y12472680D01*
X77307741Y12479193D01*
X77273528Y12496229D01*
X77266243Y12498302D01*
X77222714Y12510688D01*
X77217195Y12512537D01*
X77167942Y12531618D01*
X77167939Y12531619D01*
X77138014Y12537213D01*
X77116004Y12541327D01*
X77110355Y12542656D01*
X77059536Y12557115D01*
X77059535Y12557116D01*
X77059527Y12557117D01*
X77006937Y12561990D01*
X77001173Y12562794D01*
X76949244Y12572500D01*
X76949243Y12572500D01*
X76726757Y12572500D01*
X76726755Y12572500D01*
X76674825Y12562794D01*
X76669062Y12561990D01*
X76616472Y12557117D01*
X76616462Y12557115D01*
X76565648Y12542658D01*
X76559984Y12541326D01*
X76508060Y12531619D01*
X76458808Y12512539D01*
X76453291Y12510690D01*
X76402477Y12496231D01*
X76402474Y12496230D01*
X76402472Y12496229D01*
X76367981Y12479055D01*
X76355180Y12472681D01*
X76349856Y12470331D01*
X76300599Y12451247D01*
X76300598Y12451247D01*
X76255677Y12423435D01*
X76250594Y12420604D01*
X76203311Y12397059D01*
X76161153Y12365224D01*
X76156353Y12361936D01*
X76111437Y12334124D01*
X76111436Y12334123D01*
X76072401Y12298537D01*
X76067922Y12294818D01*
X76025768Y12262985D01*
X76025761Y12262979D01*
X75990172Y12223941D01*
X75986059Y12219828D01*
X75947021Y12184239D01*
X75947015Y12184232D01*
X75915182Y12142078D01*
X75911463Y12137599D01*
X75875877Y12098564D01*
X75875876Y12098563D01*
X75848064Y12053647D01*
X75844776Y12048847D01*
X75812941Y12006689D01*
X75789396Y11959406D01*
X75786565Y11954323D01*
X75758753Y11909402D01*
X75758753Y11909401D01*
X75739669Y11860144D01*
X75737319Y11854822D01*
X75713773Y11807531D01*
X75713769Y11807523D01*
X75699310Y11756709D01*
X75697461Y11751192D01*
X75678381Y11701940D01*
X75668674Y11650016D01*
X75667342Y11644352D01*
X75652885Y11593538D01*
X75652883Y11593528D01*
X75648010Y11540938D01*
X75647206Y11535175D01*
X75637500Y11483245D01*
X75637500Y11430423D01*
X75637231Y11424608D01*
X75632357Y11372001D01*
X74803500Y11372001D01*
X74803500Y16822001D01*
X75632357Y16822001D01*
X75637231Y16769394D01*
X75637500Y16763579D01*
X75637500Y16710757D01*
X75647206Y16658827D01*
X75648010Y16653063D01*
X75652883Y16600473D01*
X75652886Y16600460D01*
X75667343Y16549649D01*
X75668673Y16543996D01*
X75672784Y16522004D01*
X75678381Y16492061D01*
X75678382Y16492058D01*
X75697463Y16442805D01*
X75699312Y16437286D01*
X75711698Y16393757D01*
X75713771Y16386472D01*
X75730807Y16352259D01*
X75737320Y16339178D01*
X75739669Y16333858D01*
X75758753Y16284599D01*
X75758755Y16284596D01*
X75786560Y16239688D01*
X75789392Y16234603D01*
X75812939Y16187316D01*
X75812942Y16187311D01*
X75844777Y16145154D01*
X75848065Y16140354D01*
X75875876Y16095438D01*
X75911463Y16056402D01*
X75915181Y16051925D01*
X75947018Y16009765D01*
X75986063Y15974170D01*
X75990171Y15970062D01*
X76021631Y15935553D01*
X76025764Y15931019D01*
X76067917Y15899187D01*
X76072389Y15895474D01*
X76111438Y15859876D01*
X76156356Y15832064D01*
X76161160Y15828773D01*
X76203311Y15796942D01*
X76241221Y15778065D01*
X76250591Y15773399D01*
X76255677Y15770567D01*
X76264358Y15765192D01*
X76300599Y15742753D01*
X76319857Y15735293D01*
X76349861Y15723668D01*
X76355175Y15721322D01*
X76402472Y15697771D01*
X76453308Y15683307D01*
X76458794Y15681468D01*
X76508060Y15662382D01*
X76560000Y15652673D01*
X76565643Y15651345D01*
X76590191Y15644361D01*
X76616459Y15636886D01*
X76616461Y15636886D01*
X76616464Y15636885D01*
X76661900Y15632675D01*
X76669064Y15632011D01*
X76674826Y15631208D01*
X76726757Y15621500D01*
X76726761Y15621500D01*
X76949244Y15621500D01*
X76961038Y15623706D01*
X77001168Y15631207D01*
X77006923Y15632010D01*
X77006934Y15632011D01*
X77059536Y15636885D01*
X77110356Y15651346D01*
X77116002Y15652674D01*
X77167940Y15662382D01*
X77217210Y15681471D01*
X77222690Y15683307D01*
X77273528Y15697771D01*
X77320825Y15721324D01*
X77326130Y15723666D01*
X77375401Y15742753D01*
X77420330Y15770573D01*
X77425390Y15773391D01*
X77472689Y15796942D01*
X77514855Y15828786D01*
X77519642Y15832064D01*
X77564562Y15859876D01*
X77603603Y15895469D01*
X77608080Y15899186D01*
X77650236Y15931019D01*
X77685838Y15970074D01*
X77689926Y15974162D01*
X77728981Y16009764D01*
X77760817Y16051925D01*
X77764536Y16056402D01*
X77800121Y16095435D01*
X77800124Y16095438D01*
X77827940Y16140366D01*
X77831214Y16145145D01*
X77863058Y16187311D01*
X77886609Y16234610D01*
X77889427Y16239670D01*
X77917247Y16284599D01*
X77936334Y16333870D01*
X77938676Y16339175D01*
X77962229Y16386472D01*
X77976693Y16437310D01*
X77978529Y16442790D01*
X77997618Y16492060D01*
X78003214Y16521997D01*
X78812417Y16521997D01*
X78832698Y16316073D01*
X78832699Y16316067D01*
X78832700Y16316066D01*
X78861959Y16219611D01*
X78892768Y16118046D01*
X78970718Y15972212D01*
X78990315Y15935550D01*
X79121590Y15775590D01*
X79281550Y15644315D01*
X79464046Y15546768D01*
X79662066Y15486700D01*
X79662070Y15486700D01*
X79662072Y15486699D01*
X79867997Y15466417D01*
X79868000Y15466417D01*
X79868003Y15466417D01*
X80073927Y15486699D01*
X80073928Y15486700D01*
X80073934Y15486700D01*
X80271954Y15546768D01*
X80454450Y15644315D01*
X80614410Y15775590D01*
X80745685Y15935550D01*
X80843232Y16118046D01*
X80903300Y16316066D01*
X80905053Y16333858D01*
X80923583Y16521997D01*
X80923583Y16522004D01*
X80903301Y16727928D01*
X80903300Y16727930D01*
X80903300Y16727934D01*
X80843232Y16925954D01*
X80745685Y17108450D01*
X80614410Y17268410D01*
X80454450Y17399685D01*
X80454448Y17399686D01*
X80454447Y17399687D01*
X80271954Y17497232D01*
X80102743Y17548561D01*
X80073934Y17557300D01*
X80073933Y17557301D01*
X80073927Y17557302D01*
X79868003Y17577583D01*
X79867997Y17577583D01*
X79662072Y17557302D01*
X79464045Y17497232D01*
X79281552Y17399687D01*
X79121590Y17268410D01*
X78990313Y17108448D01*
X78892768Y16925955D01*
X78832698Y16727928D01*
X78812417Y16522004D01*
X78812417Y16521997D01*
X78003214Y16521997D01*
X78007326Y16543998D01*
X78008656Y16549649D01*
X78023114Y16600461D01*
X78023113Y16600461D01*
X78023115Y16600464D01*
X78027990Y16653078D01*
X78028793Y16658832D01*
X78038500Y16710757D01*
X78038500Y16763580D01*
X78038769Y16769394D01*
X78040954Y16792983D01*
X78043643Y16822000D01*
X78040965Y16850898D01*
X78038769Y16874608D01*
X78038500Y16880423D01*
X78038500Y16933239D01*
X78038500Y16933243D01*
X78028792Y16985175D01*
X78027989Y16990936D01*
X78024719Y17026226D01*
X78023115Y17043536D01*
X78008655Y17094357D01*
X78007327Y17100000D01*
X77997618Y17151940D01*
X77978532Y17201206D01*
X77976693Y17206692D01*
X77962229Y17257528D01*
X77938678Y17304825D01*
X77936332Y17310139D01*
X77924707Y17340143D01*
X77917247Y17359401D01*
X77894808Y17395642D01*
X77889433Y17404323D01*
X77886601Y17409409D01*
X77881935Y17418779D01*
X77863058Y17456689D01*
X77831222Y17498847D01*
X77827936Y17503644D01*
X77816555Y17522024D01*
X77800124Y17548562D01*
X77764526Y17587611D01*
X77760813Y17592083D01*
X77728981Y17634236D01*
X77728978Y17634239D01*
X77689938Y17669829D01*
X77685830Y17673937D01*
X77650235Y17712982D01*
X77608075Y17744819D01*
X77603608Y17748528D01*
X77564562Y17784124D01*
X77519649Y17811933D01*
X77514846Y17815223D01*
X77472689Y17847058D01*
X77472684Y17847061D01*
X77425397Y17870608D01*
X77420312Y17873440D01*
X77375404Y17901245D01*
X77375405Y17901245D01*
X77375401Y17901247D01*
X77326141Y17920331D01*
X77320822Y17922680D01*
X77307741Y17929193D01*
X77273528Y17946229D01*
X77266243Y17948302D01*
X77222714Y17960688D01*
X77217195Y17962537D01*
X77167942Y17981618D01*
X77167939Y17981619D01*
X77138014Y17987213D01*
X77116004Y17991327D01*
X77110355Y17992656D01*
X77059536Y18007115D01*
X77059535Y18007116D01*
X77059527Y18007117D01*
X77006937Y18011990D01*
X77001173Y18012794D01*
X76949244Y18022500D01*
X76949243Y18022500D01*
X76726757Y18022500D01*
X76726755Y18022500D01*
X76674825Y18012794D01*
X76669062Y18011990D01*
X76616472Y18007117D01*
X76616462Y18007115D01*
X76565648Y17992658D01*
X76559984Y17991326D01*
X76508060Y17981619D01*
X76458808Y17962539D01*
X76453291Y17960690D01*
X76402477Y17946231D01*
X76402474Y17946230D01*
X76402472Y17946229D01*
X76355180Y17922681D01*
X76349856Y17920331D01*
X76300599Y17901247D01*
X76300598Y17901247D01*
X76255677Y17873435D01*
X76250594Y17870604D01*
X76203311Y17847059D01*
X76161153Y17815224D01*
X76156353Y17811936D01*
X76111437Y17784124D01*
X76111436Y17784123D01*
X76072401Y17748537D01*
X76067922Y17744818D01*
X76025768Y17712985D01*
X76025761Y17712979D01*
X75990172Y17673941D01*
X75986059Y17669828D01*
X75947021Y17634239D01*
X75947015Y17634232D01*
X75915182Y17592078D01*
X75911463Y17587599D01*
X75875877Y17548564D01*
X75875876Y17548563D01*
X75848064Y17503647D01*
X75844776Y17498847D01*
X75812941Y17456689D01*
X75789396Y17409406D01*
X75786565Y17404323D01*
X75758753Y17359402D01*
X75758753Y17359401D01*
X75739669Y17310144D01*
X75737319Y17304822D01*
X75713773Y17257531D01*
X75713769Y17257523D01*
X75699310Y17206709D01*
X75697461Y17201192D01*
X75678381Y17151940D01*
X75668674Y17100016D01*
X75667342Y17094352D01*
X75652885Y17043538D01*
X75652883Y17043528D01*
X75648010Y16990938D01*
X75647206Y16985175D01*
X75637500Y16933245D01*
X75637500Y16880423D01*
X75637231Y16874608D01*
X75632357Y16822001D01*
X74803500Y16822001D01*
X74803500Y22987000D01*
X75552571Y22987000D01*
X75572244Y22774689D01*
X75630593Y22569616D01*
X75630594Y22569614D01*
X75630595Y22569611D01*
X75725634Y22378745D01*
X75809892Y22267171D01*
X75854129Y22208592D01*
X76011699Y22064947D01*
X76011701Y22064946D01*
X76192974Y21952706D01*
X76192975Y21952706D01*
X76192981Y21952702D01*
X76391802Y21875679D01*
X76601390Y21836500D01*
X76601393Y21836500D01*
X76814607Y21836500D01*
X76814610Y21836500D01*
X77024198Y21875679D01*
X77223019Y21952702D01*
X77404302Y22064948D01*
X77561872Y22208593D01*
X77690366Y22378745D01*
X77785405Y22569611D01*
X77843756Y22774690D01*
X77852537Y22869462D01*
X77878739Y22935445D01*
X77936456Y22976789D01*
X78007362Y22980366D01*
X78068946Y22945040D01*
X78101656Y22882027D01*
X78103461Y22869471D01*
X78103463Y22869459D01*
X78112244Y22774689D01*
X78170593Y22569616D01*
X78170594Y22569614D01*
X78170595Y22569611D01*
X78265634Y22378745D01*
X78349892Y22267171D01*
X78394129Y22208592D01*
X78551699Y22064947D01*
X78551701Y22064946D01*
X78732974Y21952706D01*
X78732975Y21952706D01*
X78732981Y21952702D01*
X78931802Y21875679D01*
X79141390Y21836500D01*
X79141393Y21836500D01*
X79354607Y21836500D01*
X79354610Y21836500D01*
X79564198Y21875679D01*
X79763019Y21952702D01*
X79944302Y22064948D01*
X80101872Y22208593D01*
X80203450Y22343104D01*
X80260464Y22385411D01*
X80331301Y22390178D01*
X80393469Y22355891D01*
X80427232Y22293436D01*
X80430000Y22267171D01*
X80430000Y22088403D01*
X80436505Y22027907D01*
X80487555Y21891036D01*
X80487555Y21891035D01*
X80575095Y21774096D01*
X80692034Y21686556D01*
X80828906Y21635506D01*
X80889402Y21629001D01*
X80889415Y21629000D01*
X81534000Y21629000D01*
X81534000Y22542332D01*
X81642839Y22492627D01*
X81751527Y22477000D01*
X81824473Y22477000D01*
X81933161Y22492627D01*
X82042000Y22542332D01*
X82042000Y21629000D01*
X82686585Y21629000D01*
X82686597Y21629001D01*
X82747093Y21635506D01*
X82883964Y21686556D01*
X82883965Y21686556D01*
X83000904Y21774096D01*
X83088444Y21891035D01*
X83088444Y21891036D01*
X83139494Y22027907D01*
X83145999Y22088403D01*
X83146000Y22088415D01*
X83146000Y22267171D01*
X83166002Y22335292D01*
X83219658Y22381785D01*
X83289932Y22391889D01*
X83354512Y22362395D01*
X83372549Y22343104D01*
X83378448Y22335292D01*
X83474126Y22208596D01*
X83474128Y22208593D01*
X83631699Y22064947D01*
X83631701Y22064946D01*
X83812974Y21952706D01*
X83812975Y21952706D01*
X83812981Y21952702D01*
X84011802Y21875679D01*
X84221390Y21836500D01*
X84221393Y21836500D01*
X84434607Y21836500D01*
X84434610Y21836500D01*
X84644198Y21875679D01*
X84843019Y21952702D01*
X85024302Y22064948D01*
X85181872Y22208593D01*
X85310366Y22378745D01*
X85405405Y22569611D01*
X85463756Y22774690D01*
X85472537Y22869462D01*
X85498739Y22935445D01*
X85556456Y22976789D01*
X85627362Y22980366D01*
X85688946Y22945040D01*
X85721656Y22882027D01*
X85723461Y22869471D01*
X85723463Y22869459D01*
X85732244Y22774689D01*
X85790593Y22569616D01*
X85790594Y22569614D01*
X85790595Y22569611D01*
X85885634Y22378745D01*
X85969892Y22267171D01*
X86014129Y22208592D01*
X86171699Y22064947D01*
X86171701Y22064946D01*
X86352974Y21952706D01*
X86352975Y21952706D01*
X86352981Y21952702D01*
X86551802Y21875679D01*
X86761390Y21836500D01*
X86761393Y21836500D01*
X86974607Y21836500D01*
X86974610Y21836500D01*
X87184198Y21875679D01*
X87383019Y21952702D01*
X87564302Y22064948D01*
X87721872Y22208593D01*
X87850366Y22378745D01*
X87945405Y22569611D01*
X88003756Y22774690D01*
X88012537Y22869462D01*
X88038739Y22935445D01*
X88096456Y22976789D01*
X88167362Y22980366D01*
X88228946Y22945040D01*
X88261656Y22882027D01*
X88263461Y22869471D01*
X88263463Y22869459D01*
X88272244Y22774689D01*
X88330593Y22569616D01*
X88330594Y22569614D01*
X88330595Y22569611D01*
X88425634Y22378745D01*
X88509892Y22267171D01*
X88554129Y22208592D01*
X88711699Y22064947D01*
X88711701Y22064946D01*
X88892974Y21952706D01*
X88892975Y21952706D01*
X88892981Y21952702D01*
X89091802Y21875679D01*
X89301390Y21836500D01*
X89301393Y21836500D01*
X89514607Y21836500D01*
X89514610Y21836500D01*
X89724198Y21875679D01*
X89923019Y21952702D01*
X90104302Y22064948D01*
X90261872Y22208593D01*
X90390366Y22378745D01*
X90485405Y22569611D01*
X90543756Y22774690D01*
X90552537Y22869462D01*
X90578739Y22935445D01*
X90636456Y22976789D01*
X90707362Y22980366D01*
X90768946Y22945040D01*
X90801656Y22882027D01*
X90803461Y22869471D01*
X90803463Y22869459D01*
X90812244Y22774689D01*
X90870593Y22569616D01*
X90870594Y22569614D01*
X90870595Y22569611D01*
X90965634Y22378745D01*
X91049892Y22267171D01*
X91094129Y22208592D01*
X91251699Y22064947D01*
X91251701Y22064946D01*
X91432974Y21952706D01*
X91432975Y21952706D01*
X91432981Y21952702D01*
X91631802Y21875679D01*
X91841390Y21836500D01*
X91841393Y21836500D01*
X92054607Y21836500D01*
X92054610Y21836500D01*
X92264198Y21875679D01*
X92463019Y21952702D01*
X92644302Y22064948D01*
X92801872Y22208593D01*
X92903450Y22343104D01*
X92960464Y22385411D01*
X93031301Y22390178D01*
X93093469Y22355891D01*
X93127232Y22293436D01*
X93130000Y22267171D01*
X93130000Y22088403D01*
X93136505Y22027907D01*
X93187555Y21891036D01*
X93187555Y21891035D01*
X93275095Y21774096D01*
X93392034Y21686556D01*
X93528906Y21635506D01*
X93589402Y21629001D01*
X93589415Y21629000D01*
X94234000Y21629000D01*
X94234000Y22542332D01*
X94342839Y22492627D01*
X94451527Y22477000D01*
X94524473Y22477000D01*
X94633161Y22492627D01*
X94742000Y22542332D01*
X94742000Y21629000D01*
X95386585Y21629000D01*
X95386597Y21629001D01*
X95447093Y21635506D01*
X95583964Y21686556D01*
X95583965Y21686556D01*
X95700904Y21774096D01*
X95788444Y21891035D01*
X95788444Y21891036D01*
X95839494Y22027907D01*
X95845999Y22088403D01*
X95846000Y22088415D01*
X95846000Y22267171D01*
X95866002Y22335292D01*
X95919658Y22381785D01*
X95989932Y22391889D01*
X96054512Y22362395D01*
X96072549Y22343104D01*
X96078448Y22335292D01*
X96174126Y22208596D01*
X96174128Y22208593D01*
X96331699Y22064947D01*
X96331701Y22064946D01*
X96512974Y21952706D01*
X96512975Y21952706D01*
X96512981Y21952702D01*
X96711802Y21875679D01*
X96921390Y21836500D01*
X96921393Y21836500D01*
X97134607Y21836500D01*
X97134610Y21836500D01*
X97344198Y21875679D01*
X97543019Y21952702D01*
X97724302Y22064948D01*
X97881872Y22208593D01*
X98010366Y22378745D01*
X98105405Y22569611D01*
X98163756Y22774690D01*
X98172537Y22869462D01*
X98198739Y22935445D01*
X98256456Y22976789D01*
X98327362Y22980366D01*
X98388946Y22945040D01*
X98421656Y22882027D01*
X98423461Y22869471D01*
X98423463Y22869459D01*
X98432244Y22774689D01*
X98490593Y22569616D01*
X98490594Y22569614D01*
X98490595Y22569611D01*
X98585634Y22378745D01*
X98669892Y22267171D01*
X98714129Y22208592D01*
X98871699Y22064947D01*
X98871701Y22064946D01*
X99052974Y21952706D01*
X99052975Y21952706D01*
X99052981Y21952702D01*
X99251802Y21875679D01*
X99461390Y21836500D01*
X99461393Y21836500D01*
X99674607Y21836500D01*
X99674610Y21836500D01*
X99884198Y21875679D01*
X100083019Y21952702D01*
X100264302Y22064948D01*
X100421872Y22208593D01*
X100550366Y22378745D01*
X100645405Y22569611D01*
X100703756Y22774690D01*
X100712537Y22869462D01*
X100738739Y22935445D01*
X100796456Y22976789D01*
X100867362Y22980366D01*
X100928946Y22945040D01*
X100961656Y22882027D01*
X100963461Y22869471D01*
X100963463Y22869459D01*
X100972244Y22774689D01*
X101030593Y22569616D01*
X101030594Y22569614D01*
X101030595Y22569611D01*
X101125634Y22378745D01*
X101209892Y22267171D01*
X101254129Y22208592D01*
X101411699Y22064947D01*
X101411701Y22064946D01*
X101592974Y21952706D01*
X101592975Y21952706D01*
X101592981Y21952702D01*
X101791802Y21875679D01*
X102001390Y21836500D01*
X102001393Y21836500D01*
X102214607Y21836500D01*
X102214610Y21836500D01*
X102424198Y21875679D01*
X102623019Y21952702D01*
X102804302Y22064948D01*
X102961872Y22208593D01*
X103090366Y22378745D01*
X103185405Y22569611D01*
X103243756Y22774690D01*
X103252537Y22869462D01*
X103278739Y22935445D01*
X103336456Y22976789D01*
X103407362Y22980366D01*
X103468946Y22945040D01*
X103501656Y22882027D01*
X103503461Y22869471D01*
X103503463Y22869459D01*
X103512244Y22774689D01*
X103570593Y22569616D01*
X103570594Y22569614D01*
X103570595Y22569611D01*
X103665634Y22378745D01*
X103749892Y22267171D01*
X103794129Y22208592D01*
X103951699Y22064947D01*
X103951701Y22064946D01*
X104132974Y21952706D01*
X104132975Y21952706D01*
X104132981Y21952702D01*
X104331802Y21875679D01*
X104541390Y21836500D01*
X104541393Y21836500D01*
X104754607Y21836500D01*
X104754610Y21836500D01*
X104964198Y21875679D01*
X105163019Y21952702D01*
X105344302Y22064948D01*
X105501872Y22208593D01*
X105603450Y22343104D01*
X105660464Y22385411D01*
X105731301Y22390178D01*
X105793469Y22355891D01*
X105827232Y22293436D01*
X105830000Y22267171D01*
X105830000Y22088403D01*
X105836505Y22027907D01*
X105887555Y21891036D01*
X105887555Y21891035D01*
X105975095Y21774096D01*
X106092034Y21686556D01*
X106228906Y21635506D01*
X106289402Y21629001D01*
X106289415Y21629000D01*
X106934000Y21629000D01*
X106934000Y22542332D01*
X107042839Y22492627D01*
X107151527Y22477000D01*
X107224473Y22477000D01*
X107333161Y22492627D01*
X107442000Y22542332D01*
X107442000Y21629000D01*
X108086585Y21629000D01*
X108086597Y21629001D01*
X108147093Y21635506D01*
X108283964Y21686556D01*
X108283965Y21686556D01*
X108400904Y21774096D01*
X108488444Y21891035D01*
X108488444Y21891036D01*
X108539494Y22027907D01*
X108545999Y22088403D01*
X108546000Y22088415D01*
X108546000Y22267171D01*
X108566002Y22335292D01*
X108619658Y22381785D01*
X108689932Y22391889D01*
X108754512Y22362395D01*
X108772549Y22343104D01*
X108778448Y22335292D01*
X108874126Y22208596D01*
X108874128Y22208593D01*
X109031699Y22064947D01*
X109031701Y22064946D01*
X109212974Y21952706D01*
X109212975Y21952706D01*
X109212981Y21952702D01*
X109222015Y21949203D01*
X109278309Y21905946D01*
X109302282Y21839120D01*
X109302500Y21831711D01*
X109302500Y20379607D01*
X109309912Y20356795D01*
X109314528Y20337569D01*
X109318280Y20313875D01*
X109329170Y20292504D01*
X109336737Y20274236D01*
X109344150Y20251420D01*
X109358249Y20232015D01*
X109368579Y20215157D01*
X109379470Y20193782D01*
X109379471Y20193781D01*
X109379472Y20193780D01*
X109403446Y20169806D01*
X121444472Y8128780D01*
X121539780Y8033472D01*
X121561149Y8022584D01*
X121578006Y8012254D01*
X121597417Y7998151D01*
X121597418Y7998151D01*
X121597419Y7998150D01*
X121620232Y7990739D01*
X121638494Y7983175D01*
X121659874Y7972281D01*
X121683572Y7968528D01*
X121702786Y7963916D01*
X121725607Y7956500D01*
X121759512Y7956500D01*
X138074562Y7956500D01*
X138142683Y7936498D01*
X138163657Y7919595D01*
X141420817Y4662435D01*
X141454843Y4600123D01*
X141457722Y4573340D01*
X141457722Y4571997D01*
X141476761Y4415185D01*
X141504771Y4341330D01*
X141532780Y4267477D01*
X141532781Y4267475D01*
X141532782Y4267474D01*
X141532783Y4267471D01*
X141622135Y4138023D01*
X141622517Y4137470D01*
X141740760Y4032717D01*
X141880635Y3959304D01*
X141880636Y3959304D01*
X141880638Y3959303D01*
X141957325Y3940402D01*
X142034015Y3921500D01*
X142034017Y3921500D01*
X142191983Y3921500D01*
X142191985Y3921500D01*
X142345365Y3959304D01*
X142485240Y4032717D01*
X142603483Y4137470D01*
X142693220Y4267477D01*
X142749237Y4415182D01*
X142749237Y4415183D01*
X142749238Y4415185D01*
X142768278Y4571997D01*
X142768278Y4572004D01*
X142749238Y4728816D01*
X142726179Y4789616D01*
X142693220Y4876523D01*
X142693216Y4876528D01*
X142693216Y4876530D01*
X142603483Y5006530D01*
X142603481Y5006532D01*
X142485240Y5111283D01*
X142345365Y5184696D01*
X142345361Y5184698D01*
X142191987Y5222500D01*
X142191985Y5222500D01*
X142116438Y5222500D01*
X142048317Y5242502D01*
X142027343Y5259405D01*
X138910343Y8376405D01*
X138876317Y8438717D01*
X138881382Y8509532D01*
X138923929Y8566368D01*
X138990449Y8591179D01*
X138999438Y8591500D01*
X141336078Y8591500D01*
X141404199Y8571498D01*
X141450692Y8517842D01*
X141461159Y8480688D01*
X141476762Y8352185D01*
X141476762Y8352183D01*
X141476763Y8352182D01*
X141532780Y8204477D01*
X141532781Y8204475D01*
X141532782Y8204474D01*
X141532783Y8204471D01*
X141622516Y8074471D01*
X141622517Y8074470D01*
X141740760Y7969717D01*
X141880635Y7896304D01*
X141880636Y7896304D01*
X141880638Y7896303D01*
X141957324Y7877402D01*
X142034015Y7858500D01*
X142034017Y7858500D01*
X142191983Y7858500D01*
X142191985Y7858500D01*
X142345365Y7896304D01*
X142485240Y7969717D01*
X142498888Y7981808D01*
X163787500Y7981808D01*
X163808077Y7858500D01*
X163827065Y7744706D01*
X163827067Y7744699D01*
X163905116Y7517347D01*
X163905117Y7517345D01*
X163905118Y7517344D01*
X164019528Y7305933D01*
X164167175Y7116236D01*
X164344031Y6953429D01*
X164545272Y6821951D01*
X164765409Y6725390D01*
X164765410Y6725390D01*
X164765412Y6725389D01*
X164998429Y6666382D01*
X164998437Y6666380D01*
X165158204Y6653142D01*
X165178008Y6651500D01*
X165178010Y6651500D01*
X165297992Y6651500D01*
X165316760Y6653056D01*
X165477563Y6666380D01*
X165710591Y6725390D01*
X165930728Y6821951D01*
X166131969Y6953429D01*
X166308825Y7116236D01*
X166456472Y7305933D01*
X166570882Y7517344D01*
X166648934Y7744703D01*
X166688500Y7981808D01*
X166688500Y8222192D01*
X166648934Y8459297D01*
X166603549Y8591500D01*
X166570883Y8686654D01*
X166570882Y8686656D01*
X166456472Y8898067D01*
X166456471Y8898068D01*
X166308825Y9087764D01*
X166131969Y9250571D01*
X165930728Y9382049D01*
X165930725Y9382051D01*
X165930724Y9382051D01*
X165710594Y9478609D01*
X165710587Y9478612D01*
X165477570Y9537619D01*
X165477565Y9537620D01*
X165477563Y9537620D01*
X165348805Y9548290D01*
X165297992Y9552500D01*
X165297990Y9552500D01*
X165178010Y9552500D01*
X165178008Y9552500D01*
X165118819Y9547596D01*
X164998437Y9537620D01*
X164998435Y9537620D01*
X164998429Y9537619D01*
X164765412Y9478612D01*
X164765405Y9478609D01*
X164545275Y9382051D01*
X164344028Y9250569D01*
X164167177Y9087767D01*
X164019528Y8898068D01*
X164019527Y8898067D01*
X163905117Y8686656D01*
X163905116Y8686654D01*
X163827067Y8459302D01*
X163827065Y8459295D01*
X163813234Y8376405D01*
X163787500Y8222192D01*
X163787500Y7981808D01*
X142498888Y7981808D01*
X142603483Y8074470D01*
X142693220Y8204477D01*
X142749237Y8352182D01*
X142749237Y8352183D01*
X142749238Y8352185D01*
X142768278Y8508997D01*
X142768278Y8509004D01*
X142749238Y8665816D01*
X142741334Y8686656D01*
X142693220Y8813523D01*
X142693216Y8813528D01*
X142693216Y8813530D01*
X142603483Y8943530D01*
X142603481Y8943532D01*
X142485240Y9048283D01*
X142345365Y9121696D01*
X142345361Y9121698D01*
X142191987Y9159500D01*
X142191985Y9159500D01*
X142116438Y9159500D01*
X142048317Y9179502D01*
X142027343Y9196405D01*
X141973177Y9250571D01*
X141882194Y9341554D01*
X141858220Y9365528D01*
X141858219Y9365529D01*
X141858218Y9365530D01*
X141836843Y9376421D01*
X141819985Y9386751D01*
X141816243Y9389469D01*
X141800581Y9400849D01*
X141800579Y9400850D01*
X141800580Y9400850D01*
X141777764Y9408263D01*
X141759498Y9415829D01*
X141751834Y9419734D01*
X141738125Y9426720D01*
X141714431Y9430472D01*
X141695205Y9435088D01*
X141672393Y9442500D01*
X141638488Y9442500D01*
X141539438Y9442500D01*
X141471317Y9462502D01*
X141424824Y9516158D01*
X141414720Y9586432D01*
X141444214Y9651012D01*
X141450343Y9657595D01*
X142027343Y10234595D01*
X142089655Y10268621D01*
X142116438Y10271500D01*
X142191983Y10271500D01*
X142191985Y10271500D01*
X142345365Y10309304D01*
X142485240Y10382717D01*
X142603483Y10487470D01*
X142693220Y10617477D01*
X142749237Y10765182D01*
X142749237Y10765183D01*
X142749238Y10765185D01*
X142768278Y10921997D01*
X142768278Y10922004D01*
X142749238Y11078816D01*
X142726179Y11139616D01*
X142693220Y11226523D01*
X142693216Y11226528D01*
X142693216Y11226530D01*
X142603483Y11356530D01*
X142603481Y11356532D01*
X142485240Y11461283D01*
X142345365Y11534696D01*
X142345361Y11534698D01*
X142191987Y11572500D01*
X142191985Y11572500D01*
X142034015Y11572500D01*
X142034012Y11572500D01*
X141880638Y11534698D01*
X141880634Y11534696D01*
X141740759Y11461283D01*
X141622518Y11356532D01*
X141622516Y11356530D01*
X141532783Y11226530D01*
X141532782Y11226527D01*
X141532781Y11226525D01*
X141532780Y11226523D01*
X141523290Y11201500D01*
X141476761Y11078816D01*
X141457722Y10922004D01*
X141457722Y10920662D01*
X141457444Y10919716D01*
X141456803Y10914435D01*
X141455924Y10914542D01*
X141437720Y10852541D01*
X141420818Y10831567D01*
X140703657Y10114405D01*
X140641344Y10080380D01*
X140614561Y10077500D01*
X123291438Y10077500D01*
X123223317Y10097502D01*
X123202343Y10114405D01*
X121759748Y11557000D01*
X123582571Y11557000D01*
X123602244Y11344689D01*
X123660593Y11139616D01*
X123660594Y11139614D01*
X123660595Y11139611D01*
X123755634Y10948745D01*
X123884128Y10778593D01*
X123884129Y10778592D01*
X124041699Y10634947D01*
X124041701Y10634946D01*
X124222974Y10522706D01*
X124222975Y10522706D01*
X124222981Y10522702D01*
X124421802Y10445679D01*
X124631390Y10406500D01*
X124631393Y10406500D01*
X124844607Y10406500D01*
X124844610Y10406500D01*
X125054198Y10445679D01*
X125253019Y10522702D01*
X125434302Y10634948D01*
X125591872Y10778593D01*
X125720366Y10948745D01*
X125815405Y11139611D01*
X125873756Y11344690D01*
X125893429Y11557000D01*
X125879354Y11708895D01*
X162237500Y11708895D01*
X162248122Y11620436D01*
X162303638Y11479659D01*
X162303641Y11479655D01*
X162395077Y11359078D01*
X162515654Y11267642D01*
X162515658Y11267639D01*
X162656435Y11212123D01*
X162656434Y11212123D01*
X162683733Y11208845D01*
X162744898Y11201500D01*
X162744901Y11201500D01*
X165931099Y11201500D01*
X165931102Y11201500D01*
X166019564Y11212123D01*
X166160342Y11267639D01*
X166280922Y11359078D01*
X166372361Y11479658D01*
X166427877Y11620436D01*
X166438500Y11708898D01*
X166438500Y13095102D01*
X166427877Y13183564D01*
X166420555Y13202130D01*
X166372361Y13324342D01*
X166372358Y13324346D01*
X166280922Y13444923D01*
X166160345Y13536359D01*
X166160341Y13536362D01*
X166019564Y13591878D01*
X166019565Y13591878D01*
X165931105Y13602500D01*
X165931102Y13602500D01*
X162744898Y13602500D01*
X162744894Y13602500D01*
X162656435Y13591878D01*
X162515658Y13536362D01*
X162515654Y13536359D01*
X162395077Y13444923D01*
X162303641Y13324346D01*
X162303638Y13324342D01*
X162248122Y13183565D01*
X162237500Y13095106D01*
X162237500Y11708895D01*
X125879354Y11708895D01*
X125873756Y11769310D01*
X125815405Y11974389D01*
X125720366Y12165255D01*
X125591872Y12335407D01*
X125524244Y12397059D01*
X125434300Y12479054D01*
X125434298Y12479055D01*
X125253025Y12591295D01*
X125253021Y12591297D01*
X125253019Y12591298D01*
X125131221Y12638483D01*
X125054199Y12668321D01*
X124992508Y12679853D01*
X124902671Y12696647D01*
X124839387Y12728825D01*
X124803545Y12790111D01*
X124806526Y12861045D01*
X124847384Y12919106D01*
X124913146Y12945861D01*
X124925817Y12946501D01*
X125632864Y12946501D01*
X125657991Y12949415D01*
X125760765Y12994794D01*
X125840206Y13074235D01*
X125885585Y13177009D01*
X125888500Y13202135D01*
X125888499Y14991864D01*
X125885585Y15016991D01*
X125840206Y15119765D01*
X125840206Y15119766D01*
X125760767Y15199205D01*
X125760765Y15199206D01*
X125657989Y15244586D01*
X125657990Y15244586D01*
X125632870Y15247500D01*
X124925826Y15247500D01*
X124857705Y15267502D01*
X124811212Y15321158D01*
X124801108Y15391432D01*
X124830602Y15456012D01*
X124890328Y15494396D01*
X124902656Y15497351D01*
X125054198Y15525679D01*
X125253019Y15602702D01*
X125434302Y15714948D01*
X125517460Y15790757D01*
X162237500Y15790757D01*
X162267326Y15631205D01*
X162278383Y15572054D01*
X162358751Y15364604D01*
X162358759Y15364588D01*
X162475874Y15175440D01*
X162475875Y15175439D01*
X162625764Y15011018D01*
X162803310Y14876943D01*
X162803315Y14876939D01*
X163002462Y14777775D01*
X163002468Y14777773D01*
X163002472Y14777771D01*
X163216464Y14716885D01*
X163382497Y14701500D01*
X163382504Y14701500D01*
X165293496Y14701500D01*
X165293503Y14701500D01*
X165459536Y14716885D01*
X165673528Y14777771D01*
X165673533Y14777774D01*
X165673537Y14777775D01*
X165872684Y14876939D01*
X165872685Y14876941D01*
X165872689Y14876942D01*
X166050236Y15011019D01*
X166200124Y15175438D01*
X166317247Y15364599D01*
X166397618Y15572060D01*
X166438500Y15790757D01*
X166438500Y16013243D01*
X166397618Y16231940D01*
X166397616Y16231944D01*
X166397616Y16231947D01*
X166322946Y16424690D01*
X166317247Y16439401D01*
X166316820Y16440090D01*
X166200125Y16628561D01*
X166200124Y16628562D01*
X166050235Y16792983D01*
X165872689Y16927058D01*
X165872684Y16927062D01*
X165673537Y17026226D01*
X165673520Y17026232D01*
X165459539Y17087115D01*
X165409726Y17091731D01*
X165293503Y17102500D01*
X163382497Y17102500D01*
X163276839Y17092710D01*
X163216460Y17087115D01*
X163002479Y17026232D01*
X163002462Y17026226D01*
X162803315Y16927062D01*
X162803310Y16927058D01*
X162625764Y16792983D01*
X162475875Y16628562D01*
X162475874Y16628561D01*
X162358759Y16439413D01*
X162358751Y16439397D01*
X162278383Y16231947D01*
X162278382Y16231940D01*
X162237500Y16013243D01*
X162237500Y15790757D01*
X125517460Y15790757D01*
X125591872Y15858593D01*
X125720366Y16028745D01*
X125815405Y16219611D01*
X125873756Y16424690D01*
X125893429Y16637000D01*
X125873756Y16849310D01*
X125815405Y17054389D01*
X125720366Y17245255D01*
X125591872Y17415407D01*
X125434302Y17559052D01*
X125434300Y17559054D01*
X125434298Y17559055D01*
X125253025Y17671295D01*
X125253021Y17671297D01*
X125253019Y17671298D01*
X125131221Y17718483D01*
X125054199Y17748321D01*
X125001800Y17758116D01*
X124844610Y17787500D01*
X124631390Y17787500D01*
X124505637Y17763993D01*
X124421800Y17748321D01*
X124267753Y17688644D01*
X124222981Y17671298D01*
X124222980Y17671298D01*
X124222979Y17671297D01*
X124222974Y17671295D01*
X124041701Y17559055D01*
X124041699Y17559054D01*
X123884129Y17415409D01*
X123841834Y17359401D01*
X123755634Y17245255D01*
X123662130Y17057474D01*
X123660593Y17054385D01*
X123602244Y16849312D01*
X123582571Y16637000D01*
X123602244Y16424689D01*
X123660593Y16219616D01*
X123660594Y16219614D01*
X123660595Y16219611D01*
X123755634Y16028745D01*
X123883159Y15859876D01*
X123884129Y15858592D01*
X124041699Y15714947D01*
X124041701Y15714946D01*
X124222974Y15602706D01*
X124222975Y15602706D01*
X124222981Y15602702D01*
X124421802Y15525679D01*
X124573328Y15497354D01*
X124636612Y15465176D01*
X124672454Y15403891D01*
X124669473Y15332957D01*
X124628616Y15274895D01*
X124562854Y15248140D01*
X124550174Y15247500D01*
X123843140Y15247500D01*
X123843133Y15247499D01*
X123818009Y15244586D01*
X123818005Y15244584D01*
X123715234Y15199207D01*
X123635795Y15119768D01*
X123635794Y15119766D01*
X123590414Y15016991D01*
X123587500Y14991871D01*
X123587500Y13202141D01*
X123587501Y13202134D01*
X123590414Y13177010D01*
X123590416Y13177006D01*
X123635793Y13074235D01*
X123715232Y12994796D01*
X123715234Y12994795D01*
X123715235Y12994794D01*
X123818009Y12949415D01*
X123843135Y12946500D01*
X124550175Y12946501D01*
X124618294Y12926499D01*
X124664787Y12872843D01*
X124674891Y12802570D01*
X124645398Y12737989D01*
X124585671Y12699605D01*
X124573326Y12696647D01*
X124421805Y12668323D01*
X124265101Y12607616D01*
X124222981Y12591298D01*
X124222980Y12591298D01*
X124222979Y12591297D01*
X124222974Y12591295D01*
X124041701Y12479055D01*
X124041699Y12479054D01*
X123884129Y12335409D01*
X123829434Y12262981D01*
X123755634Y12165255D01*
X123700059Y12053644D01*
X123660593Y11974385D01*
X123602244Y11769312D01*
X123582571Y11557000D01*
X121759748Y11557000D01*
X115270405Y18046344D01*
X115236379Y18108656D01*
X115233500Y18135439D01*
X115233500Y20081808D01*
X163787500Y20081808D01*
X163812250Y19933485D01*
X163827065Y19844706D01*
X163827067Y19844699D01*
X163905116Y19617347D01*
X163905117Y19617345D01*
X163905118Y19617344D01*
X164019528Y19405933D01*
X164167175Y19216236D01*
X164344031Y19053429D01*
X164545272Y18921951D01*
X164765409Y18825390D01*
X164765410Y18825390D01*
X164765412Y18825389D01*
X164998429Y18766382D01*
X164998437Y18766380D01*
X165158204Y18753142D01*
X165178008Y18751500D01*
X165178010Y18751500D01*
X165297992Y18751500D01*
X165316760Y18753056D01*
X165477563Y18766380D01*
X165710591Y18825390D01*
X165930728Y18921951D01*
X166131969Y19053429D01*
X166308825Y19216236D01*
X166456472Y19405933D01*
X166570882Y19617344D01*
X166648934Y19844703D01*
X166688500Y20081808D01*
X166688500Y20322192D01*
X166648934Y20559297D01*
X166570882Y20786656D01*
X166456472Y20998067D01*
X166308825Y21187764D01*
X166131969Y21350571D01*
X165930728Y21482049D01*
X165930725Y21482051D01*
X165930724Y21482051D01*
X165710594Y21578609D01*
X165710587Y21578612D01*
X165477570Y21637619D01*
X165477565Y21637620D01*
X165477563Y21637620D01*
X165348805Y21648290D01*
X165297992Y21652500D01*
X165297990Y21652500D01*
X165178010Y21652500D01*
X165178008Y21652500D01*
X165118819Y21647596D01*
X164998437Y21637620D01*
X164998435Y21637620D01*
X164998429Y21637619D01*
X164765412Y21578612D01*
X164765405Y21578609D01*
X164545275Y21482051D01*
X164344028Y21350569D01*
X164167177Y21187767D01*
X164019528Y20998068D01*
X164019527Y20998067D01*
X163905117Y20786656D01*
X163905116Y20786654D01*
X163827067Y20559302D01*
X163827065Y20559295D01*
X163807300Y20440851D01*
X163787500Y20322192D01*
X163787500Y20081808D01*
X115233500Y20081808D01*
X115233500Y21831711D01*
X115253502Y21899832D01*
X115307158Y21946325D01*
X115313959Y21949193D01*
X115323019Y21952702D01*
X115504302Y22064948D01*
X115661872Y22208593D01*
X115790366Y22378745D01*
X115885405Y22569611D01*
X115943756Y22774690D01*
X115952537Y22869462D01*
X115978739Y22935445D01*
X116036456Y22976789D01*
X116107362Y22980366D01*
X116168946Y22945040D01*
X116201656Y22882027D01*
X116203461Y22869471D01*
X116203463Y22869459D01*
X116212244Y22774689D01*
X116270593Y22569616D01*
X116270594Y22569614D01*
X116270595Y22569611D01*
X116365634Y22378745D01*
X116449892Y22267171D01*
X116494129Y22208592D01*
X116651699Y22064947D01*
X116651701Y22064946D01*
X116832974Y21952706D01*
X116832975Y21952706D01*
X116832981Y21952702D01*
X117031802Y21875679D01*
X117241390Y21836500D01*
X117241393Y21836500D01*
X117454607Y21836500D01*
X117454610Y21836500D01*
X117664198Y21875679D01*
X117863019Y21952702D01*
X118044302Y22064948D01*
X118201872Y22208593D01*
X118303450Y22343104D01*
X118360464Y22385411D01*
X118431301Y22390178D01*
X118493469Y22355891D01*
X118527232Y22293436D01*
X118530000Y22267171D01*
X118530000Y22088403D01*
X118536505Y22027907D01*
X118587555Y21891036D01*
X118587555Y21891035D01*
X118675095Y21774096D01*
X118792034Y21686556D01*
X118928906Y21635506D01*
X118989402Y21629001D01*
X118989415Y21629000D01*
X119634000Y21629000D01*
X119634000Y22542332D01*
X119742839Y22492627D01*
X119851527Y22477000D01*
X119924473Y22477000D01*
X120033161Y22492627D01*
X120142000Y22542332D01*
X120142000Y21629000D01*
X120786585Y21629000D01*
X120786597Y21629001D01*
X120847093Y21635506D01*
X120983964Y21686556D01*
X120983965Y21686556D01*
X121100904Y21774096D01*
X121188444Y21891035D01*
X121188444Y21891036D01*
X121239494Y22027907D01*
X121245999Y22088403D01*
X121246000Y22088415D01*
X121246000Y22267171D01*
X121266002Y22335292D01*
X121319658Y22381785D01*
X121389932Y22391889D01*
X121454512Y22362395D01*
X121472549Y22343104D01*
X121478448Y22335292D01*
X121574126Y22208596D01*
X121574128Y22208593D01*
X121731699Y22064947D01*
X121731701Y22064946D01*
X121912974Y21952706D01*
X121912975Y21952706D01*
X121912981Y21952702D01*
X122111802Y21875679D01*
X122321390Y21836500D01*
X122321393Y21836500D01*
X122534607Y21836500D01*
X122534610Y21836500D01*
X122744198Y21875679D01*
X122943019Y21952702D01*
X123124302Y22064948D01*
X123281872Y22208593D01*
X123410366Y22378745D01*
X123505405Y22569611D01*
X123563756Y22774690D01*
X123572537Y22869462D01*
X123598739Y22935445D01*
X123656456Y22976789D01*
X123727362Y22980366D01*
X123788946Y22945040D01*
X123821656Y22882027D01*
X123823461Y22869471D01*
X123823463Y22869459D01*
X123832244Y22774689D01*
X123890593Y22569616D01*
X123890594Y22569614D01*
X123890595Y22569611D01*
X123985634Y22378745D01*
X124069892Y22267171D01*
X124114129Y22208592D01*
X124271699Y22064947D01*
X124271701Y22064946D01*
X124452974Y21952706D01*
X124452975Y21952706D01*
X124452981Y21952702D01*
X124651802Y21875679D01*
X124861390Y21836500D01*
X124861393Y21836500D01*
X125074607Y21836500D01*
X125074610Y21836500D01*
X125284198Y21875679D01*
X125483019Y21952702D01*
X125664302Y22064948D01*
X125821872Y22208593D01*
X125950366Y22378745D01*
X126045405Y22569611D01*
X126103756Y22774690D01*
X126123429Y22987000D01*
X126103756Y23199310D01*
X126045405Y23404389D01*
X125950366Y23595255D01*
X125828224Y23756996D01*
X127772709Y23756996D01*
X127791850Y23477152D01*
X127791851Y23477146D01*
X127791852Y23477138D01*
X127821210Y23335861D01*
X127848923Y23202496D01*
X127848925Y23202488D01*
X127929139Y22976789D01*
X127942864Y22938170D01*
X128071919Y22689104D01*
X128233687Y22459932D01*
X128303284Y22385411D01*
X128425155Y22254919D01*
X128642754Y22077889D01*
X128882432Y21932138D01*
X129139725Y21820380D01*
X129274781Y21782539D01*
X129409831Y21744699D01*
X129409839Y21744697D01*
X129687728Y21706501D01*
X129687742Y21706500D01*
X129968258Y21706500D01*
X129968271Y21706501D01*
X130204835Y21739017D01*
X130246161Y21744697D01*
X130516275Y21820380D01*
X130773568Y21932138D01*
X131013246Y22077889D01*
X131230845Y22254919D01*
X131422312Y22459931D01*
X131584081Y22689104D01*
X131713136Y22938170D01*
X131807075Y23202489D01*
X131823942Y23283655D01*
X136517500Y23283655D01*
X136527650Y23184296D01*
X136527650Y23184294D01*
X136527651Y23184292D01*
X136580997Y23023303D01*
X136668137Y22882029D01*
X136670032Y22878956D01*
X136670037Y22878950D01*
X136789949Y22759038D01*
X136789955Y22759033D01*
X136789956Y22759032D01*
X136934303Y22669997D01*
X137095292Y22616651D01*
X137194655Y22606500D01*
X138141344Y22606501D01*
X138141345Y22606501D01*
X138161216Y22608532D01*
X138240708Y22616651D01*
X138401697Y22669997D01*
X138546044Y22759032D01*
X138665968Y22878956D01*
X138755003Y23023303D01*
X138808349Y23184292D01*
X138812652Y23226421D01*
X138839475Y23292153D01*
X138897578Y23332952D01*
X138968515Y23335861D01*
X139029764Y23299957D01*
X139061878Y23236639D01*
X139063348Y23226416D01*
X139067650Y23184296D01*
X139067650Y23184294D01*
X139067651Y23184292D01*
X139120997Y23023303D01*
X139208137Y22882029D01*
X139210032Y22878956D01*
X139210037Y22878950D01*
X139329949Y22759038D01*
X139329955Y22759033D01*
X139329956Y22759032D01*
X139474303Y22669997D01*
X139635292Y22616651D01*
X139734655Y22606500D01*
X140681344Y22606501D01*
X140681345Y22606501D01*
X140701216Y22608532D01*
X140780708Y22616651D01*
X140941697Y22669997D01*
X141086044Y22759032D01*
X141205968Y22878956D01*
X141295003Y23023303D01*
X141348349Y23184292D01*
X141352652Y23226421D01*
X141379475Y23292153D01*
X141437578Y23332952D01*
X141508515Y23335861D01*
X141569764Y23299957D01*
X141601878Y23236639D01*
X141603348Y23226416D01*
X141607650Y23184296D01*
X141607650Y23184294D01*
X141607651Y23184292D01*
X141660997Y23023303D01*
X141748137Y22882029D01*
X141750032Y22878956D01*
X141750037Y22878950D01*
X141869949Y22759038D01*
X141869955Y22759033D01*
X141869956Y22759032D01*
X142014303Y22669997D01*
X142175292Y22616651D01*
X142274655Y22606500D01*
X143221344Y22606501D01*
X143221345Y22606501D01*
X143241216Y22608532D01*
X143320708Y22616651D01*
X143481697Y22669997D01*
X143626044Y22759032D01*
X143745968Y22878956D01*
X143835003Y23023303D01*
X143888349Y23184292D01*
X143892652Y23226421D01*
X143919475Y23292153D01*
X143977578Y23332952D01*
X144048515Y23335861D01*
X144109764Y23299957D01*
X144141878Y23236639D01*
X144143348Y23226416D01*
X144147650Y23184296D01*
X144147650Y23184294D01*
X144147651Y23184292D01*
X144200997Y23023303D01*
X144288137Y22882029D01*
X144290032Y22878956D01*
X144290037Y22878950D01*
X144409949Y22759038D01*
X144409955Y22759033D01*
X144409956Y22759032D01*
X144554303Y22669997D01*
X144715292Y22616651D01*
X144814655Y22606500D01*
X145761344Y22606501D01*
X145761345Y22606501D01*
X145781216Y22608532D01*
X145860708Y22616651D01*
X146021697Y22669997D01*
X146166044Y22759032D01*
X146285968Y22878956D01*
X146375003Y23023303D01*
X146428349Y23184292D01*
X146438500Y23283655D01*
X146438500Y23756996D01*
X151072709Y23756996D01*
X151091850Y23477152D01*
X151091851Y23477146D01*
X151091852Y23477138D01*
X151121210Y23335861D01*
X151148923Y23202496D01*
X151148925Y23202488D01*
X151229139Y22976789D01*
X151242864Y22938170D01*
X151371919Y22689104D01*
X151533687Y22459932D01*
X151603284Y22385411D01*
X151725155Y22254919D01*
X151942754Y22077889D01*
X152182432Y21932138D01*
X152439725Y21820380D01*
X152574781Y21782539D01*
X152709831Y21744699D01*
X152709839Y21744697D01*
X152987728Y21706501D01*
X152987742Y21706500D01*
X153268258Y21706500D01*
X153268271Y21706501D01*
X153504835Y21739017D01*
X153546161Y21744697D01*
X153816275Y21820380D01*
X154073568Y21932138D01*
X154313246Y22077889D01*
X154530845Y22254919D01*
X154722312Y22459931D01*
X154884081Y22689104D01*
X155013136Y22938170D01*
X155107075Y23202489D01*
X155164148Y23477138D01*
X155165507Y23497000D01*
X155183291Y23756996D01*
X155183291Y23757005D01*
X155164149Y24036849D01*
X155164148Y24036855D01*
X155164148Y24036862D01*
X155107075Y24311511D01*
X155013136Y24575830D01*
X154884081Y24824896D01*
X154722312Y25054069D01*
X154557683Y25230344D01*
X154530847Y25259079D01*
X154508371Y25277365D01*
X154313246Y25436111D01*
X154073568Y25581862D01*
X154073569Y25581862D01*
X154073565Y25581864D01*
X153816276Y25693620D01*
X153816266Y25693623D01*
X153546168Y25769302D01*
X153546160Y25769304D01*
X153268271Y25807500D01*
X153268258Y25807500D01*
X152987742Y25807500D01*
X152987728Y25807500D01*
X152709839Y25769304D01*
X152709831Y25769302D01*
X152439733Y25693623D01*
X152439723Y25693620D01*
X152182434Y25581864D01*
X151942751Y25436109D01*
X151725152Y25259079D01*
X151533687Y25054069D01*
X151371919Y24824897D01*
X151371919Y24824896D01*
X151242864Y24575831D01*
X151148925Y24311513D01*
X151148923Y24311505D01*
X151125733Y24199905D01*
X151095825Y24055978D01*
X151091851Y24036855D01*
X151091850Y24036849D01*
X151072709Y23757005D01*
X151072709Y23756996D01*
X146438500Y23756996D01*
X146438499Y25230344D01*
X146428349Y25329708D01*
X146375003Y25490697D01*
X146285968Y25635044D01*
X146285967Y25635045D01*
X146285962Y25635051D01*
X146166050Y25754963D01*
X146166044Y25754968D01*
X146021697Y25844003D01*
X146021696Y25844004D01*
X145860708Y25897349D01*
X145860704Y25897350D01*
X145860702Y25897350D01*
X145761353Y25907500D01*
X144814654Y25907500D01*
X144715295Y25897350D01*
X144554303Y25844003D01*
X144409955Y25754968D01*
X144409949Y25754963D01*
X144290037Y25635051D01*
X144290032Y25635045D01*
X144200997Y25490698D01*
X144147651Y25329707D01*
X144147650Y25329704D01*
X144143346Y25287580D01*
X144116523Y25221845D01*
X144058419Y25181048D01*
X143987481Y25178141D01*
X143926234Y25214046D01*
X143894120Y25277365D01*
X143892652Y25287580D01*
X143888349Y25329708D01*
X143835003Y25490697D01*
X143745968Y25635044D01*
X143745967Y25635045D01*
X143745962Y25635051D01*
X143626050Y25754963D01*
X143626044Y25754968D01*
X143481697Y25844003D01*
X143481696Y25844004D01*
X143320708Y25897349D01*
X143320704Y25897350D01*
X143320702Y25897350D01*
X143221353Y25907500D01*
X142274654Y25907500D01*
X142175295Y25897350D01*
X142014303Y25844003D01*
X141869955Y25754968D01*
X141869949Y25754963D01*
X141750037Y25635051D01*
X141750032Y25635045D01*
X141660997Y25490698D01*
X141607651Y25329707D01*
X141607650Y25329704D01*
X141603346Y25287580D01*
X141576523Y25221845D01*
X141518419Y25181048D01*
X141447481Y25178141D01*
X141386234Y25214046D01*
X141354120Y25277365D01*
X141352652Y25287580D01*
X141348349Y25329708D01*
X141295003Y25490697D01*
X141205968Y25635044D01*
X141205967Y25635045D01*
X141205962Y25635051D01*
X141086050Y25754963D01*
X141086044Y25754968D01*
X140941697Y25844003D01*
X140941696Y25844004D01*
X140780708Y25897349D01*
X140780704Y25897350D01*
X140780702Y25897350D01*
X140681353Y25907500D01*
X139734654Y25907500D01*
X139635295Y25897350D01*
X139474303Y25844003D01*
X139329955Y25754968D01*
X139329949Y25754963D01*
X139210037Y25635051D01*
X139210032Y25635045D01*
X139120997Y25490698D01*
X139067651Y25329707D01*
X139067650Y25329704D01*
X139063346Y25287580D01*
X139036523Y25221845D01*
X138978419Y25181048D01*
X138907481Y25178141D01*
X138846234Y25214046D01*
X138814120Y25277365D01*
X138812652Y25287580D01*
X138808349Y25329708D01*
X138755003Y25490697D01*
X138665968Y25635044D01*
X138665967Y25635045D01*
X138665962Y25635051D01*
X138546050Y25754963D01*
X138546044Y25754968D01*
X138401697Y25844003D01*
X138401696Y25844004D01*
X138240708Y25897349D01*
X138240704Y25897350D01*
X138240702Y25897350D01*
X138141353Y25907500D01*
X137194654Y25907500D01*
X137095295Y25897350D01*
X136934303Y25844003D01*
X136789955Y25754968D01*
X136789949Y25754963D01*
X136670037Y25635051D01*
X136670032Y25635045D01*
X136580997Y25490698D01*
X136527651Y25329707D01*
X136527650Y25329703D01*
X136517500Y25230354D01*
X136517500Y23283655D01*
X131823942Y23283655D01*
X131864148Y23477138D01*
X131865507Y23497000D01*
X131883291Y23756996D01*
X131883291Y23757005D01*
X131864149Y24036849D01*
X131864148Y24036855D01*
X131864148Y24036862D01*
X131807075Y24311511D01*
X131713136Y24575830D01*
X131584081Y24824896D01*
X131422312Y25054069D01*
X131257683Y25230344D01*
X131230847Y25259079D01*
X131208371Y25277365D01*
X131013246Y25436111D01*
X130773568Y25581862D01*
X130773569Y25581862D01*
X130773565Y25581864D01*
X130516276Y25693620D01*
X130516266Y25693623D01*
X130246168Y25769302D01*
X130246160Y25769304D01*
X129968271Y25807500D01*
X129968258Y25807500D01*
X129687742Y25807500D01*
X129687728Y25807500D01*
X129409839Y25769304D01*
X129409831Y25769302D01*
X129139733Y25693623D01*
X129139723Y25693620D01*
X128882434Y25581864D01*
X128642751Y25436109D01*
X128425152Y25259079D01*
X128233687Y25054069D01*
X128071919Y24824897D01*
X128071919Y24824896D01*
X127942864Y24575831D01*
X127848925Y24311513D01*
X127848923Y24311505D01*
X127825733Y24199905D01*
X127795825Y24055978D01*
X127791851Y24036855D01*
X127791850Y24036849D01*
X127772709Y23757005D01*
X127772709Y23756996D01*
X125828224Y23756996D01*
X125821872Y23765407D01*
X125664302Y23909052D01*
X125664300Y23909054D01*
X125664298Y23909055D01*
X125483025Y24021295D01*
X125483021Y24021297D01*
X125483019Y24021298D01*
X125323837Y24082965D01*
X125284199Y24098321D01*
X125231800Y24108116D01*
X125074610Y24137500D01*
X124861390Y24137500D01*
X124735637Y24113993D01*
X124651800Y24098321D01*
X124542501Y24055978D01*
X124452981Y24021298D01*
X124452980Y24021298D01*
X124452979Y24021297D01*
X124452974Y24021295D01*
X124271701Y23909055D01*
X124271699Y23909054D01*
X124114129Y23765409D01*
X124107783Y23757005D01*
X123985634Y23595255D01*
X123898593Y23420451D01*
X123890593Y23404385D01*
X123832244Y23199312D01*
X123832243Y23199310D01*
X123832244Y23199310D01*
X123823462Y23104539D01*
X123797261Y23038556D01*
X123739544Y22997212D01*
X123668638Y22993635D01*
X123607053Y23028961D01*
X123574344Y23091974D01*
X123572538Y23104530D01*
X123563756Y23199310D01*
X123505405Y23404389D01*
X123410366Y23595255D01*
X123281872Y23765407D01*
X123124302Y23909052D01*
X123124300Y23909054D01*
X123124298Y23909055D01*
X122943025Y24021295D01*
X122943021Y24021297D01*
X122943019Y24021298D01*
X122783837Y24082965D01*
X122744199Y24098321D01*
X122691801Y24108116D01*
X122534610Y24137500D01*
X122321390Y24137500D01*
X122195637Y24113993D01*
X122111800Y24098321D01*
X122002501Y24055978D01*
X121912981Y24021298D01*
X121912980Y24021298D01*
X121912979Y24021297D01*
X121912974Y24021295D01*
X121731701Y23909055D01*
X121731699Y23909054D01*
X121574129Y23765409D01*
X121472550Y23630897D01*
X121415535Y23588590D01*
X121344699Y23583823D01*
X121282530Y23618110D01*
X121248768Y23680565D01*
X121246000Y23706830D01*
X121246000Y23885586D01*
X121245999Y23885598D01*
X121239494Y23946094D01*
X121188444Y24082965D01*
X121188444Y24082966D01*
X121100904Y24199905D01*
X120983965Y24287445D01*
X120847093Y24338495D01*
X120786597Y24345000D01*
X120142000Y24345000D01*
X120142000Y23431669D01*
X120033161Y23481373D01*
X119924473Y23497000D01*
X119851527Y23497000D01*
X119742839Y23481373D01*
X119634000Y23431669D01*
X119634000Y24345000D01*
X118989402Y24345000D01*
X118928906Y24338495D01*
X118792035Y24287445D01*
X118792034Y24287445D01*
X118675095Y24199905D01*
X118587555Y24082966D01*
X118587555Y24082965D01*
X118536505Y23946094D01*
X118530000Y23885598D01*
X118530000Y23706830D01*
X118509998Y23638709D01*
X118456342Y23592216D01*
X118386068Y23582112D01*
X118321488Y23611606D01*
X118303450Y23630897D01*
X118297551Y23638709D01*
X118201872Y23765407D01*
X118044302Y23909052D01*
X118044300Y23909054D01*
X118044298Y23909055D01*
X117863025Y24021295D01*
X117863021Y24021297D01*
X117863019Y24021298D01*
X117703837Y24082965D01*
X117664199Y24098321D01*
X117611801Y24108116D01*
X117454610Y24137500D01*
X117241390Y24137500D01*
X117115637Y24113993D01*
X117031800Y24098321D01*
X116922501Y24055978D01*
X116832981Y24021298D01*
X116832980Y24021298D01*
X116832979Y24021297D01*
X116832974Y24021295D01*
X116651701Y23909055D01*
X116651699Y23909054D01*
X116494129Y23765409D01*
X116487783Y23757005D01*
X116365634Y23595255D01*
X116278593Y23420451D01*
X116270593Y23404385D01*
X116212244Y23199312D01*
X116212243Y23199310D01*
X116212244Y23199310D01*
X116203462Y23104539D01*
X116177261Y23038556D01*
X116119544Y22997212D01*
X116048638Y22993635D01*
X115987053Y23028961D01*
X115954344Y23091974D01*
X115952538Y23104530D01*
X115943756Y23199310D01*
X115885405Y23404389D01*
X115790366Y23595255D01*
X115661872Y23765407D01*
X115504302Y23909052D01*
X115504300Y23909054D01*
X115504298Y23909055D01*
X115323025Y24021295D01*
X115323021Y24021297D01*
X115323019Y24021298D01*
X115163837Y24082965D01*
X115124199Y24098321D01*
X115071800Y24108116D01*
X114914610Y24137500D01*
X114701390Y24137500D01*
X114575637Y24113993D01*
X114491800Y24098321D01*
X114382501Y24055978D01*
X114292981Y24021298D01*
X114292980Y24021298D01*
X114292979Y24021297D01*
X114292974Y24021295D01*
X114111701Y23909055D01*
X114111699Y23909054D01*
X113954129Y23765409D01*
X113947783Y23757005D01*
X113825634Y23595255D01*
X113738593Y23420451D01*
X113730593Y23404385D01*
X113672244Y23199312D01*
X113672243Y23199310D01*
X113672244Y23199310D01*
X113663462Y23104539D01*
X113637261Y23038556D01*
X113579544Y22997212D01*
X113508638Y22993635D01*
X113447053Y23028961D01*
X113414344Y23091974D01*
X113412538Y23104530D01*
X113403756Y23199310D01*
X113345405Y23404389D01*
X113250366Y23595255D01*
X113121872Y23765407D01*
X112964302Y23909052D01*
X112964300Y23909054D01*
X112964298Y23909055D01*
X112783025Y24021295D01*
X112783021Y24021297D01*
X112783019Y24021298D01*
X112623837Y24082965D01*
X112584199Y24098321D01*
X112531801Y24108116D01*
X112374610Y24137500D01*
X112161390Y24137500D01*
X112035637Y24113993D01*
X111951800Y24098321D01*
X111842501Y24055978D01*
X111752981Y24021298D01*
X111752980Y24021298D01*
X111752979Y24021297D01*
X111752974Y24021295D01*
X111571701Y23909055D01*
X111571699Y23909054D01*
X111414129Y23765409D01*
X111407783Y23757005D01*
X111285634Y23595255D01*
X111198593Y23420451D01*
X111190593Y23404385D01*
X111132243Y23199307D01*
X111123461Y23104539D01*
X111097259Y23038555D01*
X111039542Y22997211D01*
X110968635Y22993635D01*
X110907052Y23028962D01*
X110874343Y23091975D01*
X110872539Y23104516D01*
X110863756Y23199310D01*
X110805405Y23404389D01*
X110710366Y23595255D01*
X110581872Y23765407D01*
X110424302Y23909052D01*
X110424300Y23909054D01*
X110424298Y23909055D01*
X110243025Y24021295D01*
X110243021Y24021297D01*
X110243019Y24021298D01*
X110083837Y24082965D01*
X110044199Y24098321D01*
X109991800Y24108116D01*
X109834610Y24137500D01*
X109621390Y24137500D01*
X109495637Y24113993D01*
X109411800Y24098321D01*
X109302501Y24055978D01*
X109212981Y24021298D01*
X109212980Y24021298D01*
X109212979Y24021297D01*
X109212974Y24021295D01*
X109031701Y23909055D01*
X109031699Y23909054D01*
X108874129Y23765409D01*
X108772550Y23630897D01*
X108715535Y23588590D01*
X108644699Y23583823D01*
X108582530Y23618110D01*
X108548768Y23680565D01*
X108546000Y23706830D01*
X108546000Y23885586D01*
X108545999Y23885598D01*
X108539494Y23946094D01*
X108488444Y24082965D01*
X108488444Y24082966D01*
X108400904Y24199905D01*
X108283965Y24287445D01*
X108147093Y24338495D01*
X108086597Y24345000D01*
X107442000Y24345000D01*
X107442000Y23431669D01*
X107333161Y23481373D01*
X107224473Y23497000D01*
X107151527Y23497000D01*
X107042839Y23481373D01*
X106934000Y23431669D01*
X106934000Y24345000D01*
X106289402Y24345000D01*
X106228906Y24338495D01*
X106092035Y24287445D01*
X106092034Y24287445D01*
X105975095Y24199905D01*
X105887555Y24082966D01*
X105887555Y24082965D01*
X105836505Y23946094D01*
X105830000Y23885598D01*
X105830000Y23706830D01*
X105809998Y23638709D01*
X105756342Y23592216D01*
X105686068Y23582112D01*
X105621488Y23611606D01*
X105603450Y23630897D01*
X105597551Y23638709D01*
X105501872Y23765407D01*
X105344302Y23909052D01*
X105344300Y23909054D01*
X105344298Y23909055D01*
X105163022Y24021296D01*
X105163019Y24021298D01*
X105163017Y24021299D01*
X105163013Y24021301D01*
X105153983Y24024799D01*
X105097688Y24068058D01*
X105073718Y24134886D01*
X105073500Y24142290D01*
X105073500Y27588189D01*
X105073500Y31174235D01*
X161213788Y31174235D01*
X161243412Y30904986D01*
X161311928Y30642910D01*
X161417869Y30393611D01*
X161417870Y30393610D01*
X161558982Y30162390D01*
X161732255Y29954180D01*
X161732257Y29954178D01*
X161732259Y29954176D01*
X161837236Y29860117D01*
X161933998Y29773418D01*
X162159910Y29623956D01*
X162405176Y29508980D01*
X162664569Y29430940D01*
X162664572Y29430940D01*
X162664574Y29430939D01*
X162932557Y29391500D01*
X162932561Y29391500D01*
X163135633Y29391500D01*
X163170363Y29394043D01*
X163338156Y29406323D01*
X163338160Y29406324D01*
X163338161Y29406324D01*
X163448665Y29430940D01*
X163602553Y29465220D01*
X163855558Y29561986D01*
X164091777Y29694559D01*
X164306177Y29860112D01*
X164494186Y30055119D01*
X164651799Y30275421D01*
X164670924Y30312618D01*
X164775656Y30516325D01*
X164775657Y30516328D01*
X164847614Y30727249D01*
X164863118Y30772695D01*
X164912319Y31039067D01*
X164922212Y31309765D01*
X164907338Y31444942D01*
X164892587Y31579015D01*
X164824071Y31841091D01*
X164718130Y32090390D01*
X164648229Y32204926D01*
X164577018Y32321610D01*
X164403745Y32529820D01*
X164403741Y32529823D01*
X164403740Y32529825D01*
X164202012Y32710573D01*
X164202002Y32710582D01*
X163976090Y32860044D01*
X163730824Y32975020D01*
X163573392Y33022385D01*
X163471425Y33053062D01*
X163203442Y33092500D01*
X163203439Y33092500D01*
X163000369Y33092500D01*
X163000367Y33092500D01*
X162797839Y33077677D01*
X162797838Y33077677D01*
X162533456Y33018783D01*
X162533441Y33018778D01*
X162280441Y32922014D01*
X162044229Y32789445D01*
X162044225Y32789443D01*
X161829818Y32623884D01*
X161641815Y32428883D01*
X161641810Y32428877D01*
X161484203Y32208583D01*
X161484196Y32208573D01*
X161360343Y31967676D01*
X161360342Y31967673D01*
X161272883Y31711311D01*
X161272880Y31711298D01*
X161223681Y31444942D01*
X161223680Y31444931D01*
X161213788Y31174235D01*
X105073500Y31174235D01*
X105073500Y31261399D01*
X105093501Y31329516D01*
X105115944Y31355706D01*
X105176183Y31409071D01*
X105272818Y31549070D01*
X105333140Y31708128D01*
X105339975Y31764419D01*
X105353645Y31876998D01*
X105353645Y31877003D01*
X105333140Y32045872D01*
X105272820Y32204926D01*
X105272818Y32204930D01*
X105176183Y32344929D01*
X105176181Y32344931D01*
X105048857Y32457730D01*
X105048851Y32457735D01*
X104898225Y32536790D01*
X104898221Y32536792D01*
X104733059Y32577500D01*
X104733056Y32577500D01*
X104562944Y32577500D01*
X104562940Y32577500D01*
X104397778Y32536792D01*
X104397774Y32536790D01*
X104247148Y32457735D01*
X104247142Y32457730D01*
X104119818Y32344931D01*
X104119816Y32344929D01*
X104023181Y32204930D01*
X104023179Y32204926D01*
X103962859Y32045872D01*
X103942355Y31877003D01*
X103942355Y31876998D01*
X103962859Y31708129D01*
X104023179Y31549075D01*
X104023181Y31549071D01*
X104023182Y31549070D01*
X104119817Y31409071D01*
X104180053Y31355708D01*
X104217778Y31295565D01*
X104222500Y31261395D01*
X104222500Y24142290D01*
X104202498Y24074169D01*
X104148842Y24027676D01*
X104142017Y24024799D01*
X104132986Y24021301D01*
X104132977Y24021296D01*
X103951701Y23909055D01*
X103951699Y23909054D01*
X103794129Y23765409D01*
X103787783Y23757005D01*
X103665634Y23595255D01*
X103578593Y23420451D01*
X103570593Y23404385D01*
X103512244Y23199312D01*
X103512243Y23199310D01*
X103512244Y23199310D01*
X103503462Y23104539D01*
X103477261Y23038556D01*
X103419544Y22997212D01*
X103348638Y22993635D01*
X103287053Y23028961D01*
X103254344Y23091974D01*
X103252538Y23104530D01*
X103243756Y23199310D01*
X103185405Y23404389D01*
X103090366Y23595255D01*
X102961872Y23765407D01*
X102804302Y23909052D01*
X102804300Y23909054D01*
X102804298Y23909055D01*
X102623025Y24021295D01*
X102623021Y24021297D01*
X102623019Y24021298D01*
X102463837Y24082965D01*
X102424199Y24098321D01*
X102371801Y24108116D01*
X102214610Y24137500D01*
X102001390Y24137500D01*
X101875637Y24113993D01*
X101791800Y24098321D01*
X101682501Y24055978D01*
X101592981Y24021298D01*
X101592980Y24021298D01*
X101592979Y24021297D01*
X101592974Y24021295D01*
X101411701Y23909055D01*
X101411699Y23909054D01*
X101254129Y23765409D01*
X101247783Y23757005D01*
X101125634Y23595255D01*
X101038593Y23420451D01*
X101030593Y23404385D01*
X100972244Y23199312D01*
X100972243Y23199310D01*
X100972244Y23199310D01*
X100963462Y23104539D01*
X100937261Y23038556D01*
X100879544Y22997212D01*
X100808638Y22993635D01*
X100747053Y23028961D01*
X100714344Y23091974D01*
X100712538Y23104530D01*
X100703756Y23199310D01*
X100645405Y23404389D01*
X100550366Y23595255D01*
X100421872Y23765407D01*
X100264302Y23909052D01*
X100264300Y23909054D01*
X100264298Y23909055D01*
X100083025Y24021295D01*
X100083021Y24021297D01*
X100083019Y24021298D01*
X99923837Y24082965D01*
X99884199Y24098321D01*
X99831800Y24108116D01*
X99674610Y24137500D01*
X99461390Y24137500D01*
X99335637Y24113993D01*
X99251800Y24098321D01*
X99142501Y24055978D01*
X99052981Y24021298D01*
X99052980Y24021298D01*
X99052979Y24021297D01*
X99052974Y24021295D01*
X98871701Y23909055D01*
X98871699Y23909054D01*
X98714129Y23765409D01*
X98707783Y23757005D01*
X98585634Y23595255D01*
X98498593Y23420451D01*
X98490593Y23404385D01*
X98432244Y23199312D01*
X98432243Y23199310D01*
X98432244Y23199310D01*
X98423462Y23104539D01*
X98397261Y23038556D01*
X98339544Y22997212D01*
X98268638Y22993635D01*
X98207053Y23028961D01*
X98174344Y23091974D01*
X98172538Y23104530D01*
X98163756Y23199310D01*
X98105405Y23404389D01*
X98010366Y23595255D01*
X97881872Y23765407D01*
X97724302Y23909052D01*
X97724300Y23909054D01*
X97724298Y23909055D01*
X97543025Y24021295D01*
X97543021Y24021297D01*
X97543019Y24021298D01*
X97383837Y24082965D01*
X97344199Y24098321D01*
X97291801Y24108116D01*
X97134610Y24137500D01*
X96921390Y24137500D01*
X96795637Y24113993D01*
X96711800Y24098321D01*
X96602501Y24055978D01*
X96512981Y24021298D01*
X96512980Y24021298D01*
X96512979Y24021297D01*
X96512974Y24021295D01*
X96331701Y23909055D01*
X96331699Y23909054D01*
X96174129Y23765409D01*
X96072550Y23630897D01*
X96015535Y23588590D01*
X95944699Y23583823D01*
X95882530Y23618110D01*
X95848768Y23680565D01*
X95846000Y23706830D01*
X95846000Y23885586D01*
X95845999Y23885598D01*
X95839494Y23946094D01*
X95788444Y24082965D01*
X95788444Y24082966D01*
X95700904Y24199905D01*
X95583965Y24287445D01*
X95447093Y24338495D01*
X95386597Y24345000D01*
X94742000Y24345000D01*
X94742000Y23431669D01*
X94633161Y23481373D01*
X94524473Y23497000D01*
X94451527Y23497000D01*
X94342839Y23481373D01*
X94234000Y23431669D01*
X94234000Y24345000D01*
X93589402Y24345000D01*
X93528906Y24338495D01*
X93392035Y24287445D01*
X93392034Y24287445D01*
X93275095Y24199905D01*
X93187555Y24082966D01*
X93187555Y24082965D01*
X93136505Y23946094D01*
X93130000Y23885598D01*
X93130000Y23706830D01*
X93109998Y23638709D01*
X93056342Y23592216D01*
X92986068Y23582112D01*
X92921488Y23611606D01*
X92903450Y23630897D01*
X92897551Y23638709D01*
X92801872Y23765407D01*
X92644302Y23909052D01*
X92644300Y23909054D01*
X92644298Y23909055D01*
X92463025Y24021295D01*
X92463021Y24021297D01*
X92463019Y24021298D01*
X92303837Y24082965D01*
X92264199Y24098321D01*
X92211801Y24108116D01*
X92054610Y24137500D01*
X91841390Y24137500D01*
X91715637Y24113993D01*
X91631800Y24098321D01*
X91522501Y24055978D01*
X91432981Y24021298D01*
X91432980Y24021298D01*
X91432979Y24021297D01*
X91432974Y24021295D01*
X91251701Y23909055D01*
X91251699Y23909054D01*
X91094129Y23765409D01*
X91087783Y23757005D01*
X90965634Y23595255D01*
X90878593Y23420451D01*
X90870593Y23404385D01*
X90812244Y23199312D01*
X90812243Y23199310D01*
X90812244Y23199310D01*
X90803462Y23104539D01*
X90777261Y23038556D01*
X90719544Y22997212D01*
X90648638Y22993635D01*
X90587053Y23028961D01*
X90554344Y23091974D01*
X90552538Y23104530D01*
X90543756Y23199310D01*
X90485405Y23404389D01*
X90390366Y23595255D01*
X90261872Y23765407D01*
X90104302Y23909052D01*
X90104300Y23909054D01*
X90104298Y23909055D01*
X89923025Y24021295D01*
X89923021Y24021297D01*
X89923019Y24021298D01*
X89763837Y24082965D01*
X89724199Y24098321D01*
X89671800Y24108116D01*
X89514610Y24137500D01*
X89301390Y24137500D01*
X89175637Y24113993D01*
X89091800Y24098321D01*
X88982501Y24055978D01*
X88892981Y24021298D01*
X88892980Y24021298D01*
X88892979Y24021297D01*
X88892974Y24021295D01*
X88711701Y23909055D01*
X88711699Y23909054D01*
X88554129Y23765409D01*
X88547783Y23757005D01*
X88425634Y23595255D01*
X88338593Y23420451D01*
X88330593Y23404385D01*
X88272244Y23199312D01*
X88272243Y23199310D01*
X88272244Y23199310D01*
X88263462Y23104539D01*
X88237261Y23038556D01*
X88179544Y22997212D01*
X88108638Y22993635D01*
X88047053Y23028961D01*
X88014344Y23091974D01*
X88012538Y23104530D01*
X88003756Y23199310D01*
X87945405Y23404389D01*
X87850366Y23595255D01*
X87721872Y23765407D01*
X87564302Y23909052D01*
X87564300Y23909054D01*
X87564298Y23909055D01*
X87428169Y23993343D01*
X87380782Y24046210D01*
X87368500Y24100470D01*
X87368500Y25902497D01*
X87388502Y25970618D01*
X87405400Y25991587D01*
X90593659Y29179847D01*
X90655971Y29213872D01*
X90671020Y29215490D01*
X90670968Y29215959D01*
X90677998Y29216752D01*
X90678000Y29216751D01*
X90846059Y29235687D01*
X91005690Y29291544D01*
X91148890Y29381523D01*
X91268477Y29501110D01*
X91358456Y29644310D01*
X91414313Y29803941D01*
X91433249Y29972000D01*
X91414313Y30140059D01*
X91358456Y30299690D01*
X91268477Y30442890D01*
X91268473Y30442894D01*
X91268473Y30442895D01*
X91148894Y30562474D01*
X91148891Y30562476D01*
X91148890Y30562477D01*
X91021201Y30642710D01*
X91005689Y30652457D01*
X90896485Y30690669D01*
X90846059Y30708313D01*
X90678000Y30727249D01*
X90677999Y30727249D01*
X90653554Y30724495D01*
X90509941Y30708313D01*
X90509938Y30708313D01*
X90509938Y30708312D01*
X90350310Y30652457D01*
X90253981Y30591929D01*
X90207110Y30562477D01*
X90207108Y30562476D01*
X90207106Y30562474D01*
X90207105Y30562474D01*
X90087526Y30442895D01*
X90087526Y30442894D01*
X89997543Y30299690D01*
X89949502Y30162393D01*
X89941687Y30140059D01*
X89922751Y29972000D01*
X89921959Y29964968D01*
X89919374Y29965260D01*
X89902749Y29908636D01*
X89885846Y29887662D01*
X86561721Y26563537D01*
X86540758Y26546641D01*
X86536873Y26544144D01*
X86536868Y26544141D01*
X86502925Y26504969D01*
X86499866Y26501683D01*
X86488778Y26490592D01*
X86488775Y26490589D01*
X86479384Y26478045D01*
X86476564Y26474546D01*
X86442623Y26435375D01*
X86440709Y26431182D01*
X86426969Y26408025D01*
X86424202Y26404330D01*
X86406090Y26355766D01*
X86404369Y26351611D01*
X86382834Y26304456D01*
X86382833Y26304452D01*
X86382176Y26299883D01*
X86375523Y26273814D01*
X86373909Y26269488D01*
X86373909Y26269484D01*
X86370209Y26217777D01*
X86369729Y26213310D01*
X86367500Y26197799D01*
X86367500Y26182133D01*
X86367339Y26177637D01*
X86363641Y26125930D01*
X86363641Y26125927D01*
X86364620Y26121424D01*
X86367500Y26094643D01*
X86367500Y24100470D01*
X86347498Y24032349D01*
X86307831Y23993343D01*
X86171701Y23909055D01*
X86171699Y23909054D01*
X86014129Y23765409D01*
X86007783Y23757005D01*
X85885634Y23595255D01*
X85798593Y23420451D01*
X85790593Y23404385D01*
X85732244Y23199312D01*
X85732243Y23199310D01*
X85732244Y23199310D01*
X85723462Y23104539D01*
X85697261Y23038556D01*
X85639544Y22997212D01*
X85568638Y22993635D01*
X85507053Y23028961D01*
X85474344Y23091974D01*
X85472538Y23104530D01*
X85463756Y23199310D01*
X85405405Y23404389D01*
X85310366Y23595255D01*
X85181872Y23765407D01*
X85024302Y23909052D01*
X85024300Y23909054D01*
X85024298Y23909055D01*
X84843025Y24021295D01*
X84843021Y24021297D01*
X84843019Y24021298D01*
X84683837Y24082965D01*
X84644199Y24098321D01*
X84591800Y24108116D01*
X84434610Y24137500D01*
X84221390Y24137500D01*
X84095637Y24113993D01*
X84011800Y24098321D01*
X83902501Y24055978D01*
X83812981Y24021298D01*
X83812980Y24021298D01*
X83812979Y24021297D01*
X83812974Y24021295D01*
X83631701Y23909055D01*
X83631699Y23909054D01*
X83474129Y23765409D01*
X83372550Y23630897D01*
X83315535Y23588590D01*
X83244699Y23583823D01*
X83182530Y23618110D01*
X83148768Y23680565D01*
X83146000Y23706830D01*
X83146000Y23885586D01*
X83145999Y23885598D01*
X83139494Y23946094D01*
X83088444Y24082965D01*
X83088444Y24082966D01*
X83000904Y24199905D01*
X82883965Y24287445D01*
X82747093Y24338495D01*
X82686597Y24345000D01*
X82042000Y24345000D01*
X82042000Y23431669D01*
X81933161Y23481373D01*
X81824473Y23497000D01*
X81751527Y23497000D01*
X81642839Y23481373D01*
X81534000Y23431669D01*
X81534000Y24345000D01*
X80889402Y24345000D01*
X80828906Y24338495D01*
X80692035Y24287445D01*
X80692034Y24287445D01*
X80575095Y24199905D01*
X80487555Y24082966D01*
X80487555Y24082965D01*
X80436505Y23946094D01*
X80430000Y23885598D01*
X80430000Y23706830D01*
X80409998Y23638709D01*
X80356342Y23592216D01*
X80286068Y23582112D01*
X80221488Y23611606D01*
X80203450Y23630897D01*
X80197551Y23638709D01*
X80101872Y23765407D01*
X79944302Y23909052D01*
X79944300Y23909054D01*
X79944298Y23909055D01*
X79763025Y24021295D01*
X79763021Y24021297D01*
X79763019Y24021298D01*
X79603837Y24082965D01*
X79564199Y24098321D01*
X79511800Y24108116D01*
X79354610Y24137500D01*
X79141390Y24137500D01*
X79015637Y24113993D01*
X78931800Y24098321D01*
X78822501Y24055978D01*
X78732981Y24021298D01*
X78732980Y24021298D01*
X78732979Y24021297D01*
X78732974Y24021295D01*
X78551701Y23909055D01*
X78551699Y23909054D01*
X78394129Y23765409D01*
X78387783Y23757005D01*
X78265634Y23595255D01*
X78178593Y23420451D01*
X78170593Y23404385D01*
X78112244Y23199312D01*
X78112243Y23199310D01*
X78112244Y23199310D01*
X78103462Y23104539D01*
X78077261Y23038556D01*
X78019544Y22997212D01*
X77948638Y22993635D01*
X77887053Y23028961D01*
X77854344Y23091974D01*
X77852538Y23104530D01*
X77843756Y23199310D01*
X77785405Y23404389D01*
X77690366Y23595255D01*
X77561872Y23765407D01*
X77404302Y23909052D01*
X77404300Y23909054D01*
X77404298Y23909055D01*
X77223025Y24021295D01*
X77223021Y24021297D01*
X77223019Y24021298D01*
X77063837Y24082965D01*
X77024199Y24098321D01*
X76971801Y24108116D01*
X76814610Y24137500D01*
X76601390Y24137500D01*
X76475637Y24113993D01*
X76391800Y24098321D01*
X76282501Y24055978D01*
X76192981Y24021298D01*
X76192980Y24021298D01*
X76192979Y24021297D01*
X76192974Y24021295D01*
X76011701Y23909055D01*
X76011699Y23909054D01*
X75854129Y23765409D01*
X75847783Y23757005D01*
X75725634Y23595255D01*
X75638593Y23420451D01*
X75630593Y23404385D01*
X75572244Y23199312D01*
X75552571Y22987000D01*
X74803500Y22987000D01*
X74803500Y34349235D01*
X76758788Y34349235D01*
X76788412Y34079986D01*
X76856928Y33817910D01*
X76962869Y33568611D01*
X76962870Y33568610D01*
X77103982Y33337390D01*
X77277255Y33129180D01*
X77277257Y33129178D01*
X77277259Y33129176D01*
X77318192Y33092500D01*
X77478998Y32948418D01*
X77704910Y32798956D01*
X77950176Y32683980D01*
X78209569Y32605940D01*
X78209572Y32605940D01*
X78209574Y32605939D01*
X78477557Y32566500D01*
X78477561Y32566500D01*
X78680633Y32566500D01*
X78715363Y32569043D01*
X78883156Y32581323D01*
X78883160Y32581324D01*
X78883161Y32581324D01*
X79074236Y32623888D01*
X79147553Y32640220D01*
X79400558Y32736986D01*
X79636777Y32869559D01*
X79851177Y33035112D01*
X80039186Y33230119D01*
X80196799Y33450421D01*
X80241191Y33536763D01*
X80320656Y33691325D01*
X80320657Y33691328D01*
X80408116Y33947690D01*
X80408118Y33947695D01*
X80432718Y34080882D01*
X80457318Y34214059D01*
X80457319Y34214070D01*
X80467212Y34484765D01*
X80444152Y34694344D01*
X80437587Y34754015D01*
X80389466Y34938080D01*
X80369072Y35016088D01*
X80298343Y35182526D01*
X80263130Y35265390D01*
X80246072Y35293340D01*
X80122018Y35496610D01*
X79948745Y35704820D01*
X79948741Y35704823D01*
X79948740Y35704825D01*
X79747012Y35885573D01*
X79747002Y35885582D01*
X79521090Y36035044D01*
X79275824Y36150020D01*
X79118392Y36197385D01*
X79016425Y36228062D01*
X78748442Y36267500D01*
X78748439Y36267500D01*
X78545369Y36267500D01*
X78545367Y36267500D01*
X78342839Y36252677D01*
X78342838Y36252677D01*
X78078456Y36193783D01*
X78078441Y36193778D01*
X77825441Y36097014D01*
X77589229Y35964445D01*
X77589225Y35964443D01*
X77374818Y35798884D01*
X77186815Y35603883D01*
X77186810Y35603877D01*
X77029203Y35383583D01*
X77029196Y35383573D01*
X76905343Y35142676D01*
X76905342Y35142673D01*
X76817883Y34886311D01*
X76817880Y34886298D01*
X76768681Y34619942D01*
X76768680Y34619931D01*
X76758788Y34349235D01*
X74803500Y34349235D01*
X74803500Y34415459D01*
X74803576Y34418551D01*
X74805228Y34452179D01*
X74810993Y34569537D01*
X74822810Y34795006D01*
X74823399Y34800882D01*
X74843751Y34938080D01*
X74850020Y34980340D01*
X74865398Y35077439D01*
X74881181Y35177092D01*
X74882284Y35182501D01*
X74927715Y35363868D01*
X74977934Y35551284D01*
X74979450Y35556139D01*
X75043246Y35734436D01*
X75112069Y35913725D01*
X75113900Y35918006D01*
X75195437Y36090403D01*
X75218129Y36134936D01*
X75282196Y36260675D01*
X75284273Y36264427D01*
X75382754Y36428733D01*
X75486600Y36588640D01*
X75488789Y36591792D01*
X75603247Y36746120D01*
X75723145Y36894181D01*
X75725400Y36896814D01*
X75853687Y37038357D01*
X75855708Y37040479D01*
X75989521Y37174292D01*
X75991643Y37176313D01*
X76133186Y37304599D01*
X76135819Y37306854D01*
X76142050Y37311901D01*
X76283880Y37426753D01*
X76438208Y37541211D01*
X76441360Y37543400D01*
X76601267Y37647246D01*
X76765573Y37745727D01*
X76769325Y37747804D01*
X76939600Y37834564D01*
X77111994Y37916100D01*
X77116275Y37917931D01*
X77295564Y37986754D01*
X77473861Y38050550D01*
X77478716Y38052066D01*
X77666132Y38102285D01*
X77847499Y38147716D01*
X77852908Y38148819D01*
X77957620Y38165404D01*
X78049660Y38179980D01*
X78109196Y38188813D01*
X78229118Y38206601D01*
X78234994Y38207190D01*
X78460463Y38219007D01*
X78611456Y38226425D01*
X78614542Y38226500D01*
X155447500Y38226500D01*
X155448000Y38226500D01*
X156121262Y38210474D01*
G37*
%TD.AperFunction*%
%TD*%
M02*
