M48
; DRILL file {KiCad 7.0.6-0} date 2023 July 10, Monday 11:59:54
; FORMAT={-:-/ absolute / inch / decimal}
; #@! TF.CreationDate,2023-07-10T11:59:54-07:00
; #@! TF.GenerationSoftware,Kicad,Pcbnew,7.0.6-0
; #@! TF.FileFunction,NonPlated,1,2,NPTH
FMAT,2
INCH
; #@! TA.AperFunction,NonPlated,NPTH,ComponentDrill
T1C0.0197
; #@! TA.AperFunction,NonPlated,NPTH,ComponentDrill
T2C0.0591
; #@! TA.AperFunction,NonPlated,NPTH,ComponentDrill
T3C0.0709
; #@! TA.AperFunction,NonPlated,NPTH,ComponentDrill
T4C0.0787
; #@! TA.AperFunction,NonPlated,NPTH,ComponentDrill
T5C0.0945
; #@! TA.AperFunction,NonPlated,NPTH,ComponentDrill
T6C0.1260
%
G90
G05
T1
X3.9885Y-0.4017
X3.9885Y-0.4883
X4.02Y-0.4017
X4.02Y-0.4883
X4.0515Y-0.4017
X4.0515Y-0.4883
X4.4885Y-0.4017
X4.4885Y-0.4883
X4.52Y-0.4017
X4.52Y-0.4883
X4.5515Y-0.4017
X4.5515Y-0.4883
X4.9885Y-0.4017
X4.9885Y-0.4883
X5.02Y-0.4017
X5.02Y-0.4883
X5.0515Y-0.4017
X5.0515Y-0.4883
X5.4885Y-0.4017
X5.4885Y-0.4883
X5.52Y-0.4017
X5.52Y-0.4883
X5.5515Y-0.4017
X5.5515Y-0.4883
T2
X3.1444Y0.6505
X3.1444Y0.4595
T3
X3.0251Y0.6623
X3.0251Y0.4477
T4
X5.1113Y0.9353
X5.1113Y-0.0017
X6.0287Y0.9353
X6.0287Y-0.0017
T5
X6.5054Y0.7954
X6.5054Y0.319
T6
X3.095Y1.355
X3.095Y-0.645
X3.295Y-0.12
X3.295Y-2.12
X6.42Y1.23
X6.42Y-0.77
X6.62Y-0.245
X6.62Y-2.245
T0
M30
